<?xml version="1.0" encoding="UTF-8" standalone="no"?>
<!-- Created with Inkscape (http://www.inkscape.org/) -->

<svg
   width="280mm"
   height="80mm"
   viewBox="0 0 280 80"
   version="1.1"
   id="svg1"
   inkscape:version="1.3.2 (091e20ef0f, 2023-11-25, custom)"
   sodipodi:docname="model_compare.svg"
   inkscape:export-filename="model01_balls.pdf"
   inkscape:export-xdpi="96"
   inkscape:export-ydpi="96"
   xmlns:inkscape="http://www.inkscape.org/namespaces/inkscape"
   xmlns:sodipodi="http://sodipodi.sourceforge.net/DTD/sodipodi-0.dtd"
   xmlns="http://www.w3.org/2000/svg"
   xmlns:svg="http://www.w3.org/2000/svg">
  <sodipodi:namedview
     id="namedview1"
     pagecolor="#ffffff"
     bordercolor="#000000"
     borderopacity="0.25"
     inkscape:showpageshadow="2"
     inkscape:pageopacity="0.0"
     inkscape:pagecheckerboard="0"
     inkscape:deskcolor="#d1d1d1"
     inkscape:document-units="mm"
     showguides="false"
     inkscape:lockguides="false"
     inkscape:zoom="2.4554113"
     inkscape:cx="328.25457"
     inkscape:cy="90.41255"
     inkscape:window-width="2560"
     inkscape:window-height="1416"
     inkscape:window-x="0"
     inkscape:window-y="0"
     inkscape:window-maximized="1"
     inkscape:current-layer="svg1"
     showgrid="false" />
  <defs
     id="defs1">
    <marker
       style="overflow:visible"
       id="ArrowWideHeavy"
       refX="0"
       refY="0"
       orient="auto-start-reverse"
       inkscape:stockid="Wide, heavy arrow"
       markerWidth="1"
       markerHeight="1"
       viewBox="0 0 1 1"
       inkscape:isstock="true"
       inkscape:collect="always"
       preserveAspectRatio="xMidYMid">
      <path
         style="fill:context-stroke;fill-rule:evenodd;stroke:none"
         d="m 1,0 -3,3 h -2 l 3,-3 -3,-3 h 2 z"
         id="path3" />
    </marker>
    <marker
       style="overflow:visible"
       id="Triangle"
       refX="0"
       refY="0"
       orient="auto-start-reverse"
       inkscape:stockid="Triangle arrow"
       markerWidth="1"
       markerHeight="1"
       viewBox="0 0 1 1"
       inkscape:isstock="true"
       inkscape:collect="always"
       preserveAspectRatio="xMidYMid">
      <path
         transform="scale(0.5)"
         style="fill:context-stroke;fill-rule:evenodd;stroke:context-stroke;stroke-width:1pt"
         d="M 5.77,0 -2.88,5 V -5 Z"
         id="path135" />
    </marker>
    <rect
       x="-182.96819"
       y="274.45227"
       width="82.630791"
       height="63.940495"
       id="rect33" />
    <rect
       x="-217.39767"
       y="270.51749"
       width="59.021996"
       height="24.592499"
       id="rect32" />
    <marker
       style="overflow:visible"
       id="Triangle-1"
       refX="0"
       refY="0"
       orient="auto-start-reverse"
       inkscape:stockid="Triangle arrow"
       markerWidth="1"
       markerHeight="1"
       viewBox="0 0 1 1"
       inkscape:isstock="true"
       inkscape:collect="always"
       preserveAspectRatio="xMidYMid">
      <path
         transform="scale(0.5)"
         style="fill:context-stroke;fill-rule:evenodd;stroke:context-stroke;stroke-width:1pt"
         d="M 5.77,0 -2.88,5 V -5 Z"
         id="path135-7" />
    </marker>
  </defs>
  <g
     inkscape:groupmode="layer"
     id="layer8"
     inkscape:label="Base"
     style="display:inline">
    <rect
       style="fill:#165db1;fill-opacity:0.4;stroke:#800080;stroke-width:0;stroke-dasharray:none;stroke-opacity:0"
       id="rect3"
       width="18.39809"
       height="7.2726245"
       x="19.718472"
       y="12.662268"
       inkscape:export-filename="model_compare.pdf"
       inkscape:export-xdpi="96"
       inkscape:export-ydpi="96" />
    <path
       style="display:inline;fill:#6a757e;fill-opacity:0.4;stroke:#6a757e;stroke-width:0.2;stroke-dasharray:0.600002, 0.600002;stroke-dashoffset:0;stroke-opacity:0"
       d="M 5.0367961,3.6078498 V 12.662267 H 52.798239 V 3.6078498"
       id="path4-8" />
    <path
       style="fill:#333a41;fill-opacity:0.396078;stroke:#6a757e;stroke-width:0.2;stroke-dasharray:0.600002, 0.600002;stroke-dashoffset:0;stroke-opacity:1"
       d="m 19.718472,12.662267 v 7.272625"
       id="path5" />
    <path
       style="fill:#333a41;fill-opacity:0.396078;stroke:#6a757e;stroke-width:0.2;stroke-dasharray:0.600002, 0.600002;stroke-dashoffset:0;stroke-opacity:1"
       d="m 38.116563,12.662267 v 7.272625"
       id="path6" />
    <path
       style="display:inline;fill:#6a757e;fill-opacity:0.4;stroke:#6a757e;stroke-width:0.2;stroke-dasharray:0.600002, 0.600002;stroke-dashoffset:0;stroke-opacity:0"
       d="M 5.0367961,28.989311 V 19.934893 H 52.798239 v 9.054418"
       id="path4-6" />
    <rect
       style="fill:#165db1;fill-opacity:0.4;stroke:#800080;stroke-width:0;stroke-dasharray:none;stroke-opacity:0"
       id="rect1"
       width="18.39809"
       height="7.2726245"
       x="75.995628"
       y="12.662268"
       inkscape:export-filename="model_general_mball.pdf"
       inkscape:export-xdpi="96"
       inkscape:export-ydpi="96" />
    <path
       style="display:inline;fill:#6a757e;fill-opacity:0.4;stroke:#6a757e;stroke-width:0.2;stroke-dasharray:0.600002, 0.600002;stroke-dashoffset:0;stroke-opacity:1"
       d="m 75.995629,3.6078498 v 9.0544172 h 18.39809 V 3.6078498"
       id="path11" />
    <path
       style="fill:#333a41;fill-opacity:0.396078;stroke:#6a757e;stroke-width:0.2;stroke-dasharray:0.600002, 0.600002;stroke-dashoffset:0;stroke-opacity:1"
       d="m 75.995629,12.662267 v 7.272625"
       id="path31" />
    <path
       style="fill:#333a41;fill-opacity:0.396078;stroke:#6a757e;stroke-width:0.2;stroke-dasharray:0.600002, 0.600002;stroke-dashoffset:0;stroke-opacity:1"
       d="m 94.393719,12.662267 v 7.272625"
       id="path36" />
    <path
       style="display:inline;fill:#6a757e;fill-opacity:0.4;stroke:#6a757e;stroke-width:0.2;stroke-dasharray:0.600002, 0.600002;stroke-dashoffset:0;stroke-opacity:1"
       d="m 75.995621,28.989311 v -9.054418 h 18.398106 v 9.054418"
       id="path37" />
    <path
       style="fill:#ffffff;stroke:#6a757e;stroke-width:0.2;stroke-dasharray:0.600006, 0.600006;stroke-opacity:1;paint-order:markers stroke fill"
       d="M 75.995629,3.5896682 H 94.430515"
       id="path38" />
    <path
       style="fill:#ffffff;stroke:#6a757e;stroke-width:0.2;stroke-dasharray:0.600006, 0.600006;stroke-opacity:1;paint-order:markers stroke fill"
       d="M 75.995621,28.989311 H 94.393727"
       id="path39" />
    <g
       id="g78"
       transform="matrix(0.36796181,0,0,0.36363123,57.500029,1.7127558)"
       style="stroke-width:2.73381">
      <path
         style="fill:#6a757e;fill-opacity:0.2;stroke:#6a757e;stroke-width:0.546762;stroke-dasharray:1.6403, 1.6403;stroke-opacity:0;paint-order:markers stroke fill"
         d="m 50.264995,30.111582 c 0,0 -21.651471,-1.869188 -22.857582,-5.858728 -1.206111,-3.989538 -0.02902,-11.807498 -4.591386,-9.400716 -4.562365,2.406781 -6.366393,2.590268 -7.498445,-1.451566 -1.132052,-4.0418341 1.496908,-5.3430361 -0.205553,-6.7660131 -1.702461,-1.422977 7.414412,-1.472977 3.875578,-1.422977 -3.538834,0.05 31.277388,0 31.277388,0 z"
         id="path40" />
      <path
         id="path45"
         style="display:inline;fill:none;fill-opacity:0;stroke:#6a757e;stroke-width:0.546762;stroke-dasharray:1.6403, 1.6403;stroke-opacity:1;paint-order:markers stroke fill"
         d="M 49.953388,30.083295 C 47.297139,29.835827 28.527996,27.959487 27.407413,24.252854 26.201303,20.26332 27.378388,12.445358 22.816026,14.852138 18.253666,17.258917 16.449632,17.442402 15.317581,13.400572 14.18553,9.358742 16.814488,8.057535 15.112028,6.634559 15.048454,6.581421 14.999967,6.530198 14.965345,6.480824" />
    </g>
    <g
       id="g81"
       transform="matrix(-0.36796181,0,0,0.36363123,112.88934,1.7127558)"
       style="display:inline;stroke-width:2.73381">
      <path
         style="fill:#6a757e;fill-opacity:0.2;stroke:#6a757e;stroke-width:0.546762;stroke-dasharray:1.6403, 1.6403;stroke-opacity:0;paint-order:markers stroke fill"
         d="m 50.264995,30.111582 c 0,0 -21.651471,-1.869188 -22.857582,-5.858728 -1.206111,-3.989538 -0.02902,-11.807498 -4.591386,-9.400716 -4.562365,2.406781 -6.366393,2.590268 -7.498445,-1.451566 -1.132052,-4.0418341 1.496908,-5.3430361 -0.205553,-6.7660131 -1.702461,-1.422977 7.414412,-1.472977 3.875578,-1.422977 -3.538834,0.05 31.277388,0 31.277388,0 z"
         id="path80" />
      <path
         id="path81"
         style="display:inline;fill:none;fill-opacity:0;stroke:#6a757e;stroke-width:0.546762;stroke-dasharray:1.6403, 1.6403;stroke-opacity:1;paint-order:markers stroke fill"
         d="M 49.953388,30.083295 C 47.297139,29.835827 28.527996,27.959487 27.407413,24.252854 26.201303,20.26332 27.378388,12.445358 22.816026,14.852138 18.253666,17.258917 16.449632,17.442402 15.317581,13.400572 14.18553,9.358742 16.814488,8.057535 15.112028,6.634559 15.048454,6.581421 14.999967,6.530198 14.965345,6.480824" />
    </g>
    <g
       id="g95"
       transform="matrix(-0.36796181,0,0,-0.36363123,112.88935,30.884405)"
       style="display:inline;stroke-width:2.73381">
      <path
         style="fill:#6a757e;fill-opacity:0.2;stroke:#6a757e;stroke-width:0.546762;stroke-dasharray:1.6403, 1.6403;stroke-opacity:0;paint-order:markers stroke fill"
         d="m 50.264995,30.111582 c 0,0 -21.651471,-1.869188 -22.857582,-5.858728 -1.206111,-3.989538 -0.02902,-11.807498 -4.591386,-9.400716 -4.562365,2.406781 -6.366393,2.590268 -7.498445,-1.451566 -1.132052,-4.0418341 1.496908,-5.3430361 -0.205553,-6.7660131 -1.702461,-1.422977 7.414412,-1.472977 3.875578,-1.422977 -3.538834,0.05 31.277388,0 31.277388,0 z"
         id="path82" />
      <path
         id="path84"
         style="display:inline;fill:none;fill-opacity:0;stroke:#6a757e;stroke-width:0.546762;stroke-dasharray:1.6403, 1.6403;stroke-opacity:1;paint-order:markers stroke fill"
         d="M 49.953388,30.083295 C 47.297139,29.835827 28.527996,27.959487 27.407413,24.252854 26.201303,20.26332 27.378388,12.445358 22.816026,14.852138 18.253666,17.258917 16.449632,17.442402 15.317581,13.400572 14.18553,9.358742 16.814488,8.057535 15.112028,6.634559 15.048454,6.581421 14.999967,6.530198 14.965345,6.480824" />
    </g>
    <g
       id="g96"
       transform="matrix(0.36796181,0,0,-0.36363123,57.500021,30.884405)"
       style="display:inline;stroke-width:2.73381">
      <path
         style="fill:#6a757e;fill-opacity:0.2;stroke:#6a757e;stroke-width:0.546762;stroke-dasharray:1.6403, 1.6403;stroke-opacity:0;paint-order:markers stroke fill"
         d="m 50.264995,30.111582 c 0,0 -21.651471,-1.869188 -22.857582,-5.858728 -1.206111,-3.989538 -0.02902,-11.807498 -4.591386,-9.400716 -4.562365,2.406781 -6.366393,2.590268 -7.498445,-1.451566 -1.132052,-4.0418341 1.496908,-5.3430361 -0.205553,-6.7660131 -1.702461,-1.422977 7.414412,-1.472977 3.875578,-1.422977 -3.538834,0.05 31.277388,0 31.277388,0 z"
         id="path95" />
      <path
         id="path96"
         style="display:inline;fill:none;fill-opacity:0;stroke:#6a757e;stroke-width:0.546762;stroke-dasharray:1.6403, 1.6403;stroke-opacity:1;paint-order:markers stroke fill"
         d="M 49.953388,30.083295 C 47.297139,29.835827 28.527996,27.959487 27.407413,24.252854 26.201303,20.26332 27.378388,12.445358 22.816026,14.852138 18.253666,17.258917 16.449632,17.442402 15.317581,13.400572 14.18553,9.358742 16.814488,8.057535 15.112028,6.634559 15.048454,6.581421 14.999967,6.530198 14.965345,6.480824" />
    </g>
    <path
       style="fill:#6a757e;fill-opacity:0.5;stroke:#6a757e;stroke-width:0.2;stroke-dasharray:0.600002, 0.600002;stroke-dashoffset:0;stroke-opacity:1;paint-order:markers stroke fill"
       d="M 5.0367962,19.934893 H 52.798239"
       id="path107" />
    <path
       style="fill:#6a757e;fill-opacity:0.5;stroke:#6a757e;stroke-width:0.2;stroke-dasharray:0.600002, 0.600002;stroke-dashoffset:0;stroke-opacity:1;paint-order:markers stroke fill"
       d="M 5.0367962,12.662267 H 52.798239"
       id="path108" />
  </g>
  <g
     inkscape:groupmode="layer"
     id="g77"
     inkscape:label="Axis Split"
     style="display:inline">
    <path
       style="display:inline;fill:#6a757e;fill-opacity:0.396078;stroke:#20252a;stroke-width:0.2;stroke-dasharray:none;stroke-dashoffset:0;stroke-opacity:1;marker-end:url(#Triangle)"
       d="M 4.9999999,16.298411 H 52.775131"
       id="path43" />
    <path
       style="display:inline;fill:#6a757e;fill-opacity:0.396078;stroke:#20252a;stroke-width:0.199999;stroke-dasharray:none;stroke-dashoffset:0;stroke-opacity:1;marker-start:url(#Triangle-1)"
       d="M 28.917346,2.7552114 V 29.934763"
       id="path69" />
    <path
       style="display:inline;fill:#6a757e;fill-opacity:0.396078;stroke:#20252a;stroke-width:0.2;stroke-dasharray:none;stroke-dashoffset:0;stroke-opacity:1;marker-end:url(#Triangle)"
       d="M 61.277156,16.298411 H 109.05231"
       id="path97" />
    <path
       style="display:inline;fill:#6a757e;fill-opacity:0.396078;stroke:#20252a;stroke-width:0.199999;stroke-dasharray:none;stroke-dashoffset:0;stroke-opacity:1;marker-start:url(#Triangle-1)"
       d="M 85.194501,2.7552114 V 29.934763"
       id="path98" />
  </g>
  <path
     style="fill:#6a757e;fill-opacity:0.5;stroke:#20252a;stroke-width:0.7;stroke-dasharray:none;stroke-dashoffset:0;stroke-opacity:1;marker-end:url(#ArrowWideHeavy);paint-order:markers stroke fill"
     d="m 54.684796,16.29858 h 4.262257"
     id="path109" />
  <g
     inkscape:label=""
     transform="translate(101.36205,13.082999)"
     id="g110">
    <g
       fill="#000000"
       fill-opacity="1"
       id="g5"
       transform="matrix(0.352778,0,0,0.352778,-0.758208,-0.656872)">
      <g
         id="use4"
         transform="translate(1.993,10.102)">
        <path
           d="M 2.671875,-3.125 H 3.03125 l 1.5,2.3125 C 4.625,-0.65625 4.859375,-0.265625 4.96875,-0.125 5.046875,0 5.078125,0 5.296875,0 h 1.375 c 0.1875,0 0.34375,0 0.34375,-0.171875 0,-0.09375 -0.0625,-0.15625 -0.15625,-0.171875 C 6.484375,-0.421875 6,-1.09375 5.765625,-1.40625 5.6875,-1.5 5.1875,-2.15625 4.53125,-3.234375 5.40625,-3.40625 6.265625,-3.78125 6.265625,-4.96875 6.265625,-6.34375 4.8125,-6.828125 3.625,-6.828125 H 0.5 c -0.1875,0 -0.34375,0 -0.34375,0.171875 0,0.171875 0.1875,0.171875 0.265625,0.171875 0.578125,0 0.625,0.078125 0.625,0.578125 v 4.984375 c 0,0.5 -0.046875,0.578125 -0.625,0.578125 -0.078125,0 -0.265625,0 -0.265625,0.171875 C 0.15625,0 0.3125,0 0.5,0 H 3.234375 C 3.40625,0 3.5625,0 3.5625,-0.171875 c 0,-0.171875 -0.171875,-0.171875 -0.28125,-0.171875 -0.5625,0 -0.609375,-0.078125 -0.609375,-0.578125 z m 1.921875,-0.5 c 0.28125,-0.359375 0.3125,-0.890625 0.3125,-1.328125 0,-0.484375 -0.0625,-1.015625 -0.375,-1.421875 0.40625,0.09375 1.390625,0.40625 1.390625,1.40625 0,0.65625 -0.296875,1.15625 -1.328125,1.34375 z M 2.671875,-5.9375 c 0,-0.21875 0,-0.546875 0.625,-0.546875 0.84375,0 1.265625,0.359375 1.265625,1.53125 0,1.28125 -0.3125,1.46875 -1.890625,1.46875 z M 1.3125,-0.34375 C 1.390625,-0.53125 1.390625,-0.8125 1.390625,-0.890625 V -5.9375 c 0,-0.09375 0,-0.359375 -0.078125,-0.546875 h 1.140625 c -0.125,0.171875 -0.125,0.359375 -0.125,0.515625 v 5.078125 c 0,0.09375 0,0.359375 0.078125,0.546875 z M 3.4375,-3.125 c 0.078125,-0.015625 0.109375,-0.03125 0.1875,-0.03125 0.15625,0 0.375,-0.015625 0.515625,-0.03125 0.15625,0.234375 1.234375,2.015625 2.0625,2.84375 h -0.96875 z m 0,0"
           id="path8" />
      </g>
    </g>
    <g
       fill="#000000"
       fill-opacity="1"
       id="g6"
       transform="matrix(0.352778,0,0,0.352778,-0.758208,-0.656872)">
      <g
         id="use5"
         transform="translate(9.1879997,6.487)">
        <path
           d="m 0.84375,-0.4375 c -0.015625,0.09375 -0.0625,0.265625 -0.0625,0.28125 0,0.15625 0.125,0.21875 0.234375,0.21875 0.125,0 0.234375,-0.078125 0.28125,-0.140625 0.03125,-0.0625 0.078125,-0.296875 0.125,-0.4375 0.03125,-0.125 0.109375,-0.453125 0.140625,-0.625 0.046875,-0.15625 0.09375,-0.3125 0.125,-0.46875 0.078125,-0.28125 0.09375,-0.34375 0.296875,-0.625 C 2.171875,-2.515625 2.5,-2.875 3.03125,-2.875 c 0.390625,0 0.40625,0.359375 0.40625,0.484375 0,0.421875 -0.296875,1.1875 -0.40625,1.484375 -0.078125,0.203125 -0.109375,0.265625 -0.109375,0.375 0,0.375 0.296875,0.59375 0.65625,0.59375 0.703125,0 1,-0.953125 1,-1.0625 0,-0.09375 -0.078125,-0.09375 -0.109375,-0.09375 -0.09375,0 -0.09375,0.046875 -0.125,0.125 C 4.1875,-0.40625 3.875,-0.125 3.609375,-0.125 c -0.15625,0 -0.1875,-0.09375 -0.1875,-0.25 0,-0.15625 0.046875,-0.25 0.171875,-0.5625 0.078125,-0.21875 0.359375,-0.953125 0.359375,-1.34375 0,-0.671875 -0.53125,-0.796875 -0.90625,-0.796875 -0.578125,0 -0.96875,0.359375 -1.171875,0.640625 -0.046875,-0.484375 -0.453125,-0.640625 -0.75,-0.640625 -0.296875,0 -0.453125,0.21875 -0.546875,0.375 -0.15625,0.265625 -0.25,0.65625 -0.25,0.703125 0,0.078125 0.09375,0.078125 0.125,0.078125 0.09375,0 0.09375,-0.015625 0.140625,-0.203125 0.109375,-0.40625 0.25,-0.75 0.515625,-0.75 0.1875,0 0.234375,0.15625 0.234375,0.34375 0,0.125 -0.0625,0.390625 -0.125,0.578125 -0.046875,0.1875 -0.109375,0.46875 -0.140625,0.625 z m 0,0"
           id="path9" />
      </g>
    </g>
    <g
       fill="#000000"
       fill-opacity="1"
       id="g7"
       transform="matrix(0.352778,0,0,0.352778,-0.758208,-0.656872)">
      <g
         id="use6"
         transform="translate(14.113,6.487)">
        <path
           d="m 5.1875,-1.578125 c 0.109375,0 0.28125,0 0.28125,-0.15625 0,-0.1875 -0.171875,-0.1875 -0.28125,-0.1875 H 1.03125 c -0.109375,0 -0.28125,0 -0.28125,0.171875 0,0.171875 0.15625,0.171875 0.28125,0.171875 z m 0,0"
           id="path10" />
      </g>
    </g>
    <g
       fill="#000000"
       fill-opacity="1"
       id="g8"
       transform="matrix(0.352778,0,0,0.352778,-0.758208,-0.656872)">
      <g
         id="use7"
         transform="translate(20.339001,6.487)">
        <path
           d="m 2.328125,-4.4375 c 0,-0.1875 0,-0.1875 -0.203125,-0.1875 -0.453125,0.4375 -1.078125,0.4375 -1.359375,0.4375 v 0.25 c 0.15625,0 0.625,0 1,-0.1875 v 3.546875 c 0,0.234375 0,0.328125 -0.6875,0.328125 H 0.8125 V 0 c 0.125,0 0.984375,-0.03125 1.234375,-0.03125 0.21875,0 1.09375,0.03125 1.25,0.03125 V -0.25 H 3.03125 c -0.703125,0 -0.703125,-0.09375 -0.703125,-0.328125 z m 0,0"
           id="path110" />
      </g>
    </g>
  </g>
  <g
     inkscape:label=""
     transform="translate(45.179915,13.08299)"
     id="g119">
    <g
       fill="#000000"
       fill-opacity="1"
       id="g112"
       transform="matrix(0.352778,0,0,0.352778,-0.758208,-0.656872)">
      <g
         id="g111"
         transform="translate(1.993,10.102)">
        <path
           d="M 2.671875,-3.125 H 3.03125 l 1.5,2.3125 C 4.625,-0.65625 4.859375,-0.265625 4.96875,-0.125 5.046875,0 5.078125,0 5.296875,0 h 1.375 c 0.1875,0 0.34375,0 0.34375,-0.171875 0,-0.09375 -0.0625,-0.15625 -0.15625,-0.171875 C 6.484375,-0.421875 6,-1.09375 5.765625,-1.40625 5.6875,-1.5 5.1875,-2.15625 4.53125,-3.234375 5.40625,-3.40625 6.265625,-3.78125 6.265625,-4.96875 6.265625,-6.34375 4.8125,-6.828125 3.625,-6.828125 H 0.5 c -0.1875,0 -0.34375,0 -0.34375,0.171875 0,0.171875 0.1875,0.171875 0.265625,0.171875 0.578125,0 0.625,0.078125 0.625,0.578125 v 4.984375 c 0,0.5 -0.046875,0.578125 -0.625,0.578125 -0.078125,0 -0.265625,0 -0.265625,0.171875 C 0.15625,0 0.3125,0 0.5,0 H 3.234375 C 3.40625,0 3.5625,0 3.5625,-0.171875 c 0,-0.171875 -0.171875,-0.171875 -0.28125,-0.171875 -0.5625,0 -0.609375,-0.078125 -0.609375,-0.578125 z m 1.921875,-0.5 c 0.28125,-0.359375 0.3125,-0.890625 0.3125,-1.328125 0,-0.484375 -0.0625,-1.015625 -0.375,-1.421875 0.40625,0.09375 1.390625,0.40625 1.390625,1.40625 0,0.65625 -0.296875,1.15625 -1.328125,1.34375 z M 2.671875,-5.9375 c 0,-0.21875 0,-0.546875 0.625,-0.546875 0.84375,0 1.265625,0.359375 1.265625,1.53125 0,1.28125 -0.3125,1.46875 -1.890625,1.46875 z M 1.3125,-0.34375 C 1.390625,-0.53125 1.390625,-0.8125 1.390625,-0.890625 V -5.9375 c 0,-0.09375 0,-0.359375 -0.078125,-0.546875 h 1.140625 c -0.125,0.171875 -0.125,0.359375 -0.125,0.515625 v 5.078125 c 0,0.09375 0,0.359375 0.078125,0.546875 z M 3.4375,-3.125 c 0.078125,-0.015625 0.109375,-0.03125 0.1875,-0.03125 0.15625,0 0.375,-0.015625 0.515625,-0.03125 0.15625,0.234375 1.234375,2.015625 2.0625,2.84375 h -0.96875 z m 0,0"
           id="path111" />
      </g>
    </g>
    <g
       fill="#000000"
       fill-opacity="1"
       id="g114"
       transform="matrix(0.352778,0,0,0.352778,-0.758208,-0.656872)">
      <g
         id="g113"
         transform="translate(9.1879997,6.487)">
        <path
           d="m 0.84375,-0.4375 c -0.015625,0.09375 -0.0625,0.265625 -0.0625,0.28125 0,0.15625 0.125,0.21875 0.234375,0.21875 0.125,0 0.234375,-0.078125 0.28125,-0.140625 0.03125,-0.0625 0.078125,-0.296875 0.125,-0.4375 0.03125,-0.125 0.109375,-0.453125 0.140625,-0.625 0.046875,-0.15625 0.09375,-0.3125 0.125,-0.46875 0.078125,-0.28125 0.09375,-0.34375 0.296875,-0.625 C 2.171875,-2.515625 2.5,-2.875 3.03125,-2.875 c 0.390625,0 0.40625,0.359375 0.40625,0.484375 0,0.421875 -0.296875,1.1875 -0.40625,1.484375 -0.078125,0.203125 -0.109375,0.265625 -0.109375,0.375 0,0.375 0.296875,0.59375 0.65625,0.59375 0.703125,0 1,-0.953125 1,-1.0625 0,-0.09375 -0.078125,-0.09375 -0.109375,-0.09375 -0.09375,0 -0.09375,0.046875 -0.125,0.125 C 4.1875,-0.40625 3.875,-0.125 3.609375,-0.125 c -0.15625,0 -0.1875,-0.09375 -0.1875,-0.25 0,-0.15625 0.046875,-0.25 0.171875,-0.5625 0.078125,-0.21875 0.359375,-0.953125 0.359375,-1.34375 0,-0.671875 -0.53125,-0.796875 -0.90625,-0.796875 -0.578125,0 -0.96875,0.359375 -1.171875,0.640625 -0.046875,-0.484375 -0.453125,-0.640625 -0.75,-0.640625 -0.296875,0 -0.453125,0.21875 -0.546875,0.375 -0.15625,0.265625 -0.25,0.65625 -0.25,0.703125 0,0.078125 0.09375,0.078125 0.125,0.078125 0.09375,0 0.09375,-0.015625 0.140625,-0.203125 0.109375,-0.40625 0.25,-0.75 0.515625,-0.75 0.1875,0 0.234375,0.15625 0.234375,0.34375 0,0.125 -0.0625,0.390625 -0.125,0.578125 -0.046875,0.1875 -0.109375,0.46875 -0.140625,0.625 z m 0,0"
           id="path112" />
      </g>
    </g>
    <g
       fill="#000000"
       fill-opacity="1"
       id="g116"
       transform="matrix(0.352778,0,0,0.352778,-0.758208,-0.656872)">
      <g
         id="g115"
         transform="translate(14.113,6.487)">
        <path
           d="m 5.1875,-1.578125 c 0.109375,0 0.28125,0 0.28125,-0.15625 0,-0.1875 -0.171875,-0.1875 -0.28125,-0.1875 H 1.03125 c -0.109375,0 -0.28125,0 -0.28125,0.171875 0,0.171875 0.15625,0.171875 0.28125,0.171875 z m 0,0"
           id="path114" />
      </g>
    </g>
    <g
       fill="#000000"
       fill-opacity="1"
       id="g118"
       transform="matrix(0.352778,0,0,0.352778,-0.758208,-0.656872)">
      <g
         id="g117"
         transform="translate(20.339001,6.487)">
        <path
           d="m 2.328125,-4.4375 c 0,-0.1875 0,-0.1875 -0.203125,-0.1875 -0.453125,0.4375 -1.078125,0.4375 -1.359375,0.4375 v 0.25 c 0.15625,0 0.625,0 1,-0.1875 v 3.546875 c 0,0.234375 0,0.328125 -0.6875,0.328125 H 0.8125 V 0 c 0.125,0 0.984375,-0.03125 1.234375,-0.03125 0.21875,0 1.09375,0.03125 1.25,0.03125 V -0.25 H 3.03125 c -0.703125,0 -0.703125,-0.09375 -0.703125,-0.328125 z m 0,0"
           id="path116" />
      </g>
    </g>
  </g>
</svg>
