<?xml version="1.0" encoding="UTF-8" standalone="no"?>
<!-- Created with Inkscape (http://www.inkscape.org/) -->

<svg
   width="200mm"
   height="200mm"
   viewBox="0 0 200 200"
   version="1.1"
   id="svg1"
   inkscape:version="1.3.2 (091e20ef0f, 2023-11-25, custom)"
   sodipodi:docname="model01.svg"
   inkscape:export-filename="model01.png"
   inkscape:export-xdpi="96"
   inkscape:export-ydpi="96"
   xmlns:inkscape="http://www.inkscape.org/namespaces/inkscape"
   xmlns:sodipodi="http://sodipodi.sourceforge.net/DTD/sodipodi-0.dtd"
   xmlns="http://www.w3.org/2000/svg"
   xmlns:svg="http://www.w3.org/2000/svg">
  <sodipodi:namedview
     id="namedview1"
     pagecolor="#ffffff"
     bordercolor="#000000"
     borderopacity="0.25"
     inkscape:showpageshadow="2"
     inkscape:pageopacity="0.0"
     inkscape:pagecheckerboard="0"
     inkscape:deskcolor="#d1d1d1"
     inkscape:document-units="mm"
     showguides="true"
     inkscape:lockguides="false"
     inkscape:zoom="1.5256504"
     inkscape:cx="363.12382"
     inkscape:cy="305.4435"
     inkscape:window-width="1920"
     inkscape:window-height="1052"
     inkscape:window-x="0"
     inkscape:window-y="0"
     inkscape:window-maximized="1"
     inkscape:current-layer="layer5">
    <sodipodi:guide
       position="99.999999,200"
       orientation="0,1"
       id="guide1"
       inkscape:locked="false"
       inkscape:label=""
       inkscape:color="rgb(0,134,229)" />
    <sodipodi:guide
       position="0,99.999999"
       orientation="-1,0"
       id="guide2"
       inkscape:locked="false"
       inkscape:label=""
       inkscape:color="rgb(0,134,229)" />
    <sodipodi:guide
       position="99.999999,0"
       orientation="0,1"
       id="guide3"
       inkscape:locked="false"
       inkscape:label=""
       inkscape:color="rgb(0,134,229)" />
    <sodipodi:guide
       position="200,99.999999"
       orientation="-1,0"
       id="guide4"
       inkscape:locked="false"
       inkscape:label=""
       inkscape:color="rgb(0,134,229)" />
    <sodipodi:guide
       position="99.999999,99.999999"
       orientation="0,1"
       id="guide5"
       inkscape:locked="false"
       inkscape:label=""
       inkscape:color="rgb(0,134,229)" />
    <sodipodi:guide
       position="99.999999,99.999999"
       orientation="755.90551,0"
       id="guide6"
       inkscape:locked="false" />
    <sodipodi:guide
       position="99.999999,99.999999"
       orientation="0.70710678,0.70710678"
       id="guide7"
       inkscape:locked="false"
       inkscape:label=""
       inkscape:color="rgb(0,134,229)" />
    <sodipodi:guide
       position="99.999999,99.999999"
       orientation="0.70710678,-0.70710678"
       id="guide8"
       inkscape:locked="false" />
  </sodipodi:namedview>
  <defs
     id="defs1">
    <rect
       x="-182.96818"
       y="274.45228"
       width="82.630793"
       height="63.940495"
       id="rect33" />
    <rect
       x="-217.39768"
       y="270.51748"
       width="59.021995"
       height="24.592498"
       id="rect32" />
    <marker
       style="overflow:visible"
       id="marker30"
       refX="0"
       refY="0"
       orient="auto-start-reverse"
       inkscape:stockid="Wide arrow"
       markerWidth="1"
       markerHeight="1"
       viewBox="0 0 1 1"
       inkscape:isstock="true"
       inkscape:collect="always"
       preserveAspectRatio="xMidYMid">
      <path
         style="fill:none;stroke:context-stroke;stroke-width:1;stroke-linecap:butt"
         d="M 3,-3 0,0 3,3"
         transform="rotate(180,0.125,0)"
         sodipodi:nodetypes="ccc"
         id="path30" />
    </marker>
    <marker
       style="overflow:visible"
       id="ArrowWide"
       refX="0"
       refY="0"
       orient="auto-start-reverse"
       inkscape:stockid="Wide arrow"
       markerWidth="1"
       markerHeight="1"
       viewBox="0 0 1 1"
       inkscape:isstock="true"
       inkscape:collect="always"
       preserveAspectRatio="xMidYMid">
      <path
         style="fill:none;stroke:context-stroke;stroke-width:1;stroke-linecap:butt"
         d="M 3,-3 0,0 3,3"
         transform="rotate(180,0.125,0)"
         sodipodi:nodetypes="ccc"
         id="path1" />
    </marker>
    <marker
       style="overflow:visible"
       id="Triangle"
       refX="0"
       refY="0"
       orient="auto-start-reverse"
       inkscape:stockid="Triangle arrow"
       markerWidth="1"
       markerHeight="1"
       viewBox="0 0 1 1"
       inkscape:isstock="true"
       inkscape:collect="always"
       preserveAspectRatio="xMidYMid">
      <path
         transform="scale(0.5)"
         style="fill:context-stroke;fill-rule:evenodd;stroke:context-stroke;stroke-width:1pt"
         d="M 5.77,0 -2.88,5 V -5 Z"
         id="path135" />
    </marker>
    <marker
       style="overflow:visible"
       id="ArrowWide-7"
       refX="0"
       refY="0"
       orient="auto-start-reverse"
       inkscape:stockid="Wide arrow"
       markerWidth="1"
       markerHeight="1"
       viewBox="0 0 1 1"
       inkscape:isstock="true"
       inkscape:collect="always"
       preserveAspectRatio="xMidYMid">
      <path
         style="fill:none;stroke:context-stroke;stroke-width:1;stroke-linecap:butt"
         d="M 3,-3 0,0 3,3"
         transform="rotate(180,0.125,0)"
         sodipodi:nodetypes="ccc"
         id="path1-5" />
    </marker>
    <marker
       style="overflow:visible"
       id="marker30-3"
       refX="0"
       refY="0"
       orient="auto-start-reverse"
       inkscape:stockid="Wide arrow"
       markerWidth="1"
       markerHeight="1"
       viewBox="0 0 1 1"
       inkscape:isstock="true"
       inkscape:collect="always"
       preserveAspectRatio="xMidYMid">
      <path
         style="fill:none;stroke:context-stroke;stroke-width:1;stroke-linecap:butt"
         d="M 3,-3 0,0 3,3"
         transform="rotate(180,0.125,0)"
         sodipodi:nodetypes="ccc"
         id="path30-5" />
    </marker>
  </defs>
  <g
     inkscape:groupmode="layer"
     id="layer2"
     inkscape:label="Layer 2"
     style="display:inline">
    <rect
       style="display:inline;opacity:0.6;fill:#808080;stroke:#000000;stroke-width:0;stroke-dasharray:none"
       id="rect16"
       width="60"
       height="36"
       x="70"
       y="82" />
  </g>
  <g
     inkscape:groupmode="layer"
     id="layer3"
     inkscape:label="Layer 3">
    <g
       id="g18"
       style="opacity:0.7;fill:#0000ff"
       transform="matrix(2,0,0,1,-100,0)">
      <rect
         style="opacity:0.7;fill:#0000ff;stroke:#000000;stroke-width:0;stroke-dasharray:none"
         id="rect18"
         width="60"
         height="65"
         x="70"
         y="17"
         inkscape:label="rect18" />
      <rect
         style="opacity:0.7;fill:#0000ff;stroke:#000000;stroke-width:0;stroke-dasharray:none"
         id="rect18-9"
         width="60"
         height="65"
         x="70"
         y="118"
         inkscape:label="rect18" />
    </g>
  </g>
  <g
     inkscape:groupmode="layer"
     id="layer4"
     inkscape:label="Layer 4"
     style="opacity:1">
    <path
       style="opacity:1;fill:#4d4d4d;stroke:#4d4d4d;stroke-width:0.5;stroke-dasharray:1.5, 1.5;stroke-dashoffset:0;stroke-opacity:1"
       d="M 39.999999,81.999999 H 160"
       id="path21" />
    <path
       style="opacity:1;fill:#4d4d4d;stroke:#4d4d4d;stroke-width:0.5;stroke-dasharray:1.5, 1.5;stroke-dashoffset:0;stroke-opacity:1"
       d="M 39.999999,118 H 160"
       id="path22" />
    <path
       style="opacity:1;fill:#4d4d4d;stroke:#4d4d4d;stroke-width:0.5;stroke-dasharray:1.5, 1.5;stroke-dashoffset:0;stroke-opacity:1"
       d="M 160,17 V 81.999999"
       id="path25" />
    <path
       style="opacity:1;fill:#4d4d4d;stroke:#4d4d4d;stroke-width:0.5;stroke-dasharray:1.5, 1.5;stroke-dashoffset:0;stroke-opacity:1"
       d="m 160,118 v 65"
       id="path26" />
    <path
       style="opacity:1;fill:#4d4d4d;stroke:#4d4d4d;stroke-width:0.5;stroke-dasharray:1.5, 1.5;stroke-dashoffset:0;stroke-opacity:1"
       d="m 39.999999,118 v 65"
       id="path27" />
    <path
       style="opacity:1;fill:#4d4d4d;stroke:#4d4d4d;stroke-width:0.5;stroke-dasharray:1.5, 1.5;stroke-dashoffset:0;stroke-opacity:1"
       d="M 39.999999,17 V 81.999999"
       id="path28" />
    <path
       style="fill:#4d4d4d;stroke:#4d4d4d;stroke-width:0.5;stroke-dasharray:1.5, 1.5;stroke-dashoffset:0"
       d="M 69.999999,81.999999 V 118"
       id="path10" />
    <path
       style="fill:#4d4d4d;stroke:#4d4d4d;stroke-width:0.5;stroke-dasharray:1.5, 1.5;stroke-dashoffset:0"
       d="M 129.93461,81.999999 130,118"
       id="path12" />
  </g>
  <g
     inkscape:groupmode="layer"
     id="layer5"
     inkscape:label="Layer 5"
     style="display:inline">
    <path
       style="opacity:1;fill:#808080;stroke:#000000;stroke-width:0.5;stroke-dasharray:none;stroke-dashoffset:0;stroke-opacity:1;marker-start:url(#ArrowWide);marker-end:url(#marker30)"
       d="m 100.68742,48.467875 h 59.12516"
       id="path29" />
    <path
       style="fill:#808080;stroke:#000000;stroke-width:0.5;stroke-dasharray:none;stroke-dashoffset:0;stroke-opacity:1;marker-start:url(#ArrowWide-7);marker-end:url(#marker30-3)"
       d="M 146.26764,82.261933 V 99.975197"
       id="path29-9" />
    <g
       inkscape:label=""
       transform="translate(130.25,44.590972)"
       id="g1">
      <g
         fill="#000000"
         fill-opacity="1"
         id="g2"
         transform="matrix(0.352778,0,0,0.352778,-0.835378,-0.703395)">
        <g
           id="use1"
           transform="translate(1.993,9.4469995)">
          <path
             d="m 2.4375,-3.84375 v -2.828125 c 0,-0.25 0,-0.390625 0.25,-0.421875 0.109375,-0.015625 0.421875,-0.015625 0.640625,-0.015625 0.984375,0 2.203125,0.046875 2.203125,1.625 0,0.75 -0.265625,1.640625 -1.875,1.640625 z M 4.75,-3.703125 c 1.046875,-0.265625 1.90625,-0.9375 1.90625,-1.78125 0,-1.046875 -1.25,-1.96875 -2.84375,-1.96875 H 0.375 v 0.34375 h 0.265625 c 0.84375,0 0.859375,0.125 0.859375,0.515625 v 5.75 c 0,0.390625 -0.015625,0.5 -0.859375,0.5 H 0.375 V 0 c 0.40625,-0.03125 1.171875,-0.03125 1.59375,-0.03125 0.4375,0 1.203125,0 1.59375,0.03125 V -0.34375 H 3.296875 c -0.828125,0 -0.859375,-0.109375 -0.859375,-0.5 v -2.765625 h 1.265625 c 0.171875,0 0.625,0 1.015625,0.375 0.40625,0.390625 0.40625,0.71875 0.40625,1.453125 0,0.71875 0,1.15625 0.453125,1.5625 0.4375,0.390625 1.046875,0.453125 1.375,0.453125 0.84375,0 1.03125,-0.890625 1.03125,-1.1875 0,-0.078125 0,-0.1875 -0.140625,-0.1875 -0.125,0 -0.125,0.09375 -0.140625,0.171875 C 7.640625,-0.203125 7.265625,0 6.984375,0 6.453125,0 6.375,-0.5625 6.21875,-1.578125 L 6.078125,-2.4375 C 5.875,-3.140625 5.34375,-3.5 4.75,-3.703125 Z m 0,0"
             id="path2" />
        </g>
      </g>
    </g>
    <g
       inkscape:label=""
       transform="translate(148.05576,89.803917)"
       id="g8">
      <g
         fill="#000000"
         fill-opacity="1"
         id="g7"
         transform="matrix(0.352778,0,0,0.352778,-0.846402,-0.703395)">
        <g
           id="g6"
           transform="translate(1.993,9.4469995)">
          <path
             d="m 2.625,-7.203125 c -0.09375,-0.25 -0.125,-0.25 -0.375,-0.25 H 0.40625 v 0.34375 h 0.265625 c 0.828125,0 0.859375,0.125 0.859375,0.515625 v 5.453125 c 0,0.296875 0,0.796875 -1.125,0.796875 V 0 c 0.375,-0.015625 0.90625,-0.03125 1.265625,-0.03125 0.375,0 0.90625,0.015625 1.28125,0.03125 v -0.34375 c -1.125,0 -1.125,-0.5 -1.125,-0.796875 V -7.03125 H 1.84375 l 2.625,6.796875 C 4.53125,-0.09375 4.578125,0 4.6875,0 4.8125,0 4.84375,-0.09375 4.890625,-0.203125 L 7.5625,-7.109375 h 0.015625 v 6.265625 c 0,0.390625 -0.015625,0.5 -0.859375,0.5 H 6.453125 V 0 c 0.40625,-0.03125 1.15625,-0.03125 1.578125,-0.03125 0.421875,0 1.15625,0 1.5625,0.03125 V -0.34375 H 9.328125 c -0.84375,0 -0.859375,-0.109375 -0.859375,-0.5 v -5.75 c 0,-0.390625 0.015625,-0.515625 0.859375,-0.515625 H 9.59375 v -0.34375 H 7.75 c -0.296875,0 -0.296875,0.015625 -0.359375,0.21875 L 5,-1.09375 Z m 0,0"
             id="path5" />
        </g>
      </g>
    </g>
  </g>
  <g
     inkscape:label="Layer 1"
     inkscape:groupmode="layer"
     id="layer1">
    <path
       style="opacity:1;fill:#1e1e20;stroke:#000000;stroke-width:0.5;stroke-dasharray:none;marker-end:url(#Triangle)"
       d="M 13.88871,100 H 182.50252"
       id="path11" />
    <path
       style="fill:#1e1e20;stroke:#000000;stroke-width:0.5;stroke-dasharray:none;marker-end:url(#Triangle)"
       d="M 100,184.30691 V 15.693092"
       id="path11-5" />
    <rect
       style="opacity:0;fill:#1e1e20;stroke:#000000;stroke-width:0.499999;stroke-dasharray:none"
       id="rect15"
       width="36.177612"
       height="37.218693"
       x="43.985729"
       y="23.164083" />
  </g>
</svg>
