<?xml version="1.0" encoding="UTF-8" standalone="no"?>
<!-- Created with Inkscape (http://www.inkscape.org/) -->

<svg
   width="150mm"
   height="50mm"
   viewBox="0 0 150 50"
   version="1.1"
   id="svg1"
   inkscape:version="1.3.2 (091e20ef0f, 2023-11-25, custom)"
   sodipodi:docname="soap_film.svg"
   xmlns:inkscape="http://www.inkscape.org/namespaces/inkscape"
   xmlns:sodipodi="http://sodipodi.sourceforge.net/DTD/sodipodi-0.dtd"
   xmlns="http://www.w3.org/2000/svg"
   xmlns:svg="http://www.w3.org/2000/svg">
  <sodipodi:namedview
     id="namedview1"
     pagecolor="#ffffff"
     bordercolor="#000000"
     borderopacity="0.25"
     inkscape:showpageshadow="2"
     inkscape:pageopacity="0.0"
     inkscape:pagecheckerboard="0"
     inkscape:deskcolor="#d1d1d1"
     inkscape:document-units="mm"
     inkscape:zoom="3.206343"
     inkscape:cx="266.03517"
     inkscape:cy="76.722922"
     inkscape:window-width="2560"
     inkscape:window-height="1416"
     inkscape:window-x="0"
     inkscape:window-y="0"
     inkscape:window-maximized="1"
     inkscape:current-layer="layer1" />
  <defs
     id="defs1" />
  <g
     inkscape:label="Layer 1"
     inkscape:groupmode="layer"
     id="layer1">
    <path
       style="fill:#3070b3;fill-opacity:0.4;stroke:#3070b3;stroke-width:0.600001;stroke-linecap:square;paint-order:markers stroke fill"
       d="M 19.416578,33.75032 C 35.123525,38.165618 49.589626,45.418745 41.974034,34.085152 34.358439,22.751558 42.694664,17.723123 31.340423,16.0355 19.986181,14.347879 19.014498,3.5986325 12.927087,8.9401096 6.8396767,14.281589 4.302677,15.52956 7.0152611,20.868271 c 2.7125856,5.338712 3.8463059,10.578397 7.4310659,11.50781 3.584759,0.929409 4.970251,1.374239 4.970251,1.374239 z"
       id="path1"
       sodipodi:nodetypes="csssssc"
       inkscape:export-filename="soap_film.pdf"
       inkscape:export-xdpi="96"
       inkscape:export-ydpi="96" />
    <circle
       style="fill:#3070b3;fill-opacity:0;stroke:#333a41;stroke-width:0.2;stroke-linecap:square;stroke-dasharray:none;stroke-opacity:1;paint-order:markers stroke fill"
       id="path2"
       cx="38.439629"
       cy="25.599272"
       r="1.6976906" />
    <path
       style="fill:#3070b3;fill-opacity:0;stroke:#333a41;stroke-width:0.2;stroke-linecap:square;stroke-dasharray:none;stroke-opacity:1;paint-order:markers stroke fill"
       d="M 38.068478,23.942649 70.637472,13.392746"
       id="path3"
       sodipodi:nodetypes="cc" />
    <path
       style="fill:#3070b3;fill-opacity:0;stroke:#333a41;stroke-width:0.2;stroke-linecap:square;stroke-dasharray:none;stroke-opacity:1;paint-order:markers stroke fill"
       d="m 38.069269,27.256072 32.694295,9.398005"
       id="path4"
       sodipodi:nodetypes="cc" />
    <path
       style="fill:#3070b3;fill-opacity:0;stroke:#3070b3;stroke-width:0.6;stroke-linecap:butt;stroke-dasharray:none;stroke-opacity:1;paint-order:markers stroke fill"
       d="m 62.6,25 c 0,0 7.290393,-2.99611 12.131133,-1.198419 4.84074,1.79769 3.86493,3.951411 7.496275,2.088752 3.631343,-1.86266 5.150495,-1.630263 5.150495,-1.630263"
       id="path6"
       sodipodi:nodetypes="cssc" />
    <circle
       style="fill:#3070b3;fill-opacity:0;stroke:#333a41;stroke-width:0.2;stroke-linecap:square;stroke-dasharray:none;stroke-opacity:1;paint-order:markers stroke fill"
       id="path5"
       cx="75"
       cy="25"
       r="12.4" />
    <circle
       style="fill:#3070b3;fill-opacity:0;stroke:#333a41;stroke-width:0.2;stroke-linecap:square;stroke-dasharray:none;stroke-opacity:1;paint-order:markers stroke fill"
       id="path2-2"
       cx="77.749046"
       cy="25.599272"
       r="1.6976906" />
    <path
       style="fill:#3070b3;fill-opacity:0;stroke:#333a41;stroke-width:0.2;stroke-linecap:square;stroke-dasharray:none;stroke-opacity:1;paint-order:markers stroke fill"
       d="M 77.318234,23.957153 109.94689,13.392746"
       id="path3-9"
       sodipodi:nodetypes="cc" />
    <path
       style="fill:#3070b3;fill-opacity:0;stroke:#333a41;stroke-width:0.2;stroke-linecap:square;stroke-dasharray:none;stroke-opacity:1;paint-order:markers stroke fill"
       d="m 77.299306,27.236308 32.773674,9.417768"
       id="path4-1"
       sodipodi:nodetypes="cc" />
    <path
       style="fill:#3070b3;fill-opacity:0;stroke:#3070b3;stroke-width:0.600001;stroke-linecap:butt;stroke-dasharray:none;stroke-opacity:1;paint-order:markers stroke fill"
       d="m 103.05585,19.792582 c 2.21894,1.175014 4.61531,3.499292 10.81552,3.131535 9.32201,-0.552922 12.08308,-2.184763 12.08308,-2.184763"
       id="path7"
       sodipodi:nodetypes="csc" />
    <path
       style="fill:#3070b3;fill-opacity:0;stroke:#3070b3;stroke-width:0.600001;stroke-linecap:butt;stroke-dasharray:none;stroke-opacity:1;paint-order:markers stroke fill"
       d="m 101.90942,25 c 9.81949,2.945354 12.04882,2.812381 16.74269,1.631042 C 121.25039,25.977115 126.70941,25 126.70941,25"
       id="path8"
       sodipodi:nodetypes="csc" />
    <path
       style="fill:#3070b3;fill-opacity:0.396047;stroke:#3070b3;stroke-width:0.1;stroke-linecap:butt;stroke-dasharray:none;stroke-opacity:1;paint-order:markers stroke fill"
       d="m 103.05585,19.792584 6.33573,3.0967 7.68574,0.02413 6.64451,-1.371811 2.23262,-0.802251 c 0.4886,1.313511 0.7432,2.732401 0.75496,4.260648 l -12.47796,2.397524 -6.23681,-0.737055 -6.08522,-1.660469 c 0.0499,-1.830038 0.35404,-3.587963 1.14643,-5.207418 z"
       id="path10"
       sodipodi:nodetypes="cccccccccc" />
    <circle
       style="display:inline;fill:#3070b3;fill-opacity:0;stroke:#333a41;stroke-width:0.2;stroke-linecap:square;stroke-dasharray:none;stroke-opacity:1;paint-order:markers stroke fill"
       id="path5-2"
       cx="114.30942"
       cy="25"
       r="12.4" />
    <circle
       style="fill:#ef9067;fill-opacity:1;stroke:#ef9067;stroke-width:0.0999999;stroke-linecap:butt;stroke-dasharray:none;stroke-opacity:1;paint-order:markers stroke fill"
       id="path11"
       cx="117.34854"
       cy="26.122967"
       r="0.45000002" />
    <circle
       style="fill:#ef9067;fill-opacity:1;stroke:#ef9067;stroke-width:0.0999999;stroke-linecap:butt;stroke-dasharray:none;stroke-opacity:1;paint-order:markers stroke fill"
       id="path11-56"
       cx="120.96647"
       cy="25.297472"
       r="0.45000002" />
    <circle
       style="fill:#ef9067;fill-opacity:1;stroke:#ef9067;stroke-width:0.0999999;stroke-linecap:butt;stroke-dasharray:none;stroke-opacity:1;paint-order:markers stroke fill"
       id="path11-56-4"
       cx="124.52036"
       cy="24.592167"
       r="0.45000002" />
    <circle
       style="fill:#ef9067;fill-opacity:1;stroke:#ef9067;stroke-width:0.0999999;stroke-linecap:butt;stroke-dasharray:none;stroke-opacity:1;paint-order:markers stroke fill"
       id="path11-3"
       cx="113.55504"
       cy="26.622967"
       r="0.45000002" />
    <circle
       style="fill:#ef9067;fill-opacity:1;stroke:#ef9067;stroke-width:0.0999999;stroke-linecap:butt;stroke-dasharray:none;stroke-opacity:1;paint-order:markers stroke fill"
       id="path11-2"
       cx="109.89225"
       cy="26.249527"
       r="0.45000002" />
    <circle
       style="fill:#ef9067;fill-opacity:1;stroke:#ef9067;stroke-width:0.0999999;stroke-linecap:butt;stroke-dasharray:none;stroke-opacity:1;paint-order:markers stroke fill"
       id="path11-7"
       cx="107.11193"
       cy="25.625134"
       r="0.45000002" />
    <circle
       style="fill:#ef9067;fill-opacity:1;stroke:#ef9067;stroke-width:0.0999999;stroke-linecap:butt;stroke-dasharray:none;stroke-opacity:1;paint-order:markers stroke fill"
       id="path11-23"
       cx="104.49958"
       cy="24.926111"
       r="0.45000002" />
    <circle
       style="fill:#ef9067;fill-opacity:1;stroke:#ef9067;stroke-width:0.0999999;stroke-linecap:butt;stroke-dasharray:none;stroke-opacity:1;paint-order:markers stroke fill"
       id="path11-22"
       cx="122.01501"
       cy="22.762466"
       r="0.45000002" />
    <circle
       style="fill:#ef9067;fill-opacity:1;stroke:#ef9067;stroke-width:0.0999999;stroke-linecap:butt;stroke-dasharray:none;stroke-opacity:1;paint-order:markers stroke fill"
       id="path11-36"
       cx="118.9471"
       cy="23.262466"
       r="0.45000002" />
    <circle
       style="fill:#ef9067;fill-opacity:1;stroke:#ef9067;stroke-width:0.0999999;stroke-linecap:butt;stroke-dasharray:none;stroke-opacity:1;paint-order:markers stroke fill"
       id="path11-31"
       cx="115.78333"
       cy="23.586903"
       r="0.45000002" />
    <circle
       style="fill:#ef9067;fill-opacity:1;stroke:#ef9067;stroke-width:0.0999999;stroke-linecap:butt;stroke-dasharray:none;stroke-opacity:1;paint-order:markers stroke fill"
       id="path11-8"
       cx="112.19077"
       cy="23.762466"
       r="0.45000002" />
    <circle
       style="fill:#ef9067;fill-opacity:1;stroke:#ef9067;stroke-width:0.0999999;stroke-linecap:butt;stroke-dasharray:none;stroke-opacity:1;paint-order:markers stroke fill"
       id="path11-361"
       cx="108.40245"
       cy="23.262466"
       r="0.45000002" />
    <circle
       style="fill:#ef9067;fill-opacity:1;stroke:#ef9067;stroke-width:0.0999999;stroke-linecap:butt;stroke-dasharray:none;stroke-opacity:1;paint-order:markers stroke fill"
       id="path11-20"
       cx="106.03473"
       cy="22.394962"
       r="0.45000002" />
    <circle
       style="fill:#ef9067;fill-opacity:1;stroke:#ef9067;stroke-width:0.0999999;stroke-linecap:butt;stroke-dasharray:none;stroke-opacity:1;paint-order:markers stroke fill"
       id="path11-5"
       cx="104.19737"
       cy="21.394962"
       r="0.45000002" />
    <g
       inkscape:label=""
       transform="translate(66.013377,8.0459664)"
       id="g12">
      <g
         fill="#000000"
         fill-opacity="1"
         id="g9"
         transform="matrix(0.352778,0,0,0.352778,-0.829866,-0.707496)">
        <g
           id="use7"
           transform="translate(1.993,9.5679998)">
          <path
             d="M 2.53125,-7.3125 C 2.4375,-7.4375 2.421875,-7.453125 2.21875,-7.453125 H 0.359375 v 0.34375 h 0.3125 c 0.171875,0 0.390625,0.015625 0.546875,0.015625 0.25,0.03125 0.265625,0.046875 0.265625,0.25 v 5.703125 c 0,0.296875 0,0.796875 -1.125,0.796875 V 0 c 0.375,-0.015625 0.921875,-0.03125 1.28125,-0.03125 C 2,-0.03125 2.53125,-0.015625 2.90625,0 v -0.34375 c -1.125,0 -1.125,-0.5 -1.125,-0.796875 V -6.8125 c 0.0625,0.046875 0.078125,0.0625 0.109375,0.125 L 6.34375,-0.140625 C 6.453125,-0.015625 6.453125,0 6.53125,0 6.6875,0 6.6875,-0.078125 6.6875,-0.28125 v -6.015625 c 0,-0.296875 0,-0.8125 1.125,-0.8125 v -0.34375 c -0.390625,0.015625 -0.921875,0.03125 -1.28125,0.03125 -0.359375,0 -0.890625,-0.015625 -1.28125,-0.03125 v 0.34375 c 1.125,0 1.125,0.515625 1.125,0.8125 v 4.65625 z m 0,0"
             id="path14" />
        </g>
        <g
           id="use8"
           transform="translate(10.174825,9.5679998)">
          <path
             d="M 3.625,-0.828125 C 3.671875,-0.390625 3.96875,0.0625 4.484375,0.0625 4.71875,0.0625 5.375,-0.09375 5.375,-0.96875 V -1.578125 H 5.109375 v 0.609375 c 0,0.625 -0.28125,0.703125 -0.390625,0.703125 -0.359375,0 -0.40625,-0.5 -0.40625,-0.546875 V -3 c 0,-0.453125 0,-0.875 -0.390625,-1.28125 -0.4375,-0.4375 -0.984375,-0.609375 -1.5,-0.609375 -0.890625,0 -1.640625,0.515625 -1.640625,1.234375 0,0.328125 0.21875,0.515625 0.5,0.515625 0.296875,0 0.5,-0.21875 0.5,-0.5 0,-0.140625 -0.0625,-0.5 -0.5625,-0.5 0.296875,-0.390625 0.828125,-0.5 1.1875,-0.5 0.53125,0 1.15625,0.421875 1.15625,1.390625 v 0.40625 C 3,-2.8125 2.234375,-2.78125 1.546875,-2.453125 c -0.8125,0.375 -1.09375,0.9375 -1.09375,1.421875 0,0.875 1.0625,1.15625 1.75,1.15625 0.71875,0 1.21875,-0.4375 1.421875,-0.953125 z M 3.5625,-2.625 v 1.09375 c 0,1.046875 -0.796875,1.40625 -1.28125,1.40625 -0.53125,0 -0.984375,-0.375 -0.984375,-0.921875 0,-0.59375 0.453125,-1.5 2.265625,-1.578125 z m 0,0"
             id="path15" />
        </g>
        <g
           id="use9"
           transform="translate(15.629375,9.5679998)">
          <path
             d="m 1.15625,-0.828125 c 0,0.484375 -0.125,0.484375 -0.84375,0.484375 V 0 C 0.671875,-0.015625 1.171875,-0.03125 1.5,-0.03125 c 0.328125,0 0.75,0.015625 1.1875,0.03125 v -0.34375 c -0.71875,0 -0.84375,0 -0.84375,-0.484375 v -1.125 l 0.703125,-0.59375 C 3.375,-1.390625 3.84375,-0.78125 3.84375,-0.59375 c 0,0.21875 -0.1875,0.25 -0.390625,0.25 V 0 C 3.75,-0.015625 4.390625,-0.03125 4.625,-0.03125 4.9375,-0.03125 5.25,-0.015625 5.578125,0 v -0.34375 c -0.40625,0 -0.65625,0 -1.0625,-0.578125 L 3.125,-2.875 c 0,-0.015625 -0.0625,-0.078125 -0.0625,-0.109375 0,-0.046875 0.78125,-0.703125 0.890625,-0.796875 0.6875,-0.546875 1.140625,-0.578125 1.375,-0.578125 v -0.34375 C 5,-4.671875 4.859375,-4.671875 4.5625,-4.671875 c -0.390625,0 -1.078125,-0.015625 -1.21875,-0.03125 v 0.34375 c 0.203125,0 0.3125,0.125 0.3125,0.265625 0,0.21875 -0.15625,0.359375 -0.25,0.421875 L 1.875,-2.328125 V -7.5625 l -1.5625,0.109375 v 0.34375 c 0.75,0 0.84375,0.078125 0.84375,0.609375 z m 0,0"
             id="path16" />
        </g>
      </g>
      <g
         fill="#000000"
         fill-opacity="1"
         id="g11"
         transform="matrix(0.352778,0,0,0.352778,-0.829866,-0.707496)">
        <g
           id="use10"
           transform="translate(21.081743,9.5679998)">
          <path
             d="m 1.21875,-2.75 c 0.0625,-1.625 0.984375,-1.890625 1.359375,-1.890625 1.125,0 1.234375,1.46875 1.234375,1.890625 z M 1.203125,-2.515625 H 4.25 c 0.25,0 0.28125,0 0.28125,-0.234375 0,-1.078125 -0.59375,-2.140625 -1.953125,-2.140625 -1.265625,0 -2.265625,1.125 -2.265625,2.484375 0,1.46875 1.140625,2.53125 2.390625,2.53125 1.328125,0 1.828125,-1.21875 1.828125,-1.421875 0,-0.109375 -0.09375,-0.125 -0.140625,-0.125 -0.109375,0 -0.125,0.0625 -0.140625,0.140625 -0.390625,1.125 -1.375,1.125 -1.484375,1.125 -0.546875,0 -0.984375,-0.328125 -1.234375,-0.734375 C 1.203125,-1.40625 1.203125,-2.125 1.203125,-2.515625 Z m 0,0"
             id="path17" />
        </g>
        <g
           id="use11"
           transform="translate(25.929747,9.5679998)">
          <path
             d="M 4.140625,-0.59375 V 0.125 L 5.75,0 v -0.34375 c -0.765625,0 -0.859375,-0.078125 -0.859375,-0.609375 V -7.5625 l -1.5625,0.109375 v 0.34375 c 0.765625,0 0.84375,0.078125 0.84375,0.609375 v 2.359375 c -0.3125,-0.390625 -0.78125,-0.6875 -1.375,-0.6875 -1.28125,0 -2.421875,1.078125 -2.421875,2.484375 0,1.390625 1.0625,2.46875 2.3125,2.46875 0.6875,0 1.1875,-0.375 1.453125,-0.71875 z m 0,-2.921875 v 2.234375 c 0,0.1875 0,0.21875 -0.109375,0.390625 C 3.703125,-0.359375 3.203125,-0.125 2.734375,-0.125 2.25,-0.125 1.859375,-0.40625 1.59375,-0.8125 1.3125,-1.265625 1.28125,-1.890625 1.28125,-2.328125 c 0,-0.40625 0.015625,-1.0625 0.328125,-1.546875 C 1.84375,-4.21875 2.25,-4.578125 2.84375,-4.578125 c 0.390625,0 0.84375,0.15625 1.1875,0.65625 0.109375,0.1875 0.109375,0.203125 0.109375,0.40625 z m 0,0"
             id="path18" />
        </g>
      </g>
      <g
         fill="#000000"
         fill-opacity="1"
         id="g13"
         transform="matrix(0.352778,0,0,0.352778,-0.829866,-0.707496)">
        <g
           id="use12"
           transform="translate(35.623573,9.5679998)">
          <path
             d="m 1.484375,-0.84375 c 0,0.390625 -0.015625,0.5 -0.859375,0.5 H 0.359375 V 0 H 6.65625 L 7.109375,-2.8125 H 6.84375 C 6.5625,-1.140625 6.3125,-0.34375 4.4375,-0.34375 H 2.984375 c -0.515625,0 -0.53125,-0.078125 -0.53125,-0.4375 V -3.6875 H 3.4375 c 1.0625,0 1.171875,0.34375 1.171875,1.28125 h 0.28125 v -2.890625 h -0.28125 c 0,0.9375 -0.109375,1.265625 -1.171875,1.265625 H 2.453125 v -2.609375 c 0,-0.359375 0.015625,-0.4375 0.53125,-0.4375 h 1.40625 c 1.671875,0 1.96875,0.59375 2.140625,2.109375 H 6.8125 L 6.5,-7.421875 H 0.359375 v 0.34375 H 0.625 c 0.84375,0 0.859375,0.125 0.859375,0.515625 z m 0,0"
             id="path19" />
        </g>
        <g
           id="use13"
           transform="translate(43.048306,9.5679998)">
          <path
             d="m 4.53125,-3.671875 c 0.28125,-0.6875 0.828125,-0.6875 1.015625,-0.6875 v -0.34375 c -0.25,0.03125 -0.578125,0.03125 -0.828125,0.03125 -0.1875,0 -0.703125,-0.015625 -0.9375,-0.03125 v 0.34375 c 0.328125,0 0.5,0.1875 0.5,0.46875 0,0.109375 0,0.125 -0.0625,0.265625 L 3.125,-0.953125 1.90625,-3.875 c -0.046875,-0.109375 -0.0625,-0.15625 -0.0625,-0.203125 0,-0.28125 0.40625,-0.28125 0.609375,-0.28125 v -0.34375 c -0.28125,0.015625 -1,0.03125 -1.1875,0.03125 -0.296875,0 -0.734375,0 -1.0625,-0.03125 v 0.34375 c 0.53125,0 0.734375,0 0.890625,0.375 L 2.71875,0 C 2.671875,0.140625 2.515625,0.5 2.453125,0.640625 2.21875,1.25 1.90625,2 1.203125,2 1.15625,2 0.90625,2 0.703125,1.796875 1.03125,1.75 1.125,1.515625 1.125,1.34375 1.125,1.0625 0.921875,0.890625 0.671875,0.890625 c -0.21875,0 -0.46875,0.140625 -0.46875,0.46875 0,0.484375 0.46875,0.875 1,0.875 0.6875,0 1.140625,-0.625 1.40625,-1.234375 z m 0,0"
             id="path20" />
        </g>
      </g>
      <g
         fill="#000000"
         fill-opacity="1"
         id="g14"
         transform="matrix(0.352778,0,0,0.352778,-0.829866,-0.707496)">
        <g
           id="use14"
           transform="translate(48.511585,9.5679998)">
          <path
             d="m 1.21875,-2.75 c 0.0625,-1.625 0.984375,-1.890625 1.359375,-1.890625 1.125,0 1.234375,1.46875 1.234375,1.890625 z M 1.203125,-2.515625 H 4.25 c 0.25,0 0.28125,0 0.28125,-0.234375 0,-1.078125 -0.59375,-2.140625 -1.953125,-2.140625 -1.265625,0 -2.265625,1.125 -2.265625,2.484375 0,1.46875 1.140625,2.53125 2.390625,2.53125 1.328125,0 1.828125,-1.21875 1.828125,-1.421875 0,-0.109375 -0.09375,-0.125 -0.140625,-0.125 -0.109375,0 -0.125,0.0625 -0.140625,0.140625 -0.390625,1.125 -1.375,1.125 -1.484375,1.125 -0.546875,0 -0.984375,-0.328125 -1.234375,-0.734375 C 1.203125,-1.40625 1.203125,-2.125 1.203125,-2.515625 Z m 0,0"
             id="path21" />
        </g>
      </g>
    </g>
    <g
       inkscape:label=""
       transform="translate(101.43155,8.376696)"
       id="g23">
      <g
         fill="#000000"
         fill-opacity="1"
         id="g21"
         transform="matrix(0.352778,0,0,0.352778,-0.846402,-0.663399)">
        <g
           id="g15"
           transform="translate(1.993,9.5679998)">
          <path
             d="m 2.625,-7.203125 c -0.09375,-0.25 -0.125,-0.25 -0.375,-0.25 H 0.40625 v 0.34375 h 0.265625 c 0.828125,0 0.859375,0.125 0.859375,0.515625 v 5.453125 c 0,0.296875 0,0.796875 -1.125,0.796875 V 0 c 0.375,-0.015625 0.90625,-0.03125 1.265625,-0.03125 0.375,0 0.90625,0.015625 1.28125,0.03125 v -0.34375 c -1.125,0 -1.125,-0.5 -1.125,-0.796875 V -7.03125 H 1.84375 l 2.625,6.796875 C 4.53125,-0.09375 4.578125,0 4.6875,0 4.8125,0 4.84375,-0.09375 4.890625,-0.203125 L 7.5625,-7.109375 h 0.015625 v 6.265625 c 0,0.390625 -0.015625,0.5 -0.859375,0.5 H 6.453125 V 0 c 0.40625,-0.03125 1.15625,-0.03125 1.578125,-0.03125 0.421875,0 1.15625,0 1.5625,0.03125 V -0.34375 H 9.328125 c -0.84375,0 -0.859375,-0.109375 -0.859375,-0.5 v -5.75 c 0,-0.390625 0.015625,-0.515625 0.859375,-0.515625 H 9.59375 v -0.34375 H 7.75 c -0.296875,0 -0.296875,0.015625 -0.359375,0.21875 L 5,-1.09375 Z m 0,0"
             id="path22" />
        </g>
        <g
           id="g16"
           transform="translate(11.993372,9.5679998)">
          <path
             d="m 5.140625,-2.328125 c 0,-1.40625 -1.09375,-2.5625 -2.421875,-2.5625 -1.359375,0 -2.40625,1.1875 -2.40625,2.5625 0,1.40625 1.125,2.453125 2.40625,2.453125 1.3125,0 2.421875,-1.078125 2.421875,-2.453125 z M 2.71875,-0.15625 c -0.46875,0 -0.9375,-0.21875 -1.234375,-0.734375 -0.28125,-0.46875 -0.28125,-1.140625 -0.28125,-1.53125 0,-0.421875 0,-1.015625 0.265625,-1.5 0.296875,-0.5 0.8125,-0.71875 1.25,-0.71875 0.484375,0 0.953125,0.234375 1.234375,0.703125 0.28125,0.46875 0.28125,1.109375 0.28125,1.515625 0,0.390625 0,0.984375 -0.25,1.46875 C 3.75,-0.46875 3.265625,-0.15625 2.71875,-0.15625 Z m 0,0"
             id="path23" />
        </g>
        <g
           id="g17"
           transform="translate(17.447922,9.5679998)">
          <path
             d="m 1.9375,-7.5625 -1.578125,0.109375 v 0.34375 c 0.765625,0 0.84375,0.078125 0.84375,0.609375 v 5.671875 c 0,0.484375 -0.109375,0.484375 -0.84375,0.484375 V 0 C 0.71875,-0.015625 1.296875,-0.03125 1.578125,-0.03125 1.84375,-0.03125 2.375,-0.015625 2.78125,0 v -0.34375 c -0.734375,0 -0.84375,0 -0.84375,-0.484375 z m 0,0"
             id="path24" />
        </g>
        <g
           id="g18"
           transform="translate(20.47847,9.5679998)">
          <path
             d="m 1.21875,-2.75 c 0.0625,-1.625 0.984375,-1.890625 1.359375,-1.890625 1.125,0 1.234375,1.46875 1.234375,1.890625 z M 1.203125,-2.515625 H 4.25 c 0.25,0 0.28125,0 0.28125,-0.234375 0,-1.078125 -0.59375,-2.140625 -1.953125,-2.140625 -1.265625,0 -2.265625,1.125 -2.265625,2.484375 0,1.46875 1.140625,2.53125 2.390625,2.53125 1.328125,0 1.828125,-1.21875 1.828125,-1.421875 0,-0.109375 -0.09375,-0.125 -0.140625,-0.125 -0.109375,0 -0.125,0.0625 -0.140625,0.140625 -0.390625,1.125 -1.375,1.125 -1.484375,1.125 -0.546875,0 -0.984375,-0.328125 -1.234375,-0.734375 C 1.203125,-1.40625 1.203125,-2.125 1.203125,-2.515625 Z m 0,0"
             id="path25" />
        </g>
        <g
           id="g19"
           transform="translate(25.326473,9.5679998)">
          <path
             d="m 1.28125,-2.375 c 0,-1.78125 0.890625,-2.234375 1.46875,-2.234375 0.09375,0 0.78125,0 1.171875,0.40625 -0.453125,0.03125 -0.515625,0.359375 -0.515625,0.5 0,0.28125 0.1875,0.5 0.5,0.5 0.28125,0 0.5,-0.1875 0.5,-0.515625 0,-0.734375 -0.828125,-1.171875 -1.671875,-1.171875 -1.359375,0 -2.359375,1.1875 -2.359375,2.53125 0,1.40625 1.078125,2.484375 2.34375,2.484375 1.453125,0 1.8125,-1.3125 1.8125,-1.421875 0,-0.109375 -0.109375,-0.109375 -0.140625,-0.109375 -0.109375,0 -0.125,0.046875 -0.140625,0.109375 C 3.921875,-0.28125 3.21875,-0.15625 2.8125,-0.15625 2.234375,-0.15625 1.28125,-0.625 1.28125,-2.375 Z m 0,0"
             id="path26" />
        </g>
        <g
           id="g20"
           transform="translate(30.174479,9.5679998)">
          <path
             d="M 4.265625,-0.859375 V 0.125 L 5.828125,0 v -0.34375 c -0.75,0 -0.84375,-0.078125 -0.84375,-0.609375 v -3.875 l -1.609375,0.125 v 0.34375 c 0.765625,0 0.859375,0.078125 0.859375,0.609375 v 1.9375 c 0,0.953125 -0.53125,1.6875 -1.328125,1.6875 -0.90625,0 -0.953125,-0.5 -0.953125,-1.078125 v -3.625 l -1.609375,0.125 v 0.34375 c 0.859375,0 0.859375,0.03125 0.859375,1 v 1.640625 c 0,0.84375 0,1.84375 1.65625,1.84375 0.609375,0 1.09375,-0.3125 1.40625,-0.984375 z m 0,0"
             id="path27" />
        </g>
        <g
           id="use15"
           transform="translate(36.235573,9.5679998)">
          <path
             d="m 1.9375,-7.5625 -1.578125,0.109375 v 0.34375 c 0.765625,0 0.84375,0.078125 0.84375,0.609375 v 5.671875 c 0,0.484375 -0.109375,0.484375 -0.84375,0.484375 V 0 C 0.71875,-0.015625 1.296875,-0.03125 1.578125,-0.03125 1.84375,-0.03125 2.375,-0.015625 2.78125,0 v -0.34375 c -0.734375,0 -0.84375,0 -0.84375,-0.484375 z m 0,0"
             id="path28" />
        </g>
        <g
           id="use16"
           transform="translate(39.266121,9.5679998)">
          <path
             d="M 3.625,-0.828125 C 3.671875,-0.390625 3.96875,0.0625 4.484375,0.0625 4.71875,0.0625 5.375,-0.09375 5.375,-0.96875 V -1.578125 H 5.109375 v 0.609375 c 0,0.625 -0.28125,0.703125 -0.390625,0.703125 -0.359375,0 -0.40625,-0.5 -0.40625,-0.546875 V -3 c 0,-0.453125 0,-0.875 -0.390625,-1.28125 -0.4375,-0.4375 -0.984375,-0.609375 -1.5,-0.609375 -0.890625,0 -1.640625,0.515625 -1.640625,1.234375 0,0.328125 0.21875,0.515625 0.5,0.515625 0.296875,0 0.5,-0.21875 0.5,-0.5 0,-0.140625 -0.0625,-0.5 -0.5625,-0.5 0.296875,-0.390625 0.828125,-0.5 1.1875,-0.5 0.53125,0 1.15625,0.421875 1.15625,1.390625 v 0.40625 C 3,-2.8125 2.234375,-2.78125 1.546875,-2.453125 c -0.8125,0.375 -1.09375,0.9375 -1.09375,1.421875 0,0.875 1.0625,1.15625 1.75,1.15625 0.71875,0 1.21875,-0.4375 1.421875,-0.953125 z M 3.5625,-2.625 v 1.09375 c 0,1.046875 -0.796875,1.40625 -1.28125,1.40625 -0.53125,0 -0.984375,-0.375 -0.984375,-0.921875 0,-0.59375 0.453125,-1.5 2.265625,-1.578125 z m 0,0"
             id="path29" />
        </g>
        <g
           id="use17"
           transform="translate(44.720673,9.5679998)">
          <path
             d="m 1.828125,-3.625 v -1.203125 l -1.515625,0.125 v 0.34375 c 0.75,0 0.84375,0.078125 0.84375,0.609375 v 2.921875 c 0,0.484375 -0.125,0.484375 -0.84375,0.484375 V 0 c 0.421875,-0.015625 0.9375,-0.03125 1.234375,-0.03125 0.4375,0 0.953125,0 1.390625,0.03125 V -0.34375 H 2.703125 c -0.8125,0 -0.828125,-0.109375 -0.828125,-0.5 v -1.6875 c 0,-1.078125 0.453125,-2.046875 1.28125,-2.046875 0.078125,0 0.109375,0 0.125,0.015625 -0.03125,0 -0.25,0.140625 -0.25,0.421875 0,0.296875 0.234375,0.46875 0.46875,0.46875 0.203125,0 0.46875,-0.140625 0.46875,-0.484375 0,-0.34375 -0.34375,-0.671875 -0.8125,-0.671875 -0.796875,0 -1.1875,0.734375 -1.328125,1.203125 z m 0,0"
             id="path30" />
        </g>
      </g>
      <g
         fill="#000000"
         fill-opacity="1"
         id="g22"
         transform="matrix(0.352778,0,0,0.352778,-0.846402,-0.663399)">
        <g
           id="use18"
           transform="translate(52.626495,9.5679998)">
          <path
             d="M 3.8125,-4.234375 2.40625,-4.5625 C 1.734375,-4.734375 1.3125,-5.328125 1.3125,-5.953125 c 0,-0.765625 0.578125,-1.4375 1.4375,-1.4375 1.8125,0 2.0625,1.796875 2.125,2.28125 0.015625,0.078125 0.015625,0.140625 0.125,0.140625 0.140625,0 0.140625,-0.0625 0.140625,-0.265625 v -2.1875 c 0,-0.1875 0,-0.265625 -0.109375,-0.265625 -0.078125,0 -0.09375,0.015625 -0.171875,0.140625 l -0.375,0.625 c -0.328125,-0.3125 -0.78125,-0.765625 -1.75,-0.765625 -1.203125,0 -2.125,0.953125 -2.125,2.109375 0,0.90625 0.578125,1.703125 1.4375,2 0.109375,0.046875 0.671875,0.171875 1.4375,0.359375 0.296875,0.078125 0.609375,0.15625 0.921875,0.5625 0.234375,0.28125 0.34375,0.640625 0.34375,1 0,0.765625 -0.546875,1.5625 -1.46875,1.5625 -0.3125,0 -1.140625,-0.0625 -1.71875,-0.59375 C 0.921875,-1.28125 0.890625,-1.96875 0.890625,-2.359375 0.875,-2.46875 0.78125,-2.46875 0.75,-2.46875 c -0.140625,0 -0.140625,0.0625 -0.140625,0.265625 v 2.1875 c 0,0.171875 0,0.25 0.125,0.25 0.078125,0 0.078125,-0.015625 0.15625,-0.140625 0,0 0.03125,-0.046875 0.390625,-0.625 0.34375,0.375 1.046875,0.765625 2.015625,0.765625 1.265625,0 2.140625,-1.0625 2.140625,-2.265625 0,-1.09375 -0.71875,-1.984375 -1.625,-2.203125 z m 0,0"
             id="path31" />
        </g>
        <g
           id="use19"
           transform="translate(58.687592,9.5679998)">
          <path
             d="m 1.28125,-2.375 c 0,-1.78125 0.890625,-2.234375 1.46875,-2.234375 0.09375,0 0.78125,0 1.171875,0.40625 -0.453125,0.03125 -0.515625,0.359375 -0.515625,0.5 0,0.28125 0.1875,0.5 0.5,0.5 0.28125,0 0.5,-0.1875 0.5,-0.515625 0,-0.734375 -0.828125,-1.171875 -1.671875,-1.171875 -1.359375,0 -2.359375,1.1875 -2.359375,2.53125 0,1.40625 1.078125,2.484375 2.34375,2.484375 1.453125,0 1.8125,-1.3125 1.8125,-1.421875 0,-0.109375 -0.109375,-0.109375 -0.140625,-0.109375 -0.109375,0 -0.125,0.046875 -0.140625,0.109375 C 3.921875,-0.28125 3.21875,-0.15625 2.8125,-0.15625 2.234375,-0.15625 1.28125,-0.625 1.28125,-2.375 Z m 0,0"
             id="path32" />
        </g>
        <g
           id="use20"
           transform="translate(63.535599,9.5679998)">
          <path
             d="M 3.625,-0.828125 C 3.671875,-0.390625 3.96875,0.0625 4.484375,0.0625 4.71875,0.0625 5.375,-0.09375 5.375,-0.96875 V -1.578125 H 5.109375 v 0.609375 c 0,0.625 -0.28125,0.703125 -0.390625,0.703125 -0.359375,0 -0.40625,-0.5 -0.40625,-0.546875 V -3 c 0,-0.453125 0,-0.875 -0.390625,-1.28125 -0.4375,-0.4375 -0.984375,-0.609375 -1.5,-0.609375 -0.890625,0 -1.640625,0.515625 -1.640625,1.234375 0,0.328125 0.21875,0.515625 0.5,0.515625 0.296875,0 0.5,-0.21875 0.5,-0.5 0,-0.140625 -0.0625,-0.5 -0.5625,-0.5 0.296875,-0.390625 0.828125,-0.5 1.1875,-0.5 0.53125,0 1.15625,0.421875 1.15625,1.390625 v 0.40625 C 3,-2.8125 2.234375,-2.78125 1.546875,-2.453125 c -0.8125,0.375 -1.09375,0.9375 -1.09375,1.421875 0,0.875 1.0625,1.15625 1.75,1.15625 0.71875,0 1.21875,-0.4375 1.421875,-0.953125 z M 3.5625,-2.625 v 1.09375 c 0,1.046875 -0.796875,1.40625 -1.28125,1.40625 -0.53125,0 -0.984375,-0.375 -0.984375,-0.921875 0,-0.59375 0.453125,-1.5 2.265625,-1.578125 z m 0,0"
             id="path33" />
        </g>
        <g
           id="use21"
           transform="translate(68.99015,9.5679998)">
          <path
             d="m 1.9375,-7.5625 -1.578125,0.109375 v 0.34375 c 0.765625,0 0.84375,0.078125 0.84375,0.609375 v 5.671875 c 0,0.484375 -0.109375,0.484375 -0.84375,0.484375 V 0 C 0.71875,-0.015625 1.296875,-0.03125 1.578125,-0.03125 1.84375,-0.03125 2.375,-0.015625 2.78125,0 v -0.34375 c -0.734375,0 -0.84375,0 -0.84375,-0.484375 z m 0,0"
             id="path34" />
        </g>
        <g
           id="use22"
           transform="translate(72.020699,9.5679998)">
          <path
             d="m 1.21875,-2.75 c 0.0625,-1.625 0.984375,-1.890625 1.359375,-1.890625 1.125,0 1.234375,1.46875 1.234375,1.890625 z M 1.203125,-2.515625 H 4.25 c 0.25,0 0.28125,0 0.28125,-0.234375 0,-1.078125 -0.59375,-2.140625 -1.953125,-2.140625 -1.265625,0 -2.265625,1.125 -2.265625,2.484375 0,1.46875 1.140625,2.53125 2.390625,2.53125 1.328125,0 1.828125,-1.21875 1.828125,-1.421875 0,-0.109375 -0.09375,-0.125 -0.140625,-0.125 -0.109375,0 -0.125,0.0625 -0.140625,0.140625 -0.390625,1.125 -1.375,1.125 -1.484375,1.125 -0.546875,0 -0.984375,-0.328125 -1.234375,-0.734375 C 1.203125,-1.40625 1.203125,-2.125 1.203125,-2.515625 Z m 0,0"
             id="path35" />
        </g>
      </g>
    </g>
  </g>
</svg>
