<?xml version="1.0" encoding="UTF-8" standalone="no"?>
<svg
   version="1.1"
   width="120mm"
   height="60mm"
   id="svg197"
   sodipodi:docname="2D_bounded.svg"
   inkscape:version="1.3.2 (091e20ef0f, 2023-11-25, custom)"
   xmlns:inkscape="http://www.inkscape.org/namespaces/inkscape"
   xmlns:sodipodi="http://sodipodi.sourceforge.net/DTD/sodipodi-0.dtd"
   xmlns="http://www.w3.org/2000/svg"
   xmlns:svg="http://www.w3.org/2000/svg">
  <sodipodi:namedview
     id="namedview197"
     pagecolor="#ffffff"
     bordercolor="#000000"
     borderopacity="0.25"
     inkscape:showpageshadow="2"
     inkscape:pageopacity="0.0"
     inkscape:pagecheckerboard="0"
     inkscape:deskcolor="#d1d1d1"
     inkscape:zoom="1.679289"
     inkscape:cx="225.09526"
     inkscape:cy="155.42292"
     inkscape:window-width="1920"
     inkscape:window-height="1056"
     inkscape:window-x="0"
     inkscape:window-y="0"
     inkscape:window-maximized="1"
     inkscape:current-layer="svg197"
     inkscape:document-units="mm" />
  <defs
     id="defs1">
    <clipPath
       id="KBqOCxHNxVdz">
      <path
         fill="none"
         stroke="none"
         d="M 0,0 H 2488 V 1280 H 0 Z"
         id="path1" />
    </clipPath>
  </defs>
  <rect
     style="display:inline;fill:#ffffff;fill-opacity:1;stroke:#ffffff;stroke-width:0;paint-order:markers stroke fill"
     id="rect1"
     width="461.10239"
     height="234.3307"
     x="-3.7795277"
     y="-3.7795277"
     inkscape:export-filename="2D_unbounded.pdf"
     inkscape:export-xdpi="96"
     inkscape:export-ydpi="96" />
  <path
     fill="none"
     stroke="#252525"
     paint-order="fill stroke markers"
     d="M 58.298283,18.897638 V 207.87401"
     stroke-opacity="1"
     stroke-miterlimit="10"
     id="path6"
     style="display:inline;stroke:#333a41;stroke-width:0.755905;stroke-dasharray:none;stroke-opacity:1"
     inkscape:export-filename="2D_unbounded.pdf"
     inkscape:export-xdpi="96"
     inkscape:export-ydpi="96" />
  <path
     fill="none"
     stroke="#252525"
     paint-order="fill stroke markers"
     d="m 0.5,617.5 h 2486"
     stroke-opacity="1"
     stroke-miterlimit="10"
     id="path9"
     style="display:inline;stroke:#333a41;stroke-width:4.20582;stroke-dasharray:none;stroke-opacity:1"
     transform="matrix(0.18232897,0,0,0.17716535,0.40883552,0)" />
  <path
     fill="none"
     stroke="#000000"
     paint-order="fill stroke markers"
     d="M 387.86549,207.49635 V 19.134101"
     stroke-opacity="0.698039"
     stroke-linecap="round"
     stroke-linejoin="round"
     stroke-miterlimit="10"
     stroke-width="2.5"
     id="path169"
     style="display:inline;stroke:#333a41;stroke-width:0.755905;stroke-dasharray:2.26772, 2.26772;stroke-dashoffset:0;stroke-opacity:1" />
  <path
     fill="none"
     stroke="#993300"
     paint-order="fill stroke markers"
     d="m 290.34766,-8.6941497 1.21484,8.06003822 1.21484,7.99843408 1.21485,7.9241134 1.21484,7.863686 1.21484,7.778308 1.21485,7.731284 1.21484,7.659305 1.21485,7.594686 1.21484,7.536121 1.21484,7.454317 1.21485,7.409183 1.21484,7.339493 1.21484,7.277614 1.21485,7.220928 1.21484,7.142719 1.21485,7.09949 1.21484,7.03254 1.21484,6.97254 1.21485,6.90722 1.21484,6.85412 1.21484,6.80097 1.21485,6.73677 1.21484,6.67736 1.21485,6.62447 1.21484,6.56318 1.21484,6.51193 1.21485,6.4558 1.21484,6.39476 1.21484,6.34292 1.21485,6.2853 1.21484,6.23642 1.21485,6.18352 1.21484,6.12354 1.21484,6.07361 1.21485,6.02189 1.21484,5.96878 1.21484,5.92047 1.21485,5.86372 1.21484,5.81841 1.21485,5.76244 1.21484,5.71481 1.21484,5.66271 1.21485,5.61808 1.21484,5.565 1.21484,5.52071 1.21485,5.47261 1.21484,5.42026 1.21485,5.37561 1.21484,5.32514 1.21484,5.28373 1.21485,5.23782 1.21484,5.18678 1.21484,5.14388 1.21485,5.09851 1.21484,5.05397 2.42969,9.97371 2.42969,9.79924 2.42968,9.62442 2.42969,9.4568 2.42969,9.29397 2.42969,9.12276 2.42968,8.96349 2.42969,8.80366 2.42969,8.64662 2.42969,8.49485 2.42968,8.34009 2.42969,8.18925 2.42969,8.04392 2.42969,7.89853 2.42968,7.75573 2.42969,7.61356 2.42969,7.48073 2.42969,7.33955 2.42968,7.20728 2.42969,7.0752 2.42969,6.94554 2.42969,6.81606 2.42968,6.69218 2.42969,6.57119 2.42969,6.44522 2.42969,6.32643 2.42968,6.20853 2.42969,6.09219 2.42969,5.97946 2.42969,5.86536 2.42968,5.75329 2.42969,5.64551 2.42969,5.5382 2.42969,5.43271 2.42968,5.32744 2.42969,5.22878 2.42969,5.12445 4.85937,9.95533 4.85938,9.56988 4.85937,9.20168 4.85938,8.83695 4.85937,8.4882 4.85938,8.15303 4.85937,7.82192 4.85938,7.50461 4.85937,7.20036 4.85938,6.89917 4.85937,6.61162 4.85938,6.33325 4.85937,6.06075 4.85938,5.79915 4.85937,5.54467 4.85938,5.30039 4.85937,5.06121 4.85938,4.82966 4.85937,4.60877 4.85938,4.38997 4.85937,4.1803 4.85938,3.97957 4.85937,3.7809 4.85938,3.59066 4.85937,3.40819 4.85938,3.22787 4.85937,3.05503 4.85938,2.88948 4.85937,2.72556 4.85938,2.56935 4.85937,2.41798 4.85938,2.26973 4.85937,2.12792 4.85938,1.98942 4.85937,1.85706 4.85938,1.72721 4.85937,1.6017 4.85938,1.48156 4.85937,1.36383 4.85938,1.24985 4.85937,1.14137 4.85938,1.03372 4.85937,0.9308 4.85938,0.83244 4.85937,0.73475 4.85938,0.64163 4.85937,0.55232 4.85938,0.46387 4.85937,0.37967 4.85938,0.29812 4.85937,0.21839 4.85938,0.1421 4.85937,0.0682 4.85938,-0.004 4.85937,-0.0731 4.85938,-0.14052 4.85937,-0.20487 4.85938,-0.26794 4.85937,-0.32891 4.85938,-0.3869 4.85937,-0.44452 4.85938,-0.49944 4.85937,-0.55178 4.85938,-0.60393 4.85937,-0.65361 4.85938,-0.70097 4.85937,-0.74801 4.85938,-0.79274 4.85937,-0.8363 4.85938,-0.87782 4.85937,-0.9186 4.85938,-0.95758 4.85938,-0.99582 4.85937,-1.03217 4.85937,-1.0677 4.85938,-1.10152 4.85937,-1.13466 4.85938,-1.16637 4.85937,-1.1973 4.85938,-1.22717 4.85938,-1.25584 4.85937,-1.28337 4.85937,-1.31003 4.85938,-1.33583 4.85937,-1.36089 4.85938,-1.38508 4.85938,-1.40826 4.85937,-1.43051 4.85938,-1.45201 4.85937,-1.47295 4.85937,-1.49294 4.85938,-1.51253 4.85937,-1.5311 4.85938,-1.54918 4.85937,-1.56642 4.85938,-1.58307 4.85938,-1.59915 4.85937,-1.61477 4.85937,-1.62979 4.85938,-1.64417 4.85937,-1.65793 4.85938,-1.67117 4.85937,-1.68407 4.85938,-1.69632 4.85937,-1.70833 4.85938,-1.71964 4.85937,-1.73068 4.85938,-1.74106 4.85937,-1.75124 4.85938,-1.76088 4.85937,-1.77027 4.85938,-1.77926 4.85937,-1.78783 4.85933,-1.796 4.8594,-1.80382 4.8594,-1.81135 4.8594,-1.81865 4.8593,-1.82562 4.8594,-1.83222 4.8594,-1.8385 4.8594,-1.84451 4.8594,-1.8503 4.8593,-1.85577 4.8594,-1.86111 4.8594,-1.86607 4.8594,-1.87087 4.8593,-1.87533 4.8594,-1.87967 4.8594,-1.88373 4.8594,-1.88763 4.8593,-1.89136 4.8594,-1.89483 4.8594,-1.8981 4.8594,-1.90116 4.8593,-1.90409 4.8594,-1.90688 4.8594,-1.9095 4.8594,-1.91193 4.8593,-1.91417 4.8594,-1.91626 4.8594,-1.91827 4.8594,-1.92007 4.8593,-1.92182 4.8594,-1.92336 4.8594,-1.92482 4.8594,-1.92608 4.8593,-1.92731 4.8594,-1.92835 4.8594,-1.92937 4.8594,-1.9302 4.8593,-1.93098 4.8594,-1.9316 4.8594,-1.93214 4.8594,-1.93261 4.8593,-1.93298 4.8594,-1.93328 4.8594,-1.93348 4.8594,-1.93357 4.8593,-1.93358 4.8594,-1.93355 4.8594,-1.93342 4.8594,-1.93325 4.8593,-1.93298 4.8594,-1.93266 4.8594,-1.93224 4.8594,-1.9318 4.8593,-1.93126 4.8594,-1.93071 4.8594,-1.93007 4.8594,-1.92938 4.8593,-1.92864 4.8594,-1.92783 4.8594,-1.92699 4.8594,-1.92611 4.8593,-1.92519 4.8594,-1.92421 4.8594,-1.92317 4.8594,-1.92211 4.8593,-1.921 4.8594,-1.91986 4.8594,-1.9187 4.8594,-1.91747 4.8593,-1.91623 4.8594,-1.91493 4.8594,-1.91363 4.8594,-1.91227 4.8593,-1.91092 4.8594,-1.9095 4.8594,-1.90808 4.8594,-1.90661 4.8593,-1.90512 4.8594,-1.90361 4.8594,-1.90209 4.8594,-1.90053 4.8593,-1.89896 4.8594,-1.89736 4.8594,-1.89573 4.8594,-1.89408 4.8593,-1.89244 4.8594,-1.89077 4.8594,-1.88907 4.8594,-1.88736 4.8593,-1.88562 4.8594,-1.88389 4.8594,-1.88213 4.8594,-1.88036 4.8593,-1.87858 4.8594,-1.87678 4.8594,-1.87496 4.8594,-1.87314 4.8593,-1.87131 4.8594,-1.86946 4.8594,-1.86761 4.8594,-1.86575 4.8593,-1.86386 4.8594,-1.86198 4.8594,-1.86008 4.8594,-1.85819 4.8593,-1.85627 4.8594,-1.85436 4.8594,-1.85243 4.8594,-1.8505 4.8593,-1.84856 4.8594,-1.84661 4.8594,-1.84466 4.8594,-1.84271 4.8593,-1.84075 4.8594,-1.83877 4.8594,-1.8368 4.8594,-1.83483 4.8593,-1.83285 4.8594,-1.83086 4.8594,-1.82888 4.8594,-1.82688 4.8593,-1.82489 4.8594,-1.82288 4.8594,-1.82089 4.8594,-1.81889 4.8593,-1.81687 4.8594,-1.81487 4.8594,-1.81286 4.8594,-1.81085 4.8593,-1.80883 4.8594,-1.80682 4.8594,-1.8048 4.8594,-1.80278 4.8593,-1.80076 4.8594,-1.79874 4.8594,-1.79672 4.8594,-1.7947 4.8593,-1.79268 4.8594,-1.79065 4.8594,-1.78863 4.8594,-1.78661 4.8593,-1.78459 4.8594,-1.78256 4.8594,-1.78054 4.8594,-1.77852 4.8593,-1.7765 4.8594,-1.77447 4.8594,-1.77246 4.8594,-1.77043 4.8593,-1.76842 4.8594,-1.7664 4.8594,-1.76438 4.8594,-1.76237 4.8593,-1.76035 4.8594,-1.75833 4.8594,-1.75632 4.8594,-1.75432 4.8593,-1.7523 4.8594,-1.75029 4.8594,-1.74829 4.8594,-1.74628 4.8593,-1.74428 4.8594,-1.74228 4.8594,-1.74027 4.8594,-1.73828 4.8593,-1.73628 4.8594,-1.73429 4.8594,-1.73229 4.8594,-1.73031 4.8593,-1.72832 4.8594,-1.72632 4.8594,-1.72435 4.8594,-1.72236 4.8593,-1.72038 4.8594,-1.71841 4.8594,-1.71643 4.8594,-1.71446 4.8593,-1.71249 4.8594,-1.71051 4.8594,-1.70856 4.8594,-1.70658 4.8593,-1.70463 4.8594,-1.70267 4.8594,-1.70072 4.8593,-1.69876 4.8594,-1.69681 4.8594,-1.69486 4.8594,-1.69291 4.8594,-1.69098 4.8593,-1.68903 4.8594,-1.6871 4.8594,-1.68516 4.8594,-1.68323 4.8593,-1.6813 4.8594,-1.67937 4.8594,-1.67745 4.8594,-1.67553 4.8593,-1.67361 4.8594,-1.67169 4.8594,-1.66978 4.8593,-1.66787 4.8594,-1.66597 4.8594,-1.66406 4.8594,-1.66216 4.8594,-1.66027 4.8593,-1.65836 4.8594,-1.65648 4.8594,-1.65458 4.8594,-1.6527 4.8593,-1.65082 4.8594,-1.64894 4.8594,-1.64706 4.8594,-1.64518 4.8593,-1.64331 4.8594,-1.64145 4.8594,-1.63958 4.8594,-1.63771 4.8593,-1.63586 4.8594,-1.634 4.8594,-1.63215 4.8594,-1.6303 4.8593,-1.62845 4.8594,-1.62661 4.8594,-1.62476 4.8594,-1.62293 4.8593,-1.62109 4.8594,-1.61926 4.8594,-1.61743 4.8594,-1.61561 4.8593,-1.61378 4.8594,-1.61197 4.8594,-1.61015 4.8594,-1.60833 4.8593,-1.60653 4.8594,-1.60472 4.8594,-1.60291 4.8594,-1.60112 4.8593,-1.59931 4.8594,-1.59753 4.8594,-1.59573 4.8594,-1.59394 4.8593,-1.59216 4.8594,-1.59037 4.8594,-1.5886 4.8594,-1.58682 4.8593,-1.58505 4.8594,-1.58328 4.8594,-1.58151 4.8594,-1.57975 4.8593,-1.578 4.8594,-1.57623 4.8594,-1.57448 4.8594,-1.57273 4.8593,-1.57099 4.8594,-1.56924 4.8594,-1.56749 4.8594,-1.56577 4.8593,-1.56402 4.8594,-1.5623 4.8594,-1.56057 4.8594,-1.55884 4.8593,-1.55712 4.8594,-1.5554 4.8594,-1.55369 4.8594,-1.55197 4.8593,-1.55027 4.8594,-1.54856 4.8594,-1.54686 4.8594,-1.54516 4.8593,-1.54346 4.8594,-1.54177 4.8594,-1.54008 4.8594,-1.53839 4.8593,-1.53671 4.8594,-1.53503 4.8594,-1.53335 4.8594,-1.53167 4.8593,-1.53001 4.8594,-1.52834 4.8594,-1.52668 4.8594,-1.52501 4.8593,-1.52336 4.8594,-1.5217 4.8594,-1.52005 4.8594,-1.5184 4.8593,-1.51676 4.8594,-1.51512 4.8594,-1.51347 4.8594,-1.51184 4.8593,-1.51021 4.8594,-1.50858 4.8594,-1.50696 4.8594,-1.50533 4.8593,-1.50371 4.8594,-1.5021 4.8594,-1.50048 4.8594,-1.49888 4.8593,-1.49726 4.8594,-1.49567 4.8594,-1.49406 4.8594,-1.49247 4.8593,-1.49088 4.8594,-1.48928 4.8594,-1.4877 4.8594,-1.48611 4.8593,-1.48453 4.8594,-1.48296"
     stroke-opacity="0.698039"
     stroke-linecap="round"
     stroke-linejoin="round"
     stroke-miterlimit="10"
     stroke-width="2.5"
     id="path190"
     style="display:none;stroke:#ef9067;stroke-width:8.41163;stroke-linecap:square;stroke-linejoin:miter;stroke-dasharray:none;stroke-opacity:1"
     transform="matrix(0.18232897,0,0,0.17716535,0.40883552,0)" />
  <path
     fill="none"
     stroke="#006400"
     paint-order="fill stroke markers"
     d="m 289.13281,-4.3486774 1.21485,7.6642018 1.21484,7.6031896 1.21484,7.542112 1.21485,7.469628 1.21484,7.409727 1.21484,7.32531 1.21485,7.279683 1.21484,7.20779 1.21485,7.144565 1.21484,7.086522 1.21484,7.00611 1.21485,6.961494 1.21484,6.894072 1.21484,6.83227 1.21485,6.776103 1.21484,6.69927 1.21485,6.65656 1.21484,6.59144 1.21484,6.53195 1.21485,6.46758 1.21484,6.41586 1.21484,6.36278 1.21485,6.30041 1.21484,6.24105 1.21485,6.18955 1.21484,6.12876 1.21484,6.07933 1.21485,6.0237 1.21484,5.96361 1.21484,5.91269 1.21485,5.85601 1.21484,5.80807 1.21485,5.75523 1.21484,5.69793 1.21484,5.64851 1.21485,5.59639 1.21484,5.54553 1.21484,5.49728 1.21485,5.44278 1.21484,5.39663 1.21485,5.34246 1.21484,5.29577 1.21484,5.24503 1.21485,5.20089 1.21484,5.14806 1.21484,5.1058 1.21485,5.05818 1.21484,5.00675 2.42969,9.87628 2.42969,9.70096 2.42968,9.51373 2.42969,9.33877 2.42969,9.16497 2.42969,8.99282 2.42968,8.82206 2.42969,8.65786 2.42969,8.49863 2.42969,8.33194 2.42968,8.17492 2.42969,8.02002 2.42969,7.86591 2.42969,7.71727 2.42968,7.56675 2.42969,7.41903 2.42969,7.27726 2.42969,7.13586 2.42968,6.99661 2.42969,6.85775 2.42969,6.72845 2.42969,6.59055 2.42968,6.46181 2.42969,6.33368 2.42969,6.20707 2.42969,6.08176 2.42968,5.96068 2.42969,5.84363 2.42969,5.72044 2.42969,5.60557 2.42968,5.49113 2.42969,5.37846 2.42969,5.26894 2.42969,5.15828 2.42968,5.04962 4.85938,9.78665 4.85937,9.37647 4.85938,8.98358 4.85937,8.59894 4.85938,8.22695 4.85937,7.8718 4.85938,7.5212 4.85937,7.18493 4.85938,6.86332 4.85937,6.54562 4.85938,6.24108 4.85937,5.94999 4.85938,5.66181 4.85937,5.38743 4.85938,5.12161 4.85937,4.86195 4.85938,4.61348 4.85937,4.37138 4.85938,4.13977 4.85937,3.91335 4.85938,3.69446 4.85937,3.48598 4.85938,3.27964 4.85937,3.08238 4.85938,2.894 4.85937,2.70764 4.85938,2.52954 4.85937,2.35974 4.85938,2.19108 4.85937,2.03041 4.85938,1.87695 4.85937,1.72515 4.85938,1.58076 4.85937,1.44115 4.85938,1.30493 4.85937,1.17485 4.85938,1.04808 4.85937,0.92741 4.85938,0.80932 4.85937,0.69521 4.85938,0.58661 4.85937,0.48043 4.85938,0.378 4.85937,0.28073 4.85938,0.1845 4.85937,0.0929 4.85938,0.006 4.85937,-0.0807 4.85938,-0.16281 4.85937,-0.24089 4.85938,-0.31834 4.85937,-0.39155 4.85938,-0.46203 4.85937,-0.53103 4.85938,-0.5964 4.85937,-0.65942 4.85938,-0.721 4.85937,-0.77934 4.85938,-0.836 4.85937,-0.88976 4.85938,-0.94229 4.85937,-0.99275 4.85938,-1.04026 4.85937,-1.08732 4.85938,-1.13193 4.85937,-1.17399 4.85938,-1.21575 4.85937,-1.25516 4.85938,-1.29232 4.85937,-1.32925 4.85938,-1.3638 4.85937,-1.39731 4.85938,-1.42883 4.85937,-1.45958 4.85938,-1.4886 4.85938,-1.51693 4.85937,-1.54347 4.85937,-1.56916 4.85938,-1.59321 4.85937,-1.61663 4.85938,-1.63866 4.85937,-1.65995 4.85938,-1.68019 4.85938,-1.69936 4.85937,-1.71736 4.85937,-1.73452 4.85938,-1.75092 4.85937,-1.76659 4.85938,-1.78142 4.85938,-1.79531 4.85937,-1.80831 4.85938,-1.82058 4.85937,-1.83234 4.85937,-1.84318 4.85938,-1.8537 4.85937,-1.86319 4.85938,-1.87228 4.85937,-1.88056 4.85938,-1.88824 4.85938,-1.89545 4.85937,-1.90221 4.85937,-1.90843 4.85938,-1.91402 4.85937,-1.91906 4.85938,-1.92358 4.85937,-1.92787 4.85938,-1.93146 4.85937,-1.93491 4.85938,-1.93771 4.85937,-1.94023 4.85938,-1.94214 4.85937,-1.94391 4.85938,-1.94518 4.85937,-1.94621 4.85938,-1.9469 4.85937,-1.9472 4.85933,-1.94715 4.8594,-1.94675 4.8594,-1.94616 4.8594,-1.94533 4.8593,-1.94421 4.8594,-1.94278 4.8594,-1.94105 4.8594,-1.93908 4.8594,-1.93696 4.8593,-1.93453 4.8594,-1.93201 4.8594,-1.92913 4.8594,-1.92616 4.8593,-1.92286 4.8594,-1.9195 4.8594,-1.91586 4.8594,-1.91214 4.8593,-1.90825 4.8594,-1.90417 4.8594,-1.89987 4.8594,-1.89544 4.8593,-1.89091 4.8594,-1.88627 4.8594,-1.88149 4.8594,-1.87656 4.8593,-1.87147 4.8594,-1.86627 4.8594,-1.86101 4.8594,-1.85561 4.8593,-1.85015 4.8594,-1.84454 4.8594,-1.83888 4.8594,-1.83305 4.8593,-1.82722 4.8594,-1.82124 4.8594,-1.81528 4.8594,-1.80914 4.8593,-1.803 4.8594,-1.79674 4.8594,-1.79042 4.8594,-1.78405 4.8593,-1.77764 4.8594,-1.77119 4.8594,-1.76465 4.8594,-1.75805 4.8593,-1.7514 4.8594,-1.74474 4.8594,-1.73801 4.8594,-1.73127 4.8593,-1.72447 4.8594,-1.71764 4.8594,-1.71075 4.8594,-1.70386 4.8593,-1.69693 4.8594,-1.68999 4.8594,-1.68299 4.8594,-1.67601 4.8593,-1.66896 4.8594,-1.6619 4.8594,-1.65484 4.8594,-1.64776 4.8593,-1.64067 4.8594,-1.63356 4.8594,-1.62642 4.8594,-1.61927 4.8593,-1.61213 4.8594,-1.60496 4.8594,-1.59782 4.8594,-1.59064 4.8593,-1.58347 4.8594,-1.57627 4.8594,-1.5691 4.8594,-1.5619 4.8593,-1.55474 4.8594,-1.54754 4.8594,-1.54036 4.8594,-1.53317 4.8593,-1.52598 4.8594,-1.51881 4.8594,-1.51164 4.8594,-1.50447 4.8593,-1.49732 4.8594,-1.49016 4.8594,-1.483 4.8594,-1.47586 4.8593,-1.46874 4.8594,-1.46163 4.8594,-1.4545 4.8594,-1.44741 4.8593,-1.44031 4.8594,-1.43324 4.8594,-1.42617 4.8594,-1.41912 4.8593,-1.41208 4.8594,-1.40505 4.8594,-1.39804 4.8594,-1.39104 4.8593,-1.38405 4.8594,-1.37709 4.8594,-1.37014 4.8594,-1.3632 4.8593,-1.35628 4.8594,-1.34937 4.8594,-1.34249 4.8594,-1.33562 4.8593,-1.32877 4.8594,-1.32194 4.8594,-1.31512 4.8594,-1.30832 4.8593,-1.30154 4.8594,-1.29478 4.8594,-1.28804 4.8594,-1.28132 4.8593,-1.27463 4.8594,-1.26793 4.8594,-1.26127 4.8594,-1.25463 4.8593,-1.24801 4.8594,-1.24141 4.8594,-1.23483 4.8594,-1.22827 4.8593,-1.22173 4.8594,-1.2152 4.8594,-1.20871 4.8594,-1.20224 4.8593,-1.19578 4.8594,-1.18935 4.8594,-1.18293 4.8594,-1.17655 4.8593,-1.17017 4.8594,-1.16383 4.8594,-1.1575 4.8594,-1.1512 4.8593,-1.14492 4.8594,-1.13866 4.8594,-1.13242 4.8594,-1.12621 4.8593,-1.12001 4.8594,-1.11385 4.8594,-1.10769 4.8594,-1.10157 4.8593,-1.09546 4.8594,-1.08939 4.8594,-1.08333 4.8594,-1.07728 4.8593,-1.07128 4.8594,-1.06528 4.8594,-1.05932 4.8594,-1.05336 4.8593,-1.04745 4.8594,-1.04154 4.8594,-1.03566 4.8594,-1.02981 4.8593,-1.02397 4.8594,-1.01815 4.8594,-1.01237 4.8594,-1.0066 4.8593,-1.00086 4.8594,-0.99514 4.8594,-0.98943 4.8594,-0.98376 4.8593,-0.9781 4.8594,-0.97247 4.8594,-0.96686 4.8594,-0.96127 4.8593,-0.9557 4.8594,-0.95016 4.8594,-0.94464 4.8594,-0.93914 4.8593,-0.93366 4.8594,-0.9282 4.8594,-0.92278 4.8594,-0.91735 4.8593,-0.91198 4.8594,-0.9066 4.8594,-0.90126 4.8594,-0.89593 4.8593,-0.89063 4.8594,-0.88535 4.8594,-0.8801 4.8594,-0.87485 4.8593,-0.86964 4.8594,-0.86445 4.8594,-0.85927 4.8593,-0.85413 4.8594,-0.84899 4.8594,-0.84388 4.8594,-0.8388 4.8594,-0.83374 4.8593,-0.82869 4.8594,-0.82366 4.8594,-0.81867 4.8594,-0.81368 4.8593,-0.80872 4.8594,-0.80379 4.8594,-0.79886 4.8594,-0.79397 4.8593,-0.78909 4.8594,-0.78424 4.8594,-0.7794 4.8593,-0.77459 4.8594,-0.76979 4.8594,-0.76502 4.8594,-0.76027 4.8594,-0.75554 4.8593,-0.75082 4.8594,-0.74613 4.8594,-0.74146 4.8594,-0.73681 4.8593,-0.73217 4.8594,-0.72757 4.8594,-0.72297 4.8594,-0.7184 4.8593,-0.71385 4.8594,-0.70932 4.8594,-0.70481 4.8594,-0.70031 4.8593,-0.69585 4.8594,-0.69138 4.8594,-0.68696 4.8594,-0.68254 4.8593,-0.67815 4.8594,-0.67377 4.8594,-0.66941 4.8594,-0.66508 4.8593,-0.66076 4.8594,-0.65646 4.8594,-0.65219 4.8594,-0.64792 4.8593,-0.64368 4.8594,-0.63946 4.8594,-0.63525 4.8594,-0.63107 4.8593,-0.6269 4.8594,-0.62275 4.8594,-0.61863 4.8594,-0.61451 4.8593,-0.61043 4.8594,-0.60634 4.8594,-0.6023 4.8594,-0.59825 4.8593,-0.59424 4.8594,-0.59024 4.8594,-0.58625 4.8594,-0.58229 4.8593,-0.57834 4.8594,-0.57441 4.8594,-0.5705 4.8594,-0.56661 4.8593,-0.56274 4.8594,-0.55888 4.8594,-0.55503 4.8594,-0.55122 4.8593,-0.54741 4.8594,-0.54362 4.8594,-0.53985 4.8594,-0.5361 4.8593,-0.53237 4.8594,-0.52865 4.8594,-0.52494 4.8594,-0.52127 4.8593,-0.5176 4.8594,-0.51394 4.8594,-0.51032 4.8594,-0.5067 4.8593,-0.5031 4.8594,-0.49952 4.8594,-0.49596 4.8594,-0.49241 4.8593,-0.48887 4.8594,-0.48536 4.8594,-0.48186 4.8594,-0.47839 4.8593,-0.47491 4.8594,-0.47147 4.8594,-0.46803 4.8594,-0.46462 4.8593,-0.46122 4.8594,-0.45783 4.8594,-0.45446 4.8594,-0.45112 4.8593,-0.44778 4.8594,-0.44446 4.8594,-0.44115 4.8594,-0.43787 4.8593,-0.43459 4.8594,-0.43134 4.8594,-0.4281 4.8594,-0.42487 4.8593,-0.42167 4.8594,-0.41847 4.8594,-0.41529 4.8594,-0.41213 4.8593,-0.40898 4.8594,-0.40585 4.8594,-0.40273 4.8594,-0.39964 4.8593,-0.39654 4.8594,-0.39348 4.8594,-0.39042 4.8594,-0.38738 4.8593,-0.38435 4.8594,-0.38134 4.8594,-0.37835 4.8594,-0.37537 4.8593,-0.3724 4.8594,-0.36945"
     stroke-opacity="0.698039"
     stroke-linecap="round"
     stroke-linejoin="round"
     stroke-miterlimit="10"
     stroke-width="2.5"
     id="path193"
     style="display:none;stroke:#3070b3;stroke-width:8.41268;stroke-linecap:square;stroke-linejoin:miter;stroke-dasharray:none;stroke-opacity:1"
     transform="matrix(0.18232897,0,0,0.17716535,0.40883552,0)" />
  <g
     inkscape:label=""
     transform="translate(61.058952,97.077256)"
     id="g197"
     style="display:inline">
    <g
       fill="#000000"
       fill-opacity="1"
       id="g2"
       transform="matrix(1.33333,0,0,1.33333,-3.21983,-2.34183)">
      <g
         id="use1"
         transform="translate(1.993,9.0220003)">
        <path
           d="m 5.015625,-3.484375 c 0,-0.875 -0.046875,-1.75 -0.4375,-2.5625 -0.5,-1.046875 -1.390625,-1.21875 -1.859375,-1.21875 -0.640625,0 -1.4375,0.28125 -1.890625,1.296875 -0.34375,0.75 -0.40625,1.609375 -0.40625,2.484375 0,0.8125 0.046875,1.796875 0.5,2.625 0.46875,0.875 1.265625,1.09375 1.796875,1.09375 0.578125,0 1.421875,-0.21875 1.890625,-1.265625 0.359375,-0.75 0.40625,-1.59375 0.40625,-2.453125 z M 2.71875,0 C 2.296875,0 1.640625,-0.265625 1.453125,-1.3125 c -0.125,-0.65625 -0.125,-1.671875 -0.125,-2.3125 0,-0.6875 0,-1.40625 0.09375,-2 C 1.625,-6.921875 2.4375,-7.03125 2.71875,-7.03125 c 0.359375,0 1.078125,0.203125 1.28125,1.28125 0.109375,0.609375 0.109375,1.4375 0.109375,2.125 0,0.828125 0,1.5625 -0.125,2.265625 C 3.828125,-0.328125 3.203125,0 2.71875,0 Z m 0,0"
           id="path2" />
      </g>
    </g>
  </g>
  <g
     inkscape:label=""
     transform="translate(391.32689,96.195964)"
     id="g200"
     style="display:inline">
    <g
       fill="#000000"
       fill-opacity="1"
       id="g199"
       transform="matrix(1.33333,0,0,1.33333,-3.949,-2.34183)">
      <g
         id="g198"
         transform="translate(1.993,9.0220003)">
        <path
           d="m 3.203125,-6.984375 c 0,-0.25 0,-0.28125 -0.25,-0.28125 C 2.28125,-6.5625 1.3125,-6.5625 0.96875,-6.5625 v 0.328125 c 0.21875,0 0.859375,0 1.4375,-0.28125 v 5.65625 c 0,0.390625 -0.046875,0.515625 -1.015625,0.515625 H 1.03125 V 0 c 0.390625,-0.03125 1.328125,-0.03125 1.765625,-0.03125 0.4375,0 1.390625,0 1.765625,0.03125 V -0.34375 H 4.21875 c -0.984375,0 -1.015625,-0.109375 -1.015625,-0.515625 z m 0,0"
           id="path197" />
      </g>
    </g>
  </g>
  <path
     fill="none"
     stroke="#993300"
     paint-order="fill stroke markers"
     d="m -0.35545343,220.07794 0.8873871,-0.48406 0.88738753,-0.48345 0.8873875,-0.48281 0.8873875,-0.48217 0.8873977,-0.48155 0.8873876,-0.48094 0.8873875,-0.48031 0.8873875,-0.47968 0.8873875,-0.47906 0.8873977,-0.47845 0.8873875,-0.47783 0.8873878,-0.4772 0.887387,-0.47658 0.887398,-0.47597 0.887388,-0.47536 0.887387,-0.47474 0.887388,-0.47411 0.887387,-0.47353 0.887398,-0.4729 0.887387,-0.4723 0.887388,-0.47166 0.887387,-0.47108 0.887398,-0.47045 0.887388,-0.46985 0.887387,-0.46923 0.887388,-0.46864 0.887387,-0.46805 0.887388,-0.46742 0.887397,-0.46683 0.887388,-0.46621 0.887387,-0.46563 0.887388,-0.46503 0.887387,-0.46441 0.887398,-0.46382 0.887388,-0.46323 0.887387,-0.4626 0.887388,-0.46203 0.887397,-0.46145 0.887388,-0.46083 0.887387,-0.46024 0.887388,-0.45965 0.887398,-0.45906 0.887387,-0.45847 0.887388,-0.45789 0.887387,-0.45727 0.887388,-0.45671 0.887387,-0.4561 0.887388,-0.45553 0.887398,-0.45494 0.887387,-0.45437 0.887388,-0.45376 0.887387,-0.45318 0.887398,-0.45261 0.887387,-0.45203 0.887388,-0.45142 0.887387,-0.45087 0.887388,-0.45028 0.887398,-0.44971 0.887387,-0.44912 0.887388,-0.44854 0.887387,-0.44799 0.887388,-0.4474 0.887397,-0.44683 0.887388,-0.44625 0.887387,-0.44568 0.887388,-0.4451 0.887398,-0.44453 0.887387,-0.44397 0.887388,-0.4434 0.887387,-0.44282 0.887388,-0.44228 0.887397,-0.4417 0.887388,-0.44113 0.887387,-0.44056 0.887388,-0.44002 0.887398,-0.43943 0.887387,-0.43888 0.887388,-0.43831 0.887387,-0.43775 0.887398,-0.4372 0.887388,-0.43663 0.887387,-0.43608 0.887388,-0.43553 0.887387,-0.43496 0.887388,-0.43441 0.887397,-0.43386 0.887388,-0.43331 0.887387,-0.43273 0.887388,-0.4322 0.887398,-0.43165 0.887387,-0.43109 0.887388,-0.43054 0.887387,-0.42999 0.887388,-0.42944 0.887387,-0.4289 0.887398,-0.42835 0.887387,-0.42781 0.887388,-0.42726 0.887387,-0.42671 0.887398,-0.42618 0.887388,-0.42563 0.887387,-0.42509 0.887388,-0.42455 0.88739,-0.424 0.887388,-0.42347 0.887398,-0.42292 0.887387,-0.4224 0.887388,-0.42185 0.887387,-0.42132 0.887398,-0.42078 0.887387,-0.42025 0.887388,-0.41971 0.887387,-0.41918 0.887397,-0.41865 0.88739,-0.41811 0.88739,-0.41759 0.88738,-0.41706 0.8874,-0.41653 0.88739,-0.41599 0.88739,-0.41548 0.88738,-0.41494 0.88739,-0.41442 0.8874,-0.41389 0.88739,-0.41336 0.88738,-0.41286 0.88739,-0.41232 0.8874,-0.4118 0.88739,-0.41127 0.88738,-0.41076 0.88739,-0.41023 0.88739,-0.40974 0.8874,-0.4092 0.88738,-0.40867 0.88739,-0.40817 0.88739,-0.40765 0.88739,-0.40714 0.8874,-0.40662 0.88738,-0.4061 0.88739,-0.4056 0.88739,-0.40509 0.8874,-0.40457 0.88738,-0.40406 0.88739,-0.40355 0.88739,-0.40304 0.88739,-0.40253 0.88739,-0.40203 0.88739,-0.40152 0.88739,-0.40101 0.88739,-0.40051 0.88738,-0.40001 0.88739,-0.39949 0.8874,-0.39901 0.88739,-0.39849 0.88738,-0.39799 0.88739,-0.39749 0.8874,-0.397 0.88739,-0.39649 0.88738,-0.39599 0.88739,-0.3955 0.88739,-0.395 0.88739,-0.3945 0.88739,-0.39401 0.88739,-0.39351 0.88739,-0.39303 0.88739,-0.39252 0.88739,-0.39204 0.88739,-0.39154 0.88739,-0.39104 0.88739,-0.39057 0.88738,-0.39007 0.88739,-0.38958 0.8874,-0.38909 0.88739,-0.38861 0.88738,-0.38812 0.88739,-0.38762 0.8874,-0.38718 0.88739,-0.38666 0.88738,-0.3862 0.88739,-0.38568 0.88739,-0.38523 0.8874,-0.38472 0.88739,-0.38425 0.88738,-0.3838 0.88739,-0.38328 0.88739,-0.38282 0.8874,-0.38235 0.88738,-0.38185 0.88739,-0.38139 0.88739,-0.38092 0.8874,-0.3804 0.88738,-0.37996 0.88739,-0.37947 0.88739,-0.37903 0.88739,-0.37854 0.88739,-0.3781 0.88739,-0.37758 0.88739,-0.37711 0.88739,-0.37665 0.88738,-0.37617 0.8874,-0.37572 0.88739,-0.37526 0.88739,-0.37479 0.88738,-0.37431 0.8874,-0.37386 0.88739,-0.37339 0.88738,-0.37293 0.88739,-0.37246 0.88739,-0.37199 0.8874,-0.37152 0.88738,-0.37111 0.88738,-0.37063 0.8874,-0.37013 0.8874,-0.36971 0.88739,-0.36923 0.88737,-0.36881 0.8874,-0.36831 0.8874,-0.36784 0.88739,-0.36741 0.88737,-0.36695 0.8874,-0.36652 0.8874,-0.36605 0.88739,-0.3656 0.88737,-0.36516 0.8874,-0.36469 0.88739,-0.36428 0.8874,-0.3638 0.88738,-0.36334 0.88739,-0.36291 0.88739,-0.36245 0.8874,-0.36201 0.88738,-0.36157 0.88739,-0.36112 0.88739,-0.36066 0.8874,-0.3602 0.88738,-0.35976 0.88738,-0.35935 0.8874,-0.35887 0.8874,-0.35845 0.88738,-0.35799 0.88738,-0.35759 0.8874,-0.35713 0.88739,-0.3567 0.88738,-0.35624 0.88739,-0.35581 0.88739,-0.35539 0.8874,-0.35492 0.88738,-0.35453 0.88739,-0.35406 0.88739,-0.35364 0.8874,-0.3532 0.88738,-0.35275 0.88739,-0.35232 0.88739,-0.35189 0.8874,-0.35146 0.88738,-0.35104 0.88738,-0.35061 0.8874,-0.35019 0.8874,-0.34975 0.88738,-0.34933 0.88738,-0.34891 0.8874,-0.34847 0.8874,-0.34805 0.88738,-0.34762 0.88739,-0.3472 0.88739,-0.34677 0.8874,-0.34634 0.88737,-0.34592 0.8874,-0.34553 0.88739,-0.34509 0.88739,-0.34464 0.88738,-0.34425 0.8874,-0.34382 0.88739,-0.34342 0.88739,-0.34302 0.88738,-0.34253 0.8874,-0.34216 0.88738,-0.34172 0.8874,-0.34129 0.88738,-0.34091 0.88739,-0.34049 0.88739,-0.34009 0.8874,-0.33967 0.88737,-0.33924 0.8874,-0.33885 0.88739,-0.33843 0.8874,-0.338 0.88737,-0.33761 0.8874,-0.33718 0.88739,-0.33684 0.88739,-0.3364 0.88738,-0.33598 0.8874,-0.3356 0.88739,-0.33516 0.88739,-0.33475 0.88738,-0.33438 0.8874,-0.33397 0.88739,-0.33354 0.88739,-0.333144 0.88738,-0.332758 0.8874,-0.332329 0.88738,-0.331949 0.8874,-0.331561 0.88738,-0.331161 0.8874,-0.330742 0.88739,-0.330322 0.88739,-0.329963 0.88738,-0.329545 0.8874,-0.329144 0.88739,-0.328767 0.88739,-0.328377 0.88738,-0.327947 0.88739,-0.327599 0.8874,-0.32717 0.88738,-0.326821 0.88738,-0.326392 0.8874,-0.326012 0.8874,-0.325624 0.88738,-0.325225 0.88738,-0.324845 0.8874,-0.324457 0.88739,-0.324068 0.88739,-0.323679 0.88738,-0.32329 0.8874,-0.322901 0.88739,-0.322522 0.88739,-0.322123 0.88738,-0.321735 0.8874,-0.321355 0.88739,-0.321007 0.88739,-0.320608 0.88738,-0.320189 0.88739,-0.31984 0.8874,-0.319442 0.88739,-0.319062 0.88738,-0.318715 0.88739,-0.318284 0.8874,-0.317896 0.88739,-0.317548 0.88738,-0.317169 0.88739,-0.316769 0.8874,-0.316422 0.88738,-0.316033 0.88738,-0.315685 0.8874,-0.315295 0.8874,-0.314917 0.88739,-0.314518 0.88737,-0.31417 0.8874,-0.313822 0.88739,-0.313402 0.8874,-0.313085 0.88737,-0.312695 0.88739,-0.312348 0.8874,-0.311959 0.8874,-0.31157 0.88737,-0.311263 0.88739,-0.310874 0.8874,-0.310485 0.8874,-0.310096 0.88736,-0.309747 0.8874,-0.3094 0.8874,-0.309011 0.8874,-0.308663 0.88736,-0.308315 0.8874,-0.307926 0.8874,-0.307568 0.88739,-0.307229 0.88737,-0.306841 0.8874,-0.306483 0.8874,-0.306145 0.88739,-0.305746 0.88737,-0.305438 0.8874,-0.30506 0.8874,-0.304702 0.88739,-0.304353 0.88737,-0.304006 0.8874,-0.303616 0.88739,-0.3033 0.8874,-0.30292 0.88737,-0.302573 0.8874,-0.302255 0.88739,-0.301877 0.8874,-0.301518 0.88737,-0.30117 0.88739,-0.300822 0.8874,-0.300475 0.88739,-0.300126 0.88737,-0.299778 0.8874,-0.29942 0.8874,-0.299082 0.88739,-0.298724 0.88738,-0.298376 0.88739,-0.298027 0.88739,-0.297721 0.8874,-0.297332 0.88738,-0.296984 0.88739,-0.296666 0.88739,-0.296319 0.88738,-0.29597 0.8874,-0.295622 0.88739,-0.295316 0.88739,-0.294967 0.8874,-0.294568 0.88738,-0.294271 0.88738,-0.293913 0.8874,-0.293565 0.8874,-0.293258 0.88738,-0.29291 0.88738,-0.292552 0.8874,-0.292244 0.8874,-0.291897 0.88738,-0.291589 0.88738,-0.291242 0.8874,-0.290924 0.88739,-0.290576 0.88738,-0.290228 0.88739,-0.289921 0.8874,-0.289573 0.88739,-0.289256 0.88738,-0.288948 0.88739,-0.288601 0.88739,-0.288253 0.8874,-0.287894 0.88738,-0.287628 0.88738,-0.28728 0.8874,-0.286932 0.88738,-0.286615 0.8874,-0.286318 0.88738,-0.28596 0.8874,-0.285683 0.8874,-0.285346 0.88739,-0.284987 0.88739,-0.28468 0.88741,-0.284363 0.88738,-0.284025 0.88739,-0.283708 0.88738,-0.283401 0.88737,-0.283083 0.88739,-0.282746 0.88738,-0.282428 0.88742,-0.282111 0.88738,-0.281815 0.88738,-0.281456 0.88738,-0.281189 0.88743,-0.280873 0.88737,-0.280535 0.88738,-0.280207 0.88739,-0.27991 0.88738,-0.279593 0.88741,-0.279286 0.88739,-0.278979 0.88738,-0.278661 0.88738,-0.278355 0.88742,-0.278047 0.88738,-0.27773 0.88738,-0.277423 0.88739,-0.277116 0.88741,-0.276758 0.88738,-0.276491 0.88739,-0.276185 0.88738,-0.275867 0.88737,-0.275601 0.88742,-0.275253 0.88739,-0.274977 0.88738,-0.274628 0.88738,-0.274363 0.88742,-0.274045 0.88734,-0.273738 0.88743,-0.273462 0.88737,-0.273154 0.88738,-0.272838 0.88739,-0.27254 0.88742,-0.272254 0.88738,-0.271957 0.88738,-0.27164 0.88738,-0.271332 0.88742,-0.271057 0.88739,-0.270749 0.88737,-0.270442 0.88738,-0.270166 0.88739,-0.269848 0.88742,-0.269552 0.88737,-0.269265 0.88739,-0.269009 0.88738,-0.268692 0.88742,-0.268374 0.88737,-0.268078 0.88739,-0.267832 0.88738,-0.267535 0.88742,-0.267208 0.88738,-0.26691 0.88738,-0.266676 0.88739,-0.266358 0.88738,-0.266061 0.88741,-0.265775 0.88738,-0.265508 0.88739,-0.265201 0.88738,-0.264925 0.88741,-0.264659 0.88735,-0.264383 0.88742,-0.264075 0.88739,-0.263758 0.88742,-0.263492 0.88733,-0.263226 0.88742,-0.262949 0.88739,-0.262633 0.88737,-0.262366 0.88739,-0.2621 0.88742,-0.261823 0.88738,-0.261547 0.88737,-0.261281 0.88739,-0.261005 0.88738,-0.260698"
     stroke-opacity="0.698039"
     stroke-linecap="round"
     stroke-linejoin="round"
     stroke-miterlimit="10"
     stroke-width="2.5"
     id="path190-6"
     style="display:inline;stroke:#ef9067;stroke-width:1.51181;stroke-linecap:square;stroke-linejoin:miter;stroke-dasharray:none;stroke-opacity:1" />
  <path
     fill="none"
     stroke="#006400"
     paint-order="fill stroke markers"
     d="m 18.168207,227.22421 0.887388,-0.90509 0.887397,-0.90131 0.887388,-0.89754 0.887388,-0.89381 0.887387,-0.89006 0.887388,-0.88635 0.887397,-0.88263 0.887388,-0.87893 0.887387,-0.87527 0.887388,-0.87158 0.887387,-0.86794 0.887388,-0.8643 0.887398,-0.86067 0.887387,-0.85705 0.887388,-0.85345 0.887387,-0.84985 0.887398,-0.8463 0.887387,-0.84271 0.887388,-0.83918 0.887387,-0.83565 0.887398,-0.83211 0.887388,-0.8286 0.887387,-0.82511 0.887388,-0.82161 0.887387,-0.81816 0.887388,-0.81467 0.887387,-0.81125 0.887398,-0.80779 0.887387,-0.80439 0.887388,-0.80097 0.887387,-0.79757 0.887398,-0.79419 0.887388,-0.79082 0.887387,-0.78743 0.887388,-0.78412 0.887398,-0.78077 0.887387,-0.77743 0.887388,-0.77413 0.887387,-0.77084 0.887388,-0.76755 0.887387,-0.76426 0.887398,-0.76101 0.887387,-0.75774 0.887388,-0.75451 0.887387,-0.75128 0.887398,-0.74808 0.887388,-0.74486 0.887387,-0.74166 0.887388,-0.73847 0.887387,-0.73532 0.887398,-0.73217 0.887387,-0.729 0.887388,-0.7259 0.887387,-0.72274 0.887398,-0.71965 0.887388,-0.71654 0.887387,-0.71344 0.887388,-0.71037 0.887397,-0.70731 0.887388,-0.70425 0.887387,-0.70121 0.887388,-0.69817 0.887387,-0.69516 0.887388,-0.69214 0.887398,-0.68914 0.887387,-0.68615 0.887388,-0.68317 0.887387,-0.68021 0.887398,-0.67725 0.887388,-0.6743 0.887387,-0.67138 0.887388,-0.66845 0.887387,-0.66553 0.887388,-0.66264 0.887397,-0.65975 0.887388,-0.65685 0.887387,-0.654 0.887388,-0.65114 0.887398,-0.64828 0.887387,-0.64545 0.887388,-0.64262 0.887387,-0.6398 0.887388,-0.637 0.887382,-0.6342 0.887398,-0.63141 0.887387,-0.62865 0.887388,-0.62587 0.887387,-0.62311 0.887398,-0.62037 0.887388,-0.61765 0.887387,-0.61491 0.887388,-0.61219 0.887402,-0.6095 0.88738,-0.60679 0.88739,-0.60412 0.88739,-0.60144 0.8874,-0.59877 0.88738,-0.59612 0.88739,-0.59349 0.88739,-0.59083 0.88739,-0.58822 0.88739,-0.5856 0.88739,-0.583 0.88739,-0.58039 0.88739,-0.57782 0.88739,-0.57523 0.88739,-0.57267 0.88739,-0.57011 0.88739,-0.56755 0.88738,-0.56504 0.8874,-0.56249 0.88739,-0.55997 0.88739,-0.55747 0.88738,-0.55497 0.88739,-0.55247 0.8874,-0.54998 0.88739,-0.54752 0.88738,-0.54506 0.88739,-0.54259 0.8874,-0.54016 0.88739,-0.53772 0.88738,-0.53529 0.88739,-0.53287 0.88739,-0.53047 0.8874,-0.52806 0.88738,-0.52567 0.88739,-0.5233 0.88739,-0.52092 0.88739,-0.51856 0.88738,-0.51619 0.8874,-0.51385 0.88739,-0.51152 0.88739,-0.5092 0.88739,-0.50686 0.88739,-0.50455 0.88739,-0.50227 0.88739,-0.49995 0.88739,-0.49768 0.88738,-0.4954 0.88739,-0.49313 0.8874,-0.49087 0.88739,-0.48862 0.88738,-0.48638 0.88739,-0.48414 0.8874,-0.48192 0.88739,-0.4797 0.88738,-0.4775 0.88739,-0.47529 0.88739,-0.4731 0.88739,-0.47092 0.88739,-0.46873 0.88739,-0.46659 0.88739,-0.46441 0.88739,-0.46226 0.88739,-0.46012 0.88739,-0.45799 0.88739,-0.45586 0.88739,-0.45374 0.88738,-0.45164 0.8874,-0.44953 0.88739,-0.44743 0.88739,-0.44535 0.88738,-0.44326 0.88739,-0.44121 0.8874,-0.43913 0.88739,-0.43708 0.88738,-0.43504 0.88739,-0.433 0.8874,-0.43096 0.88739,-0.42894 0.88738,-0.42692 0.88739,-0.42492 0.88739,-0.42292 0.8874,-0.42092 0.88739,-0.41894 0.88738,-0.41696 0.88739,-0.41498 0.88739,-0.41303 0.8874,-0.41107 0.88738,-0.40912 0.88739,-0.4072 0.88739,-0.40524 0.8874,-0.40333 0.88738,-0.4014 0.88738,-0.3995 0.8874,-0.3976 0.88739,-0.3957 0.88739,-0.3938 0.88738,-0.39192 0.88739,-0.39006 0.8874,-0.38819 0.88739,-0.38631 0.88739,-0.38449 0.88738,-0.38262 0.8874,-0.3808 0.88739,-0.37894 0.88739,-0.37711 0.88738,-0.37533 0.8874,-0.37351 0.88739,-0.37173 0.88739,-0.36993 0.88738,-0.36811 0.8874,-0.36633 0.88738,-0.36454 0.8874,-0.3628 0.88738,-0.36105 0.8874,-0.35925 0.88738,-0.35751 0.8874,-0.35578 0.88738,-0.35406 0.8874,-0.35232 0.88739,-0.3506 0.88739,-0.34891 0.88738,-0.34715 0.88739,-0.34549 0.8874,-0.34379 0.88739,-0.34211 0.88738,-0.340404 0.88739,-0.338736 0.8874,-0.337068 0.88738,-0.335429 0.88738,-0.333731 0.8874,-0.332103 0.88739,-0.330475 0.88739,-0.328838 0.88738,-0.32717 0.8874,-0.325582 0.88739,-0.323956 0.88739,-0.322317 0.88738,-0.320731 0.8874,-0.319135 0.88739,-0.317547 0.88739,-0.315961 0.88738,-0.314406 0.88739,-0.312808 0.8874,-0.311232 0.88739,-0.309666 0.88738,-0.30812 0.88739,-0.306606 0.8874,-0.30505 0.88739,-0.303504 0.88738,-0.301978 0.88739,-0.300444 0.8874,-0.298959 0.88739,-0.297404 0.88737,-0.295898 0.8874,-0.294415 0.8874,-0.29291 0.88738,-0.291395 0.88738,-0.289952 0.8874,-0.288488 0.8874,-0.286962 0.88739,-0.28554 0.88737,-0.284056 0.8874,-0.282623 0.88739,-0.28119 0.8874,-0.279706 0.88737,-0.278282 0.88739,-0.276881 0.8874,-0.275437 0.8874,-0.274015 0.88736,-0.272571 0.8874,-0.27121 0.8874,-0.269776 0.8874,-0.268385 0.88736,-0.266983 0.8874,-0.265621 0.8874,-0.264229 0.88739,-0.262877 0.88737,-0.261476 0.8874,-0.260145 0.8874,-0.258804 0.88739,-0.257391 0.88737,-0.256081 0.8874,-0.25472 0.8874,-0.25341 0.88739,-0.252079 0.88737,-0.250727 0.8874,-0.249408 0.88739,-0.248077 0.8874,-0.246807 0.88737,-0.245487 0.8874,-0.244208 0.88739,-0.242887 0.8874,-0.241597 0.88737,-0.240288 0.8874,-0.239048 0.88739,-0.237759 0.8874,-0.236521 0.88737,-0.235241 0.88739,-0.233961 0.8874,-0.232723 0.88739,-0.231474 0.88737,-0.230236 0.8874,-0.228997 0.8874,-0.227789 0.88739,-0.22654 0.88737,-0.225313 0.8874,-0.224104 0.88739,-0.222855 0.8874,-0.221669 0.88738,-0.22045 0.88739,-0.219252 0.88739,-0.218055 0.8874,-0.216878 0.88738,-0.215731 0.88739,-0.214514 0.88739,-0.213356 0.8874,-0.21219 0.88738,-0.211023 0.88738,-0.209866 0.8874,-0.208699 0.8874,-0.207574 0.88738,-0.206406 0.88738,-0.205281 0.8874,-0.204113 0.8874,-0.202998 0.88738,-0.201872 0.88738,-0.200736 0.8874,-0.19962 0.88739,-0.198535 0.88738,-0.197399 0.88739,-0.196324 0.8874,-0.195188 0.88739,-0.194103 0.88738,-0.193028 0.88739,-0.191933 0.88739,-0.190848 0.8874,-0.189794 0.88738,-0.188719 0.88738,-0.187664 0.8874,-0.18658 0.8874,-0.185525 0.88738,-0.184482 0.88738,-0.183437 0.8874,-0.182393 0.8874,-0.181339 0.88737,-0.180325 0.8874,-0.179241 0.88739,-0.178237 0.8874,-0.177193 0.88737,-0.17618 0.8874,-0.175167 0.88739,-0.174163 0.88739,-0.17315 0.88738,-0.172178 0.8874,-0.171175 0.88739,-0.170161 0.88739,-0.169158 0.88738,-0.168186 0.8874,-0.167213 0.88739,-0.166241 0.88739,-0.165279 0.88738,-0.164296 0.8874,-0.163334 0.88738,-0.162371 0.8874,-0.16143 0.88738,-0.160417 0.8874,-0.159495 0.88738,-0.158564 0.8874,-0.157623 0.88738,-0.156701 0.88739,-0.155769 0.88739,-0.154798 0.88739,-0.153896 0.88738,-0.152975 0.8874,-0.152085 0.88739,-0.151143 0.88739,-0.150263 0.88738,-0.14932 0.8874,-0.148431 0.88738,-0.14754 0.8874,-0.146649 0.88738,-0.145759 0.8874,-0.144858 0.88738,-0.143968 0.88738,-0.143118 0.8874,-0.142228 0.8874,-0.141367 0.88739,-0.140477 0.88739,-0.139618 0.88738,-0.138768 0.88739,-0.137918 0.8874,-0.137099 0.88739,-0.136209 0.88738,-0.135359 0.88739,-0.134541 0.8874,-0.13368 0.88739,-0.132841 0.88738,-0.132013 0.88739,-0.131203 0.8874,-0.130385 0.88738,-0.129576 0.88738,-0.128757 0.8874,-0.127938 0.8874,-0.12713 0.88738,-0.126321 0.88738,-0.125532 0.8874,-0.124725 0.88739,-0.123905 0.88739,-0.123127 0.88738,-0.12236 0.88739,-0.121541 0.8874,-0.120763 0.88737,-0.120026 0.8874,-0.119248 0.88739,-0.118439 0.8874,-0.117692 0.88739,-0.116965 0.88739,-0.116147 0.88739,-0.115409 0.88742,-0.114663 0.88738,-0.113894 0.88738,-0.113168 0.88738,-0.112411 0.88738,-0.111683 0.88738,-0.110947 0.88738,-0.110251 0.88742,-0.109472 0.88739,-0.108777 0.88737,-0.108029 0.88738,-0.107303 0.88743,-0.106597 0.88738,-0.1059 0.88738,-0.105163 0.88738,-0.104468 0.88738,-0.103761 0.88742,-0.103075 0.88739,-0.102369 0.88737,-0.101642 0.88738,-0.101029 0.88743,-0.100311 0.88738,-0.09959 0.88737,-0.09898 0.88739,-0.09816 0.88742,-0.09755 0.88738,-0.09693 0.88738,-0.09622 0.88738,-0.0956 0.88738,-0.09489 0.88742,-0.09427 0.88738,-0.09356 0.88738,-0.09294 0.88739,-0.09222 0.88742,-0.09161 0.88733,-0.091 0.88743,-0.09038 0.88738,-0.08967 0.88738,-0.08915 0.88738,-0.08844 0.88742,-0.08782 0.88738,-0.08711 0.88739,-0.0866 0.88737,-0.08598 0.88742,-0.08537 0.88739,-0.08475 0.88738,-0.08414 0.88737,-0.08353 0.88739,-0.08291 0.88742,-0.0823 0.88738,-0.08168 0.88738,-0.08107 0.88738,-0.08045 0.88742,-0.07994 0.88738,-0.07933 0.88739,-0.07871 0.88737,-0.0781 0.88742,-0.07759 0.88739,-0.07697 0.88738,-0.07636 0.88738,-0.07585 0.88738,-0.07523 0.88742,-0.07472 0.88738,-0.07411 0.88738,-0.0736 0.88738,-0.07298 0.88742,-0.07247 0.88735,-0.07196 0.88741,-0.07134 0.88739,-0.07083 0.88742,-0.07032 0.88734,-0.06971 0.88741,-0.0692 0.88739,-0.06868 0.88738,-0.06807 0.88739,-0.06756 0.88741,-0.06705 0.88738,-0.06653 0.88738,-0.06602 0.88739,-0.06551 0.88737,-0.0649"
     stroke-opacity="0.698039"
     stroke-linecap="round"
     stroke-linejoin="round"
     stroke-miterlimit="10"
     stroke-width="2.5"
     id="path193-7"
     style="display:inline;stroke:#3070b3;stroke-width:1.51181;stroke-linecap:square;stroke-linejoin:miter;stroke-dasharray:none;stroke-opacity:1" />
</svg>
