<?xml version="1.0" encoding="UTF-8" standalone="no"?>
<svg
   version="1.1"
   width="120mm"
   height="60mm"
   id="svg197"
   sodipodi:docname="2D_unbounded.svg"
   inkscape:version="1.3.2 (091e20ef0f, 2023-11-25, custom)"
   xmlns:inkscape="http://www.inkscape.org/namespaces/inkscape"
   xmlns:sodipodi="http://sodipodi.sourceforge.net/DTD/sodipodi-0.dtd"
   xmlns="http://www.w3.org/2000/svg"
   xmlns:svg="http://www.w3.org/2000/svg">
  <sodipodi:namedview
     id="namedview197"
     pagecolor="#ffffff"
     bordercolor="#000000"
     borderopacity="0.25"
     inkscape:showpageshadow="2"
     inkscape:pageopacity="0.0"
     inkscape:pagecheckerboard="0"
     inkscape:deskcolor="#d1d1d1"
     inkscape:zoom="2.9845207"
     inkscape:cx="202.04249"
     inkscape:cy="114.59126"
     inkscape:window-width="2560"
     inkscape:window-height="1416"
     inkscape:window-x="0"
     inkscape:window-y="0"
     inkscape:window-maximized="1"
     inkscape:current-layer="svg197"
     inkscape:document-units="mm" />
  <defs
     id="defs1">
    <clipPath
       id="KBqOCxHNxVdz">
      <path
         fill="none"
         stroke="none"
         d="M 0,0 H 2488 V 1280 H 0 Z"
         id="path1" />
    </clipPath>
  </defs>
  <path
     fill="none"
     stroke="#252525"
     paint-order="fill stroke markers"
     d="M 58.298283,18.897638 V 207.87401"
     stroke-opacity="1"
     stroke-miterlimit="10"
     id="path6"
     style="stroke:#333a41;stroke-width:0.755905;stroke-dasharray:none;stroke-opacity:1"
     inkscape:export-filename="2D_unbounded.pdf"
     inkscape:export-xdpi="96"
     inkscape:export-ydpi="96" />
  <path
     fill="none"
     stroke="#252525"
     paint-order="fill stroke markers"
     d="m 0.5,617.5 h 2486"
     stroke-opacity="1"
     stroke-miterlimit="10"
     id="path9"
     style="stroke-width:4.20581609;stroke-dasharray:none;stroke:#333a41;stroke-opacity:1"
     transform="matrix(0.18232897,0,0,0.17716535,0.40883552,0)" />
  <path
     fill="none"
     stroke="#000000"
     paint-order="fill stroke markers"
     d="M 387.86549,207.49635 V 19.134101"
     stroke-opacity="0.698039"
     stroke-linecap="round"
     stroke-linejoin="round"
     stroke-miterlimit="10"
     stroke-width="2.5"
     id="path169"
     style="stroke:#333a41;stroke-width:0.755905;stroke-dasharray:2.26772, 2.26772;stroke-dashoffset:0;stroke-opacity:1" />
  <path
     fill="none"
     stroke="#993300"
     paint-order="fill stroke markers"
     d="m 290.34766,-8.6941497 1.21484,8.06003822 1.21484,7.99843408 1.21485,7.9241134 1.21484,7.863686 1.21484,7.778308 1.21485,7.731284 1.21484,7.659305 1.21485,7.594686 1.21484,7.536121 1.21484,7.454317 1.21485,7.409183 1.21484,7.339493 1.21484,7.277614 1.21485,7.220928 1.21484,7.142719 1.21485,7.09949 1.21484,7.03254 1.21484,6.97254 1.21485,6.90722 1.21484,6.85412 1.21484,6.80097 1.21485,6.73677 1.21484,6.67736 1.21485,6.62447 1.21484,6.56318 1.21484,6.51193 1.21485,6.4558 1.21484,6.39476 1.21484,6.34292 1.21485,6.2853 1.21484,6.23642 1.21485,6.18352 1.21484,6.12354 1.21484,6.07361 1.21485,6.02189 1.21484,5.96878 1.21484,5.92047 1.21485,5.86372 1.21484,5.81841 1.21485,5.76244 1.21484,5.71481 1.21484,5.66271 1.21485,5.61808 1.21484,5.565 1.21484,5.52071 1.21485,5.47261 1.21484,5.42026 1.21485,5.37561 1.21484,5.32514 1.21484,5.28373 1.21485,5.23782 1.21484,5.18678 1.21484,5.14388 1.21485,5.09851 1.21484,5.05397 2.42969,9.97371 2.42969,9.79924 2.42968,9.62442 2.42969,9.4568 2.42969,9.29397 2.42969,9.12276 2.42968,8.96349 2.42969,8.80366 2.42969,8.64662 2.42969,8.49485 2.42968,8.34009 2.42969,8.18925 2.42969,8.04392 2.42969,7.89853 2.42968,7.75573 2.42969,7.61356 2.42969,7.48073 2.42969,7.33955 2.42968,7.20728 2.42969,7.0752 2.42969,6.94554 2.42969,6.81606 2.42968,6.69218 2.42969,6.57119 2.42969,6.44522 2.42969,6.32643 2.42968,6.20853 2.42969,6.09219 2.42969,5.97946 2.42969,5.86536 2.42968,5.75329 2.42969,5.64551 2.42969,5.5382 2.42969,5.43271 2.42968,5.32744 2.42969,5.22878 2.42969,5.12445 4.85937,9.95533 4.85938,9.56988 4.85937,9.20168 4.85938,8.83695 4.85937,8.4882 4.85938,8.15303 4.85937,7.82192 4.85938,7.50461 4.85937,7.20036 4.85938,6.89917 4.85937,6.61162 4.85938,6.33325 4.85937,6.06075 4.85938,5.79915 4.85937,5.54467 4.85938,5.30039 4.85937,5.06121 4.85938,4.82966 4.85937,4.60877 4.85938,4.38997 4.85937,4.1803 4.85938,3.97957 4.85937,3.7809 4.85938,3.59066 4.85937,3.40819 4.85938,3.22787 4.85937,3.05503 4.85938,2.88948 4.85937,2.72556 4.85938,2.56935 4.85937,2.41798 4.85938,2.26973 4.85937,2.12792 4.85938,1.98942 4.85937,1.85706 4.85938,1.72721 4.85937,1.6017 4.85938,1.48156 4.85937,1.36383 4.85938,1.24985 4.85937,1.14137 4.85938,1.03372 4.85937,0.9308 4.85938,0.83244 4.85937,0.73475 4.85938,0.64163 4.85937,0.55232 4.85938,0.46387 4.85937,0.37967 4.85938,0.29812 4.85937,0.21839 4.85938,0.1421 4.85937,0.0682 4.85938,-0.004 4.85937,-0.0731 4.85938,-0.14052 4.85937,-0.20487 4.85938,-0.26794 4.85937,-0.32891 4.85938,-0.3869 4.85937,-0.44452 4.85938,-0.49944 4.85937,-0.55178 4.85938,-0.60393 4.85937,-0.65361 4.85938,-0.70097 4.85937,-0.74801 4.85938,-0.79274 4.85937,-0.8363 4.85938,-0.87782 4.85937,-0.9186 4.85938,-0.95758 4.85938,-0.99582 4.85937,-1.03217 4.85937,-1.0677 4.85938,-1.10152 4.85937,-1.13466 4.85938,-1.16637 4.85937,-1.1973 4.85938,-1.22717 4.85938,-1.25584 4.85937,-1.28337 4.85937,-1.31003 4.85938,-1.33583 4.85937,-1.36089 4.85938,-1.38508 4.85938,-1.40826 4.85937,-1.43051 4.85938,-1.45201 4.85937,-1.47295 4.85937,-1.49294 4.85938,-1.51253 4.85937,-1.5311 4.85938,-1.54918 4.85937,-1.56642 4.85938,-1.58307 4.85938,-1.59915 4.85937,-1.61477 4.85937,-1.62979 4.85938,-1.64417 4.85937,-1.65793 4.85938,-1.67117 4.85937,-1.68407 4.85938,-1.69632 4.85937,-1.70833 4.85938,-1.71964 4.85937,-1.73068 4.85938,-1.74106 4.85937,-1.75124 4.85938,-1.76088 4.85937,-1.77027 4.85938,-1.77926 4.85937,-1.78783 4.85933,-1.796 4.8594,-1.80382 4.8594,-1.81135 4.8594,-1.81865 4.8593,-1.82562 4.8594,-1.83222 4.8594,-1.8385 4.8594,-1.84451 4.8594,-1.8503 4.8593,-1.85577 4.8594,-1.86111 4.8594,-1.86607 4.8594,-1.87087 4.8593,-1.87533 4.8594,-1.87967 4.8594,-1.88373 4.8594,-1.88763 4.8593,-1.89136 4.8594,-1.89483 4.8594,-1.8981 4.8594,-1.90116 4.8593,-1.90409 4.8594,-1.90688 4.8594,-1.9095 4.8594,-1.91193 4.8593,-1.91417 4.8594,-1.91626 4.8594,-1.91827 4.8594,-1.92007 4.8593,-1.92182 4.8594,-1.92336 4.8594,-1.92482 4.8594,-1.92608 4.8593,-1.92731 4.8594,-1.92835 4.8594,-1.92937 4.8594,-1.9302 4.8593,-1.93098 4.8594,-1.9316 4.8594,-1.93214 4.8594,-1.93261 4.8593,-1.93298 4.8594,-1.93328 4.8594,-1.93348 4.8594,-1.93357 4.8593,-1.93358 4.8594,-1.93355 4.8594,-1.93342 4.8594,-1.93325 4.8593,-1.93298 4.8594,-1.93266 4.8594,-1.93224 4.8594,-1.9318 4.8593,-1.93126 4.8594,-1.93071 4.8594,-1.93007 4.8594,-1.92938 4.8593,-1.92864 4.8594,-1.92783 4.8594,-1.92699 4.8594,-1.92611 4.8593,-1.92519 4.8594,-1.92421 4.8594,-1.92317 4.8594,-1.92211 4.8593,-1.921 4.8594,-1.91986 4.8594,-1.9187 4.8594,-1.91747 4.8593,-1.91623 4.8594,-1.91493 4.8594,-1.91363 4.8594,-1.91227 4.8593,-1.91092 4.8594,-1.9095 4.8594,-1.90808 4.8594,-1.90661 4.8593,-1.90512 4.8594,-1.90361 4.8594,-1.90209 4.8594,-1.90053 4.8593,-1.89896 4.8594,-1.89736 4.8594,-1.89573 4.8594,-1.89408 4.8593,-1.89244 4.8594,-1.89077 4.8594,-1.88907 4.8594,-1.88736 4.8593,-1.88562 4.8594,-1.88389 4.8594,-1.88213 4.8594,-1.88036 4.8593,-1.87858 4.8594,-1.87678 4.8594,-1.87496 4.8594,-1.87314 4.8593,-1.87131 4.8594,-1.86946 4.8594,-1.86761 4.8594,-1.86575 4.8593,-1.86386 4.8594,-1.86198 4.8594,-1.86008 4.8594,-1.85819 4.8593,-1.85627 4.8594,-1.85436 4.8594,-1.85243 4.8594,-1.8505 4.8593,-1.84856 4.8594,-1.84661 4.8594,-1.84466 4.8594,-1.84271 4.8593,-1.84075 4.8594,-1.83877 4.8594,-1.8368 4.8594,-1.83483 4.8593,-1.83285 4.8594,-1.83086 4.8594,-1.82888 4.8594,-1.82688 4.8593,-1.82489 4.8594,-1.82288 4.8594,-1.82089 4.8594,-1.81889 4.8593,-1.81687 4.8594,-1.81487 4.8594,-1.81286 4.8594,-1.81085 4.8593,-1.80883 4.8594,-1.80682 4.8594,-1.8048 4.8594,-1.80278 4.8593,-1.80076 4.8594,-1.79874 4.8594,-1.79672 4.8594,-1.7947 4.8593,-1.79268 4.8594,-1.79065 4.8594,-1.78863 4.8594,-1.78661 4.8593,-1.78459 4.8594,-1.78256 4.8594,-1.78054 4.8594,-1.77852 4.8593,-1.7765 4.8594,-1.77447 4.8594,-1.77246 4.8594,-1.77043 4.8593,-1.76842 4.8594,-1.7664 4.8594,-1.76438 4.8594,-1.76237 4.8593,-1.76035 4.8594,-1.75833 4.8594,-1.75632 4.8594,-1.75432 4.8593,-1.7523 4.8594,-1.75029 4.8594,-1.74829 4.8594,-1.74628 4.8593,-1.74428 4.8594,-1.74228 4.8594,-1.74027 4.8594,-1.73828 4.8593,-1.73628 4.8594,-1.73429 4.8594,-1.73229 4.8594,-1.73031 4.8593,-1.72832 4.8594,-1.72632 4.8594,-1.72435 4.8594,-1.72236 4.8593,-1.72038 4.8594,-1.71841 4.8594,-1.71643 4.8594,-1.71446 4.8593,-1.71249 4.8594,-1.71051 4.8594,-1.70856 4.8594,-1.70658 4.8593,-1.70463 4.8594,-1.70267 4.8594,-1.70072 4.8593,-1.69876 4.8594,-1.69681 4.8594,-1.69486 4.8594,-1.69291 4.8594,-1.69098 4.8593,-1.68903 4.8594,-1.6871 4.8594,-1.68516 4.8594,-1.68323 4.8593,-1.6813 4.8594,-1.67937 4.8594,-1.67745 4.8594,-1.67553 4.8593,-1.67361 4.8594,-1.67169 4.8594,-1.66978 4.8593,-1.66787 4.8594,-1.66597 4.8594,-1.66406 4.8594,-1.66216 4.8594,-1.66027 4.8593,-1.65836 4.8594,-1.65648 4.8594,-1.65458 4.8594,-1.6527 4.8593,-1.65082 4.8594,-1.64894 4.8594,-1.64706 4.8594,-1.64518 4.8593,-1.64331 4.8594,-1.64145 4.8594,-1.63958 4.8594,-1.63771 4.8593,-1.63586 4.8594,-1.634 4.8594,-1.63215 4.8594,-1.6303 4.8593,-1.62845 4.8594,-1.62661 4.8594,-1.62476 4.8594,-1.62293 4.8593,-1.62109 4.8594,-1.61926 4.8594,-1.61743 4.8594,-1.61561 4.8593,-1.61378 4.8594,-1.61197 4.8594,-1.61015 4.8594,-1.60833 4.8593,-1.60653 4.8594,-1.60472 4.8594,-1.60291 4.8594,-1.60112 4.8593,-1.59931 4.8594,-1.59753 4.8594,-1.59573 4.8594,-1.59394 4.8593,-1.59216 4.8594,-1.59037 4.8594,-1.5886 4.8594,-1.58682 4.8593,-1.58505 4.8594,-1.58328 4.8594,-1.58151 4.8594,-1.57975 4.8593,-1.578 4.8594,-1.57623 4.8594,-1.57448 4.8594,-1.57273 4.8593,-1.57099 4.8594,-1.56924 4.8594,-1.56749 4.8594,-1.56577 4.8593,-1.56402 4.8594,-1.5623 4.8594,-1.56057 4.8594,-1.55884 4.8593,-1.55712 4.8594,-1.5554 4.8594,-1.55369 4.8594,-1.55197 4.8593,-1.55027 4.8594,-1.54856 4.8594,-1.54686 4.8594,-1.54516 4.8593,-1.54346 4.8594,-1.54177 4.8594,-1.54008 4.8594,-1.53839 4.8593,-1.53671 4.8594,-1.53503 4.8594,-1.53335 4.8594,-1.53167 4.8593,-1.53001 4.8594,-1.52834 4.8594,-1.52668 4.8594,-1.52501 4.8593,-1.52336 4.8594,-1.5217 4.8594,-1.52005 4.8594,-1.5184 4.8593,-1.51676 4.8594,-1.51512 4.8594,-1.51347 4.8594,-1.51184 4.8593,-1.51021 4.8594,-1.50858 4.8594,-1.50696 4.8594,-1.50533 4.8593,-1.50371 4.8594,-1.5021 4.8594,-1.50048 4.8594,-1.49888 4.8593,-1.49726 4.8594,-1.49567 4.8594,-1.49406 4.8594,-1.49247 4.8593,-1.49088 4.8594,-1.48928 4.8594,-1.4877 4.8594,-1.48611 4.8593,-1.48453 4.8594,-1.48296"
     stroke-opacity="0.698039"
     stroke-linecap="round"
     stroke-linejoin="round"
     stroke-miterlimit="10"
     stroke-width="2.5"
     id="path190"
     style="stroke-width:8.41163219;stroke-dasharray:none;stroke:#ef9067;stroke-opacity:1;stroke-linejoin:miter;stroke-linecap:square"
     transform="matrix(0.18232897,0,0,0.17716535,0.40883552,0)" />
  <path
     fill="none"
     stroke="#006400"
     paint-order="fill stroke markers"
     d="m 289.13281,-4.3486774 1.21485,7.6642018 1.21484,7.6031896 1.21484,7.542112 1.21485,7.469628 1.21484,7.409727 1.21484,7.32531 1.21485,7.279683 1.21484,7.20779 1.21485,7.144565 1.21484,7.086522 1.21484,7.00611 1.21485,6.961494 1.21484,6.894072 1.21484,6.83227 1.21485,6.776103 1.21484,6.69927 1.21485,6.65656 1.21484,6.59144 1.21484,6.53195 1.21485,6.46758 1.21484,6.41586 1.21484,6.36278 1.21485,6.30041 1.21484,6.24105 1.21485,6.18955 1.21484,6.12876 1.21484,6.07933 1.21485,6.0237 1.21484,5.96361 1.21484,5.91269 1.21485,5.85601 1.21484,5.80807 1.21485,5.75523 1.21484,5.69793 1.21484,5.64851 1.21485,5.59639 1.21484,5.54553 1.21484,5.49728 1.21485,5.44278 1.21484,5.39663 1.21485,5.34246 1.21484,5.29577 1.21484,5.24503 1.21485,5.20089 1.21484,5.14806 1.21484,5.1058 1.21485,5.05818 1.21484,5.00675 2.42969,9.87628 2.42969,9.70096 2.42968,9.51373 2.42969,9.33877 2.42969,9.16497 2.42969,8.99282 2.42968,8.82206 2.42969,8.65786 2.42969,8.49863 2.42969,8.33194 2.42968,8.17492 2.42969,8.02002 2.42969,7.86591 2.42969,7.71727 2.42968,7.56675 2.42969,7.41903 2.42969,7.27726 2.42969,7.13586 2.42968,6.99661 2.42969,6.85775 2.42969,6.72845 2.42969,6.59055 2.42968,6.46181 2.42969,6.33368 2.42969,6.20707 2.42969,6.08176 2.42968,5.96068 2.42969,5.84363 2.42969,5.72044 2.42969,5.60557 2.42968,5.49113 2.42969,5.37846 2.42969,5.26894 2.42969,5.15828 2.42968,5.04962 4.85938,9.78665 4.85937,9.37647 4.85938,8.98358 4.85937,8.59894 4.85938,8.22695 4.85937,7.8718 4.85938,7.5212 4.85937,7.18493 4.85938,6.86332 4.85937,6.54562 4.85938,6.24108 4.85937,5.94999 4.85938,5.66181 4.85937,5.38743 4.85938,5.12161 4.85937,4.86195 4.85938,4.61348 4.85937,4.37138 4.85938,4.13977 4.85937,3.91335 4.85938,3.69446 4.85937,3.48598 4.85938,3.27964 4.85937,3.08238 4.85938,2.894 4.85937,2.70764 4.85938,2.52954 4.85937,2.35974 4.85938,2.19108 4.85937,2.03041 4.85938,1.87695 4.85937,1.72515 4.85938,1.58076 4.85937,1.44115 4.85938,1.30493 4.85937,1.17485 4.85938,1.04808 4.85937,0.92741 4.85938,0.80932 4.85937,0.69521 4.85938,0.58661 4.85937,0.48043 4.85938,0.378 4.85937,0.28073 4.85938,0.1845 4.85937,0.0929 4.85938,0.006 4.85937,-0.0807 4.85938,-0.16281 4.85937,-0.24089 4.85938,-0.31834 4.85937,-0.39155 4.85938,-0.46203 4.85937,-0.53103 4.85938,-0.5964 4.85937,-0.65942 4.85938,-0.721 4.85937,-0.77934 4.85938,-0.836 4.85937,-0.88976 4.85938,-0.94229 4.85937,-0.99275 4.85938,-1.04026 4.85937,-1.08732 4.85938,-1.13193 4.85937,-1.17399 4.85938,-1.21575 4.85937,-1.25516 4.85938,-1.29232 4.85937,-1.32925 4.85938,-1.3638 4.85937,-1.39731 4.85938,-1.42883 4.85937,-1.45958 4.85938,-1.4886 4.85938,-1.51693 4.85937,-1.54347 4.85937,-1.56916 4.85938,-1.59321 4.85937,-1.61663 4.85938,-1.63866 4.85937,-1.65995 4.85938,-1.68019 4.85938,-1.69936 4.85937,-1.71736 4.85937,-1.73452 4.85938,-1.75092 4.85937,-1.76659 4.85938,-1.78142 4.85938,-1.79531 4.85937,-1.80831 4.85938,-1.82058 4.85937,-1.83234 4.85937,-1.84318 4.85938,-1.8537 4.85937,-1.86319 4.85938,-1.87228 4.85937,-1.88056 4.85938,-1.88824 4.85938,-1.89545 4.85937,-1.90221 4.85937,-1.90843 4.85938,-1.91402 4.85937,-1.91906 4.85938,-1.92358 4.85937,-1.92787 4.85938,-1.93146 4.85937,-1.93491 4.85938,-1.93771 4.85937,-1.94023 4.85938,-1.94214 4.85937,-1.94391 4.85938,-1.94518 4.85937,-1.94621 4.85938,-1.9469 4.85937,-1.9472 4.85933,-1.94715 4.8594,-1.94675 4.8594,-1.94616 4.8594,-1.94533 4.8593,-1.94421 4.8594,-1.94278 4.8594,-1.94105 4.8594,-1.93908 4.8594,-1.93696 4.8593,-1.93453 4.8594,-1.93201 4.8594,-1.92913 4.8594,-1.92616 4.8593,-1.92286 4.8594,-1.9195 4.8594,-1.91586 4.8594,-1.91214 4.8593,-1.90825 4.8594,-1.90417 4.8594,-1.89987 4.8594,-1.89544 4.8593,-1.89091 4.8594,-1.88627 4.8594,-1.88149 4.8594,-1.87656 4.8593,-1.87147 4.8594,-1.86627 4.8594,-1.86101 4.8594,-1.85561 4.8593,-1.85015 4.8594,-1.84454 4.8594,-1.83888 4.8594,-1.83305 4.8593,-1.82722 4.8594,-1.82124 4.8594,-1.81528 4.8594,-1.80914 4.8593,-1.803 4.8594,-1.79674 4.8594,-1.79042 4.8594,-1.78405 4.8593,-1.77764 4.8594,-1.77119 4.8594,-1.76465 4.8594,-1.75805 4.8593,-1.7514 4.8594,-1.74474 4.8594,-1.73801 4.8594,-1.73127 4.8593,-1.72447 4.8594,-1.71764 4.8594,-1.71075 4.8594,-1.70386 4.8593,-1.69693 4.8594,-1.68999 4.8594,-1.68299 4.8594,-1.67601 4.8593,-1.66896 4.8594,-1.6619 4.8594,-1.65484 4.8594,-1.64776 4.8593,-1.64067 4.8594,-1.63356 4.8594,-1.62642 4.8594,-1.61927 4.8593,-1.61213 4.8594,-1.60496 4.8594,-1.59782 4.8594,-1.59064 4.8593,-1.58347 4.8594,-1.57627 4.8594,-1.5691 4.8594,-1.5619 4.8593,-1.55474 4.8594,-1.54754 4.8594,-1.54036 4.8594,-1.53317 4.8593,-1.52598 4.8594,-1.51881 4.8594,-1.51164 4.8594,-1.50447 4.8593,-1.49732 4.8594,-1.49016 4.8594,-1.483 4.8594,-1.47586 4.8593,-1.46874 4.8594,-1.46163 4.8594,-1.4545 4.8594,-1.44741 4.8593,-1.44031 4.8594,-1.43324 4.8594,-1.42617 4.8594,-1.41912 4.8593,-1.41208 4.8594,-1.40505 4.8594,-1.39804 4.8594,-1.39104 4.8593,-1.38405 4.8594,-1.37709 4.8594,-1.37014 4.8594,-1.3632 4.8593,-1.35628 4.8594,-1.34937 4.8594,-1.34249 4.8594,-1.33562 4.8593,-1.32877 4.8594,-1.32194 4.8594,-1.31512 4.8594,-1.30832 4.8593,-1.30154 4.8594,-1.29478 4.8594,-1.28804 4.8594,-1.28132 4.8593,-1.27463 4.8594,-1.26793 4.8594,-1.26127 4.8594,-1.25463 4.8593,-1.24801 4.8594,-1.24141 4.8594,-1.23483 4.8594,-1.22827 4.8593,-1.22173 4.8594,-1.2152 4.8594,-1.20871 4.8594,-1.20224 4.8593,-1.19578 4.8594,-1.18935 4.8594,-1.18293 4.8594,-1.17655 4.8593,-1.17017 4.8594,-1.16383 4.8594,-1.1575 4.8594,-1.1512 4.8593,-1.14492 4.8594,-1.13866 4.8594,-1.13242 4.8594,-1.12621 4.8593,-1.12001 4.8594,-1.11385 4.8594,-1.10769 4.8594,-1.10157 4.8593,-1.09546 4.8594,-1.08939 4.8594,-1.08333 4.8594,-1.07728 4.8593,-1.07128 4.8594,-1.06528 4.8594,-1.05932 4.8594,-1.05336 4.8593,-1.04745 4.8594,-1.04154 4.8594,-1.03566 4.8594,-1.02981 4.8593,-1.02397 4.8594,-1.01815 4.8594,-1.01237 4.8594,-1.0066 4.8593,-1.00086 4.8594,-0.99514 4.8594,-0.98943 4.8594,-0.98376 4.8593,-0.9781 4.8594,-0.97247 4.8594,-0.96686 4.8594,-0.96127 4.8593,-0.9557 4.8594,-0.95016 4.8594,-0.94464 4.8594,-0.93914 4.8593,-0.93366 4.8594,-0.9282 4.8594,-0.92278 4.8594,-0.91735 4.8593,-0.91198 4.8594,-0.9066 4.8594,-0.90126 4.8594,-0.89593 4.8593,-0.89063 4.8594,-0.88535 4.8594,-0.8801 4.8594,-0.87485 4.8593,-0.86964 4.8594,-0.86445 4.8594,-0.85927 4.8593,-0.85413 4.8594,-0.84899 4.8594,-0.84388 4.8594,-0.8388 4.8594,-0.83374 4.8593,-0.82869 4.8594,-0.82366 4.8594,-0.81867 4.8594,-0.81368 4.8593,-0.80872 4.8594,-0.80379 4.8594,-0.79886 4.8594,-0.79397 4.8593,-0.78909 4.8594,-0.78424 4.8594,-0.7794 4.8593,-0.77459 4.8594,-0.76979 4.8594,-0.76502 4.8594,-0.76027 4.8594,-0.75554 4.8593,-0.75082 4.8594,-0.74613 4.8594,-0.74146 4.8594,-0.73681 4.8593,-0.73217 4.8594,-0.72757 4.8594,-0.72297 4.8594,-0.7184 4.8593,-0.71385 4.8594,-0.70932 4.8594,-0.70481 4.8594,-0.70031 4.8593,-0.69585 4.8594,-0.69138 4.8594,-0.68696 4.8594,-0.68254 4.8593,-0.67815 4.8594,-0.67377 4.8594,-0.66941 4.8594,-0.66508 4.8593,-0.66076 4.8594,-0.65646 4.8594,-0.65219 4.8594,-0.64792 4.8593,-0.64368 4.8594,-0.63946 4.8594,-0.63525 4.8594,-0.63107 4.8593,-0.6269 4.8594,-0.62275 4.8594,-0.61863 4.8594,-0.61451 4.8593,-0.61043 4.8594,-0.60634 4.8594,-0.6023 4.8594,-0.59825 4.8593,-0.59424 4.8594,-0.59024 4.8594,-0.58625 4.8594,-0.58229 4.8593,-0.57834 4.8594,-0.57441 4.8594,-0.5705 4.8594,-0.56661 4.8593,-0.56274 4.8594,-0.55888 4.8594,-0.55503 4.8594,-0.55122 4.8593,-0.54741 4.8594,-0.54362 4.8594,-0.53985 4.8594,-0.5361 4.8593,-0.53237 4.8594,-0.52865 4.8594,-0.52494 4.8594,-0.52127 4.8593,-0.5176 4.8594,-0.51394 4.8594,-0.51032 4.8594,-0.5067 4.8593,-0.5031 4.8594,-0.49952 4.8594,-0.49596 4.8594,-0.49241 4.8593,-0.48887 4.8594,-0.48536 4.8594,-0.48186 4.8594,-0.47839 4.8593,-0.47491 4.8594,-0.47147 4.8594,-0.46803 4.8594,-0.46462 4.8593,-0.46122 4.8594,-0.45783 4.8594,-0.45446 4.8594,-0.45112 4.8593,-0.44778 4.8594,-0.44446 4.8594,-0.44115 4.8594,-0.43787 4.8593,-0.43459 4.8594,-0.43134 4.8594,-0.4281 4.8594,-0.42487 4.8593,-0.42167 4.8594,-0.41847 4.8594,-0.41529 4.8594,-0.41213 4.8593,-0.40898 4.8594,-0.40585 4.8594,-0.40273 4.8594,-0.39964 4.8593,-0.39654 4.8594,-0.39348 4.8594,-0.39042 4.8594,-0.38738 4.8593,-0.38435 4.8594,-0.38134 4.8594,-0.37835 4.8594,-0.37537 4.8593,-0.3724 4.8594,-0.36945"
     stroke-opacity="0.698039"
     stroke-linecap="round"
     stroke-linejoin="round"
     stroke-miterlimit="10"
     stroke-width="2.5"
     id="path193"
     style="stroke-width:8.41268366;stroke-dasharray:none;stroke:#3070b3;stroke-opacity:1;stroke-linejoin:miter;stroke-linecap:square"
     transform="matrix(0.18232897,0,0,0.17716535,0.40883552,0)" />
  <g
     inkscape:label=""
     transform="translate(61.058952,97.077256)"
     id="g197">
    <g
       fill="#000000"
       fill-opacity="1"
       id="g2"
       transform="matrix(1.33333,0,0,1.33333,-3.21983,-2.34183)">
      <g
         id="use1"
         transform="translate(1.993,9.0220003)">
        <path
           d="m 5.015625,-3.484375 c 0,-0.875 -0.046875,-1.75 -0.4375,-2.5625 -0.5,-1.046875 -1.390625,-1.21875 -1.859375,-1.21875 -0.640625,0 -1.4375,0.28125 -1.890625,1.296875 -0.34375,0.75 -0.40625,1.609375 -0.40625,2.484375 0,0.8125 0.046875,1.796875 0.5,2.625 0.46875,0.875 1.265625,1.09375 1.796875,1.09375 0.578125,0 1.421875,-0.21875 1.890625,-1.265625 0.359375,-0.75 0.40625,-1.59375 0.40625,-2.453125 z M 2.71875,0 C 2.296875,0 1.640625,-0.265625 1.453125,-1.3125 c -0.125,-0.65625 -0.125,-1.671875 -0.125,-2.3125 0,-0.6875 0,-1.40625 0.09375,-2 C 1.625,-6.921875 2.4375,-7.03125 2.71875,-7.03125 c 0.359375,0 1.078125,0.203125 1.28125,1.28125 0.109375,0.609375 0.109375,1.4375 0.109375,2.125 0,0.828125 0,1.5625 -0.125,2.265625 C 3.828125,-0.328125 3.203125,0 2.71875,0 Z m 0,0"
           id="path2" />
      </g>
    </g>
  </g>
  <g
     inkscape:label=""
     transform="translate(391.32689,96.195964)"
     id="g200">
    <g
       fill="#000000"
       fill-opacity="1"
       id="g199"
       transform="matrix(1.33333,0,0,1.33333,-3.949,-2.34183)">
      <g
         id="g198"
         transform="translate(1.993,9.0220003)">
        <path
           d="m 3.203125,-6.984375 c 0,-0.25 0,-0.28125 -0.25,-0.28125 C 2.28125,-6.5625 1.3125,-6.5625 0.96875,-6.5625 v 0.328125 c 0.21875,0 0.859375,0 1.4375,-0.28125 v 5.65625 c 0,0.390625 -0.046875,0.515625 -1.015625,0.515625 H 1.03125 V 0 c 0.390625,-0.03125 1.328125,-0.03125 1.765625,-0.03125 0.4375,0 1.390625,0 1.765625,0.03125 V -0.34375 H 4.21875 c -0.984375,0 -1.015625,-0.109375 -1.015625,-0.515625 z m 0,0"
           id="path197" />
      </g>
    </g>
  </g>
</svg>
