<?xml version="1.0" encoding="UTF-8" standalone="no"?>
<svg
   version="1.1"
   width="120mm"
   height="60mm"
   id="svg197"
   sodipodi:docname="2D_unbounded.svg"
   inkscape:version="1.3.2 (091e20ef0f, 2023-11-25, custom)"
   xmlns:inkscape="http://www.inkscape.org/namespaces/inkscape"
   xmlns:sodipodi="http://sodipodi.sourceforge.net/DTD/sodipodi-0.dtd"
   xmlns="http://www.w3.org/2000/svg"
   xmlns:svg="http://www.w3.org/2000/svg">
  <sodipodi:namedview
     id="namedview197"
     pagecolor="#ffffff"
     bordercolor="#000000"
     borderopacity="0.25"
     inkscape:showpageshadow="2"
     inkscape:pageopacity="0.0"
     inkscape:pagecheckerboard="0"
     inkscape:deskcolor="#d1d1d1"
     inkscape:zoom="2.0089394"
     inkscape:cx="208.06999"
     inkscape:cy="147.83921"
     inkscape:window-width="1920"
     inkscape:window-height="1056"
     inkscape:window-x="0"
     inkscape:window-y="0"
     inkscape:window-maximized="1"
     inkscape:current-layer="svg197"
     inkscape:document-units="mm" />
  <defs
     id="defs1">
    <clipPath
       id="rWGhAzvRvNzk">
      <path
         fill="none"
         stroke="none"
         d="M 0,0 H 2488 V 1280 H 0 Z"
         id="path1" />
    </clipPath>
  </defs>
  <rect
     style="fill:#ffffff;fill-opacity:1;stroke:#ffffff;stroke-width:0;paint-order:markers stroke fill"
     id="rect1"
     width="461.10239"
     height="234.3307"
     x="-3.7795277"
     y="-3.7795277"
     inkscape:export-filename="2D_unbounded.pdf"
     inkscape:export-xdpi="96"
     inkscape:export-ydpi="96" />
  <path
     fill="none"
     stroke="rgb(37,37,37)"
     paint-order="fill stroke markers"
     d="M 61.396449,19.275968 V 207.4957"
     stroke-opacity="1"
     stroke-miterlimit="10"
     id="path6"
     style="stroke:#333a41;stroke-width:0.755908;stroke-linecap:square;stroke-miterlimit:4;stroke-dasharray:none;stroke-opacity:1"
     inkscape:export-filename="../Documents/Studium/Uni M.Sc/4. Semester SoSe 2023-24/masterthesis/thesis/figures/2D_bounds/2D_bounded.pdf"
     inkscape:export-xdpi="96"
     inkscape:export-ydpi="96" />
  <path
     fill="none"
     stroke="rgb(37,37,37)"
     paint-order="fill stroke markers"
     d="M 5.881053e-8,107.51333 H 453.54331"
     stroke-opacity="1"
     stroke-miterlimit="10"
     id="path9"
     style="stroke:#333a41;stroke-width:0.75590551;stroke-dasharray:none;stroke-opacity:1" />
  <path
     fill="none"
     stroke="rgb(0,0,0)"
     paint-order="fill stroke markers"
     d="M 383.92037,207.49619 V 18.897638"
     stroke-opacity="0.6980392156862745"
     stroke-linecap="round"
     stroke-linejoin="round"
     stroke-miterlimit="10"
     stroke-width="2.5"
     id="path169"
     style="stroke:#333a41;stroke-width:0.755905;stroke-linecap:square;stroke-linejoin:miter;stroke-dasharray:2.26772, 2.26772;stroke-dashoffset:0;stroke-opacity:1" />
  <path
     fill="none"
     stroke="#993300"
     paint-order="fill stroke markers"
     d="m 4.7244093,216.18561 0.8673721,-0.4729 0.8673721,-0.47231 0.8673721,-0.47168 0.8673722,-0.47106 0.8673721,-0.47046 0.8673721,-0.46985 0.867372,-0.46924 0.867372,-0.46863 0.867372,-0.46802 0.867372,-0.46743 0.867372,-0.46681 0.867373,-0.46621 0.867372,-0.4656 0.867372,-0.465 0.867372,-0.4644 0.867372,-0.4638 0.867372,-0.46319 0.867372,-0.46262 0.867372,-0.462 0.867372,-0.46141 0.867373,-0.46079 0.867371,-0.46023 0.867373,-0.45961 0.867371,-0.45902 0.867372,-0.45842 0.867373,-0.45784 0.867371,-0.45726 0.867373,-0.45665 0.867371,-0.45607 0.867373,-0.45547 0.867371,-0.4549 0.867373,-0.45431 0.867372,-0.45371 0.867372,-0.45313 0.867371,-0.45256 0.867374,-0.45194 0.867371,-0.45138 0.867373,-0.45082 0.867373,-0.45021 0.867371,-0.44963 0.867372,-0.44906 0.867375,-0.44848 0.867371,-0.44791 0.867372,-0.44733 0.867371,-0.44674 0.867371,-0.44618 0.867372,-0.44559 0.867371,-0.44503 0.867371,-0.44446 0.867376,-0.4439 0.867371,-0.4433 0.867371,-0.44274 0.867372,-0.44218 0.867375,-0.44161 0.867371,-0.44102 0.867371,-0.44048 0.867372,-0.4399 0.867371,-0.43935 0.867371,-0.43877 0.867376,-0.43821 0.867371,-0.43766 0.867371,-0.43709 0.867372,-0.43653 0.867375,-0.43597 0.867371,-0.43541 0.867371,-0.43484 0.867372,-0.43429 0.867371,-0.43374 0.867371,-0.43318 0.867376,-0.43262 0.867371,-0.43208 0.867371,-0.43153 0.867372,-0.43096 0.867375,-0.43041 0.867371,-0.42988 0.867371,-0.4293 0.867372,-0.42877 0.867371,-0.42821 0.867372,-0.42766 0.867375,-0.42713 0.867371,-0.42656 0.867371,-0.42603 0.867372,-0.4255 0.867375,-0.42493 0.867367,-0.4244 0.867376,-0.42387 0.867371,-0.42332 0.867371,-0.42276 0.867372,-0.42224 0.867375,-0.4217 0.867371,-0.42116 0.867371,-0.42062 0.867372,-0.42008 0.867371,-0.41954 0.867371,-0.41902 0.867376,-0.41848 0.867371,-0.41795 0.867371,-0.41741 0.867372,-0.41688 0.867375,-0.41636 0.867371,-0.41582 0.867371,-0.41529 0.867372,-0.41477 0.867371,-0.41423 0.867371,-0.41371 0.867376,-0.41318 0.867371,-0.41266 0.867371,-0.41213 0.867372,-0.41161 0.867374,-0.41108 0.86737,-0.41057 0.86737,-0.41004 0.86737,-0.40952 0.86738,-0.409 0.86737,-0.40848 0.86737,-0.40796 0.86737,-0.40745 0.86738,-0.40693 0.86737,-0.40641 0.86737,-0.4059 0.86737,-0.40538 0.86737,-0.40487 0.86738,-0.40435 0.86737,-0.40384 0.86737,-0.40334 0.86737,-0.40282 0.86738,-0.40231 0.86737,-0.4018 0.86737,-0.40129 0.86737,-0.40078 0.86737,-0.40029 0.86738,-0.39977 0.86737,-0.39926 0.86737,-0.39876 0.86737,-0.39826 0.86737,-0.39775 0.86738,-0.39725 0.86737,-0.39675 0.86737,-0.39625 0.86737,-0.39575 0.86738,-0.39525 0.86737,-0.39475 0.86737,-0.39425 0.86737,-0.39375 0.86737,-0.39326 0.86738,-0.39276 0.86737,-0.39227 0.86737,-0.39177 0.86737,-0.39128 0.86737,-0.39079 0.86737,-0.39029 0.86738,-0.38981 0.86737,-0.38931 0.86737,-0.38882 0.86737,-0.38833 0.86738,-0.38785 0.86737,-0.38735 0.86737,-0.38687 0.86737,-0.38638 0.86737,-0.3859 0.86737,-0.38541 0.86738,-0.38493 0.86737,-0.38444 0.86737,-0.38397 0.86737,-0.38348 0.86738,-0.383 0.86737,-0.38252 0.86737,-0.38203 0.86737,-0.38157 0.86737,-0.38108 0.86737,-0.3806 0.86738,-0.38013 0.86737,-0.37965 0.86737,-0.37918 0.86737,-0.37869 0.86738,-0.37825 0.86737,-0.37775 0.86737,-0.3773 0.86737,-0.3768 0.86737,-0.37635 0.86738,-0.37585 0.86737,-0.3754 0.86737,-0.37495 0.86737,-0.37445 0.86737,-0.374 0.86738,-0.37354 0.86737,-0.37305 0.86737,-0.3726 0.86737,-0.37214 0.86738,-0.37164 0.86737,-0.3712 0.86737,-0.37073 0.86737,-0.37029 0.86737,-0.36982 0.86738,-0.36938 0.86737,-0.36888 0.86737,-0.36842 0.86737,-0.36797 0.86737,-0.36751 0.86738,-0.36706 0.86737,-0.36661 0.86737,-0.36615 0.86737,-0.36569 0.86738,-0.36524 0.86737,-0.36479 0.86736,-0.36433 0.86738,-0.36388 0.86737,-0.36342 0.86738,-0.36296 0.86736,-0.36255 0.86737,-0.36209 0.86738,-0.3616 0.86738,-0.36119 0.86737,-0.36073 0.86736,-0.36031 0.86738,-0.35982 0.86738,-0.35936 0.86737,-0.35895 0.86736,-0.35849 0.86738,-0.35807 0.86738,-0.35762 0.86737,-0.35717 0.86736,-0.35675 0.86738,-0.35629 0.86737,-0.35588 0.86738,-0.35542 0.86736,-0.35496 0.86738,-0.35455 0.86737,-0.3541 0.86738,-0.35367 0.86736,-0.35323 0.86738,-0.3528 0.86737,-0.35235 0.86738,-0.3519 0.86736,-0.35147 0.86737,-0.35107 0.86738,-0.3506 0.86738,-0.35019 0.86736,-0.34974 0.86737,-0.34935 0.86738,-0.3489 0.86737,-0.34848 0.86736,-0.34803 0.86738,-0.34761 0.86737,-0.3472 0.86738,-0.34674 0.86736,-0.34636 0.86738,-0.3459 0.86737,-0.34549 0.86738,-0.34507 0.86736,-0.34462 0.86738,-0.3442 0.86737,-0.34378 0.86738,-0.34336 0.86736,-0.34295 0.86737,-0.34253 0.86738,-0.34212 0.86738,-0.34169 0.86736,-0.34128 0.86737,-0.34087 0.86738,-0.34044 0.86738,-0.34003 0.86736,-0.33961 0.86737,-0.3392 0.86738,-0.33878 0.86738,-0.33836 0.86735,-0.33794 0.86738,-0.33757 0.86738,-0.33714 0.86737,-0.3367 0.86736,-0.33631 0.86738,-0.3359 0.86738,-0.33551 0.86737,-0.33511 0.86736,-0.33464 0.86738,-0.33427 0.86737,-0.33385 0.86738,-0.33343 0.86736,-0.33305 0.86737,-0.33264 0.86738,-0.33226 0.86738,-0.33184 0.86735,-0.33142 0.86738,-0.33104 0.86738,-0.33063 0.86738,-0.33021 0.86735,-0.32983 0.86738,-0.32941 0.86738,-0.32908 0.86737,-0.32865 0.86736,-0.32824 0.86738,-0.32786 0.86738,-0.32744 0.86737,-0.32703 0.86736,-0.326681 0.86738,-0.326267 0.86738,-0.32585 0.86737,-0.325471 0.86736,-0.325092 0.86738,-0.324674 0.86737,-0.324296 0.86738,-0.323917 0.86736,-0.323537 0.86738,-0.32312 0.86737,-0.322704 0.86738,-0.322362 0.86736,-0.321945 0.86738,-0.321566 0.86737,-0.321187 0.86738,-0.320808 0.86736,-0.32039 0.86737,-0.32005 0.86738,-0.319632 0.86737,-0.319292 0.86736,-0.318874 0.86738,-0.318495 0.86738,-0.318116 0.86737,-0.317737 0.86736,-0.317358 0.86738,-0.316979 0.86737,-0.316599 0.86738,-0.316221 0.86736,-0.315841 0.86738,-0.315462 0.86737,-0.315083 0.86738,-0.314704 0.86736,-0.314325 0.86738,-0.313946 0.86737,-0.313605 0.86738,-0.313225 0.86736,-0.312809 0.86737,-0.312467 0.86738,-0.312088 0.86738,-0.311709 0.86736,-0.311368 0.86737,-0.31095 0.86738,-0.310572 0.86738,-0.310231 0.86736,-0.309851 0.86737,-0.309472 0.86738,-0.309131 0.86737,-0.308752 0.86736,-0.308411 0.86738,-0.308031 0.86738,-0.307653 0.86737,-0.307273 0.86736,-0.306932 0.86738,-0.306591 0.86737,-0.306174 0.86738,-0.305871 0.86736,-0.305491 0.86737,-0.30515 0.86738,-0.304772 0.86738,-0.304392 0.86736,-0.304088 0.86737,-0.30371 0.86738,-0.303331 0.86738,-0.302951 0.86735,-0.30261 0.86738,-0.302269 0.86738,-0.30189 0.86738,-0.301549 0.86735,-0.301207 0.86738,-0.300829 0.86738,-0.300487 0.86737,-0.300146 0.86736,-0.299767 0.86738,-0.299425 0.86738,-0.299085 0.86737,-0.298705 0.86736,-0.298402 0.86738,-0.298023 0.86738,-0.297682 0.86737,-0.29734 0.86736,-0.297 0.86738,-0.29662 0.86737,-0.296317 0.86738,-0.295937 0.86736,-0.295597 0.86738,-0.295293 0.86737,-0.294914 0.86738,-0.294573 0.86736,-0.294232 0.86737,-0.293891 0.86738,-0.293549 0.86737,-0.293208 0.86736,-0.292867 0.86738,-0.292526 0.86738,-0.292184 0.86737,-0.291844 0.86736,-0.291502 0.86738,-0.291161 0.86737,-0.290857 0.86738,-0.290479 0.86736,-0.290137 0.86738,-0.289834 0.86737,-0.289493 0.86736,-0.289152 0.86738,-0.28881 0.86738,-0.288507 0.86737,-0.288166 0.86738,-0.287787 0.86736,-0.287483 0.86737,-0.287143 0.86738,-0.286801 0.86738,-0.286497 0.86736,-0.286157 0.86737,-0.285815 0.86738,-0.285513 0.86738,-0.28517 0.86736,-0.284868 0.86737,-0.284526 0.86738,-0.284224 0.86737,-0.283881 0.86736,-0.283541 0.86738,-0.283238 0.86738,-0.282896 0.86737,-0.282593 0.86736,-0.282289 0.86738,-0.281949 0.86737,-0.281607 0.86738,-0.281266 0.86736,-0.281 0.86737,-0.28066 0.86738,-0.280318 0.86736,-0.280015 0.86738,-0.279712 0.86737,-0.27937 0.86738,-0.279105 0.86738,-0.278764 0.86737,-0.278423 0.86737,-0.278119 0.8674,-0.277816 0.86736,-0.277475 0.86737,-0.277171 0.86736,-0.276869 0.86736,-0.276565 0.86737,-0.276223 0.86736,-0.275921 0.8674,-0.275617 0.86737,-0.275314 0.86736,-0.274972 0.86736,-0.274708 0.86741,-0.274404 0.86736,-0.274063 0.86736,-0.273759 0.86737,-0.273456 0.86736,-0.273153 0.8674,-0.27285 0.86737,-0.272546 0.86736,-0.272243 0.86736,-0.27194 0.86741,-0.271636 0.86736,-0.271334 0.86736,-0.271029 0.86737,-0.270727 0.8674,-0.270385 0.86736,-0.27012 0.86737,-0.269817 0.86736,-0.269513 0.86736,-0.269249 0.8674,-0.268906 0.86737,-0.268642 0.86736,-0.2683 0.86737,-0.268035 0.8674,-0.267731 0.86732,-0.267429 0.86741,-0.267163 0.86736,-0.266859 0.86736,-0.266557 0.86737,-0.266253 0.8674,-0.265987 0.86736,-0.265684 0.86737,-0.265382 0.86736,-0.265077 0.8674,-0.264813 0.86737,-0.264509 0.86736,-0.264206 0.86736,-0.26394 0.86737,-0.263637 0.8674,-0.263334 0.86736,-0.263068 0.86737,-0.262803 0.86736,-0.2625 0.8674,-0.262197 0.86736,-0.261893 0.86737,-0.261665 0.86736,-0.261363 0.8674,-0.261059 0.86737,-0.260756 0.86736,-0.260528 0.86737,-0.260225 0.86736,-0.259922 0.8674,-0.259656 0.86736,-0.259392 0.86737,-0.259087 0.86736,-0.258823 0.8674,-0.258557 0.86733,-0.258291 0.8674,-0.257988 0.86737,-0.257685 0.8674,-0.25742 0.86732,-0.257154 0.8674,-0.256889 0.86737,-0.256586 0.86736,-0.25632 0.86737,-0.256055 0.8674,-0.255789 0.86736,-0.255524 0.86736,-0.255259 0.86737,-0.254985 0.86736,-0.254694"
     stroke-opacity="0.698039"
     stroke-linecap="round"
     stroke-linejoin="round"
     stroke-miterlimit="10"
     stroke-width="2.5"
     id="path190"
     style="stroke:#ef9067;stroke-width:1.51181102;stroke-linecap:square;stroke-linejoin:miter;stroke-dasharray:none;stroke-opacity:1" />
  <path
     fill="none"
     stroke="#006400"
     paint-order="fill stroke markers"
     d="m 22.939224,222.37732 0.867371,-0.88423 0.867373,-0.88054 0.867371,-0.87686 0.867372,-0.87321 0.867373,-0.86955 0.867371,-0.86592 0.867373,-0.86229 0.867371,-0.85868 0.867373,-0.8551 0.867371,-0.85149 0.867373,-0.84794 0.867372,-0.84439 0.867372,-0.84083 0.867371,-0.8373 0.867374,-0.83379 0.867371,-0.83026 0.867373,-0.8268 0.867373,-0.82329 0.867371,-0.81984 0.867372,-0.81639 0.867375,-0.81294 0.867371,-0.8095 0.867372,-0.8061 0.867371,-0.80268 0.867371,-0.7993 0.867372,-0.7959 0.867371,-0.79255 0.867371,-0.78918 0.867376,-0.78585 0.867371,-0.78252 0.867371,-0.77919 0.867372,-0.77588 0.867375,-0.7726 0.867371,-0.76929 0.867371,-0.76605 0.867372,-0.76277 0.867371,-0.75952 0.867371,-0.75629 0.867376,-0.75308 0.867371,-0.74986 0.867371,-0.74665 0.867372,-0.74347 0.867375,-0.74028 0.867371,-0.73712 0.867371,-0.73397 0.867372,-0.73084 0.867371,-0.72769 0.867371,-0.72457 0.867376,-0.72146 0.867371,-0.71837 0.867371,-0.7153 0.867372,-0.7122 0.867375,-0.70917 0.867371,-0.70609 0.867371,-0.70306 0.867372,-0.70003 0.867371,-0.697 0.867372,-0.694 0.867375,-0.69101 0.867371,-0.68802 0.867371,-0.68505 0.867372,-0.68208 0.867375,-0.67914 0.867367,-0.67619 0.867376,-0.67326 0.867371,-0.67034 0.867371,-0.66743 0.867372,-0.66453 0.867375,-0.66165 0.867371,-0.65876 0.867371,-0.65591 0.867372,-0.65304 0.867371,-0.6502 0.867371,-0.64737 0.867376,-0.64454 0.867371,-0.64172 0.867371,-0.63893 0.867372,-0.63613 0.867375,-0.63334 0.867371,-0.63058 0.867371,-0.62781 0.867372,-0.62506 0.867371,-0.62232 0.867371,-0.61958 0.867376,-0.61686 0.867371,-0.61416 0.867371,-0.61145 0.867372,-0.60875 0.867374,-0.60608 0.86737,-0.60341 0.86737,-0.60074 0.86737,-0.59809 0.86738,-0.59545 0.86737,-0.59281 0.86737,-0.5902 0.86737,-0.58758 0.86738,-0.58497 0.86737,-0.58238 0.86737,-0.57981 0.86737,-0.57722 0.86737,-0.57466 0.86738,-0.57211 0.86737,-0.56956 0.86737,-0.56702 0.86737,-0.5645 0.86738,-0.56198 0.86737,-0.55947 0.86737,-0.55697 0.86737,-0.55448 0.86737,-0.55201 0.86738,-0.54953 0.86737,-0.54707 0.86737,-0.54462 0.86737,-0.54218 0.86737,-0.53974 0.86738,-0.53731 0.86737,-0.5349 0.86737,-0.5325 0.86737,-0.53009 0.86738,-0.52771 0.86737,-0.52533 0.86737,-0.52295 0.86737,-0.52059 0.86737,-0.51825 0.86738,-0.51589 0.86737,-0.51356 0.86737,-0.51124 0.86737,-0.50891 0.86737,-0.50661 0.86737,-0.5043 0.86738,-0.50201 0.86737,-0.49973 0.86737,-0.49746 0.86737,-0.49518 0.86738,-0.49293 0.86737,-0.49069 0.86737,-0.48843 0.86737,-0.48621 0.86737,-0.48399 0.86737,-0.48176 0.86738,-0.47956 0.86737,-0.47736 0.86737,-0.47517 0.86737,-0.47299 0.86738,-0.47081 0.86737,-0.46865 0.86737,-0.46649 0.86737,-0.46434 0.86737,-0.4622 0.86737,-0.46007 0.86738,-0.45793 0.86737,-0.45583 0.86737,-0.45371 0.86737,-0.45161 0.86738,-0.44952 0.86737,-0.44743 0.86737,-0.44536 0.86737,-0.44328 0.86737,-0.44123 0.86738,-0.43917 0.86737,-0.43712 0.86737,-0.43509 0.86737,-0.43305 0.86737,-0.43104 0.86738,-0.42901 0.86737,-0.42701 0.86737,-0.42501 0.86737,-0.42302 0.86738,-0.42103 0.86737,-0.41906 0.86737,-0.41708 0.86737,-0.41513 0.86737,-0.41317 0.86738,-0.41122 0.86737,-0.40929 0.86737,-0.40735 0.86737,-0.40542 0.86737,-0.40351 0.86738,-0.4016 0.86737,-0.39969 0.86737,-0.39781 0.86737,-0.39591 0.86738,-0.39403 0.86737,-0.39215 0.86736,-0.3903 0.86738,-0.38843 0.86737,-0.38658 0.86738,-0.38473 0.86736,-0.38289 0.86737,-0.38107 0.86738,-0.37924 0.86738,-0.37741 0.86737,-0.37563 0.86736,-0.3738 0.86738,-0.37203 0.86738,-0.37021 0.86737,-0.36842 0.86736,-0.36668 0.86738,-0.3649 0.86738,-0.36316 0.86737,-0.36141 0.86736,-0.35963 0.86738,-0.35788 0.86737,-0.35614 0.86738,-0.35444 0.86736,-0.35273 0.86738,-0.35098 0.86737,-0.34928 0.86738,-0.34758 0.86736,-0.3459 0.86738,-0.3442 0.86737,-0.342532 0.86738,-0.340863 0.86736,-0.339157 0.86737,-0.337526 0.86738,-0.335859 0.86738,-0.334229 0.86736,-0.33256 0.86737,-0.33093 0.86738,-0.3293 0.86737,-0.327708 0.86736,-0.326039 0.86738,-0.324448 0.86737,-0.322855 0.86738,-0.321262 0.86736,-0.319633 0.86738,-0.318078 0.86737,-0.316486 0.86738,-0.314893 0.86736,-0.31334 0.86738,-0.311784 0.86737,-0.310231 0.86738,-0.308676 0.86736,-0.30716 0.86737,-0.305605 0.86738,-0.304051 0.86738,-0.302534 0.86736,-0.301018 0.86737,-0.299539 0.86738,-0.298023 0.86738,-0.296507 0.86736,-0.295028 0.86737,-0.293511 0.86738,-0.292071 0.86738,-0.290554 0.86735,-0.289076 0.86738,-0.287635 0.86738,-0.286157 0.86737,-0.284678 0.86736,-0.283275 0.86738,-0.281835 0.86738,-0.280356 0.86737,-0.278953 0.86736,-0.277513 0.86738,-0.27611 0.86737,-0.274707 0.86738,-0.273267 0.86736,-0.271864 0.86737,-0.270499 0.86738,-0.269096 0.86738,-0.267694 0.86735,-0.266291 0.86738,-0.264964 0.86738,-0.263561 0.86738,-0.262197 0.86735,-0.260831 0.86738,-0.259505 0.86738,-0.25814 0.86737,-0.256813 0.86736,-0.255448 0.86738,-0.254159 0.86738,-0.252833 0.86737,-0.251467 0.86736,-0.250179 0.86738,-0.248851 0.86738,-0.247563 0.86737,-0.246274 0.86736,-0.244946 0.86738,-0.243658 0.86737,-0.242369 0.86738,-0.241117 0.86736,-0.239829 0.86738,-0.238578 0.86737,-0.237288 0.86738,-0.236038 0.86736,-0.234748 0.86738,-0.233535 0.86737,-0.232285 0.86738,-0.231071 0.86736,-0.22982 0.86737,-0.228569 0.86738,-0.227355 0.86737,-0.226143 0.86736,-0.224929 0.86738,-0.223717 0.86738,-0.22254 0.86737,-0.221328 0.86736,-0.220115 0.86738,-0.218939 0.86737,-0.217726 0.86738,-0.216551 0.86736,-0.215376 0.86738,-0.2142 0.86737,-0.213026 0.86738,-0.211887 0.86736,-0.210751 0.86738,-0.209575 0.86737,-0.208438 0.86738,-0.2073 0.86736,-0.206164 0.86737,-0.205025 0.86738,-0.203889 0.86738,-0.202789 0.86736,-0.201652 0.86737,-0.200552 0.86738,-0.199415 0.86738,-0.198315 0.86736,-0.197216 0.86737,-0.196117 0.86738,-0.195017 0.86737,-0.193956 0.86736,-0.192856 0.86738,-0.191795 0.86738,-0.190695 0.86737,-0.189633 0.86736,-0.188573 0.86738,-0.18751 0.86737,-0.186449 0.86738,-0.185426 0.86736,-0.184364 0.86737,-0.18334 0.86738,-0.182279 0.86738,-0.181256 0.86736,-0.180231 0.86737,-0.179208 0.86738,-0.178185 0.86738,-0.17716 0.86735,-0.176176 0.86738,-0.175113 0.86738,-0.174128 0.86738,-0.173104 0.86735,-0.172119 0.86738,-0.171133 0.86738,-0.170147 0.86737,-0.169161 0.86736,-0.168214 0.86738,-0.167228 0.86738,-0.166242 0.86737,-0.165257 0.86736,-0.164309 0.86738,-0.163361 0.86738,-0.162413 0.86737,-0.161465 0.86736,-0.160518 0.86738,-0.15957 0.86737,-0.158622 0.86738,-0.157712 0.86736,-0.156726 0.86738,-0.155817 0.86737,-0.154907 0.86738,-0.153996 0.86736,-0.153087 0.86737,-0.152177 0.86738,-0.15123 0.86737,-0.150357 0.86736,-0.149447 0.86738,-0.148576 0.86738,-0.147666 0.86737,-0.146793 0.86736,-0.145884 0.86738,-0.145012 0.86737,-0.14414 0.86738,-0.143267 0.86736,-0.142396 0.86738,-0.141524 0.86737,-0.140652 0.86736,-0.139818 0.86738,-0.138946 0.86738,-0.138112 0.86737,-0.13724 0.86738,-0.136406 0.86736,-0.135571 0.86737,-0.134738 0.86738,-0.133942 0.86738,-0.133069 0.86736,-0.132236 0.86737,-0.131439 0.86738,-0.130606 0.86738,-0.129771 0.86736,-0.128975 0.86737,-0.128179 0.86738,-0.127383 0.86737,-0.126587 0.86736,-0.125791 0.86738,-0.124994 0.86738,-0.124198 0.86737,-0.123403 0.86736,-0.122644 0.86738,-0.121847 0.86737,-0.121052 0.86738,-0.120294 0.86736,-0.119535 0.86737,-0.118739 0.86738,-0.117981 0.86736,-0.11726 0.86738,-0.116502 0.86737,-0.115707 0.86738,-0.114985 0.86738,-0.114266 0.86737,-0.113469 0.86737,-0.112749 0.8674,-0.112029 0.86736,-0.11127 0.86737,-0.110551 0.86736,-0.109829 0.86736,-0.10911 0.86737,-0.108389 0.86736,-0.107707 0.8674,-0.106949 0.86737,-0.106266 0.86736,-0.105546 0.86736,-0.104825 0.86741,-0.104143 0.86736,-0.103461 0.86736,-0.10274 0.86737,-0.102058 0.86736,-0.101376 0.8674,-0.100693 0.86737,-0.100011 0.86736,-0.09933 0.86736,-0.09865 0.86741,-0.098 0.86736,-0.09732 0.86736,-0.09667 0.86737,-0.09595 0.8674,-0.09535 0.86736,-0.0947 0.86737,-0.09402 0.86736,-0.09338 0.86736,-0.09269 0.8674,-0.09209 0.86737,-0.09144 0.86736,-0.0908 0.86737,-0.09015 0.8674,-0.08951 0.86732,-0.0889 0.86741,-0.0883 0.86736,-0.08765 0.86736,-0.08705 0.86737,-0.0864 0.8674,-0.08579 0.86736,-0.08515 0.86737,-0.08458 0.86736,-0.08398 0.8674,-0.08337 0.86737,-0.08276 0.86736,-0.08216 0.86736,-0.08158 0.86737,-0.08098 0.8674,-0.08041 0.86736,-0.07977 0.86737,-0.07924 0.86736,-0.07863 0.8674,-0.07806 0.86736,-0.07749 0.86737,-0.07688 0.86736,-0.07635 0.8674,-0.07579 0.86737,-0.07522 0.86736,-0.07465 0.86737,-0.07408 0.86736,-0.07351 0.8674,-0.07298 0.86736,-0.07241 0.86737,-0.07188 0.86736,-0.07131 0.8674,-0.07078 0.86733,-0.07025 0.8674,-0.06972 0.86737,-0.06915 0.8674,-0.06866 0.86732,-0.06809 0.8674,-0.0676 0.86737,-0.06707 0.86736,-0.06654 0.86737,-0.066 0.8674,-0.06551 0.86736,-0.06498 0.86736,-0.06445 0.86737,-0.06396 0.86736,-0.06343"
     stroke-opacity="0.698039"
     stroke-linecap="round"
     stroke-linejoin="round"
     stroke-miterlimit="10"
     stroke-width="2.5"
     id="path193"
     style="stroke:#3070b3;stroke-width:1.51181102;stroke-linecap:square;stroke-linejoin:miter;stroke-dasharray:none;stroke-opacity:1" />
  <g
     inkscape:label=""
     transform="translate(63.468454,95.552058)"
     id="g197">
    <g
       fill="#000000"
       fill-opacity="1"
       id="g2"
       transform="matrix(1.33333,0,0,1.33333,-3.21983,-2.34183)">
      <g
         id="use1"
         transform="translate(1.993,9.0220003)">
        <path
           d="m 5.015625,-3.484375 c 0,-0.875 -0.046875,-1.75 -0.4375,-2.5625 -0.5,-1.046875 -1.390625,-1.21875 -1.859375,-1.21875 -0.640625,0 -1.4375,0.28125 -1.890625,1.296875 -0.34375,0.75 -0.40625,1.609375 -0.40625,2.484375 0,0.8125 0.046875,1.796875 0.5,2.625 0.46875,0.875 1.265625,1.09375 1.796875,1.09375 0.578125,0 1.421875,-0.21875 1.890625,-1.265625 0.359375,-0.75 0.40625,-1.59375 0.40625,-2.453125 z M 2.71875,0 C 2.296875,0 1.640625,-0.265625 1.453125,-1.3125 c -0.125,-0.65625 -0.125,-1.671875 -0.125,-2.3125 0,-0.6875 0,-1.40625 0.09375,-2 C 1.625,-6.921875 2.4375,-7.03125 2.71875,-7.03125 c 0.359375,0 1.078125,0.203125 1.28125,1.28125 0.109375,0.609375 0.109375,1.4375 0.109375,2.125 0,0.828125 0,1.5625 -0.125,2.265625 C 3.828125,-0.328125 3.203125,0 2.71875,0 Z m 0,0"
           id="path2" />
      </g>
    </g>
  </g>
  <g
     inkscape:label=""
     transform="translate(386.51618,95.864557)"
     id="g200">
    <g
       fill="#000000"
       fill-opacity="1"
       id="g199"
       transform="matrix(1.33333,0,0,1.33333,-3.949,-2.34183)">
      <g
         id="g198"
         transform="translate(1.993,9.0220003)">
        <path
           d="m 3.203125,-6.984375 c 0,-0.25 0,-0.28125 -0.25,-0.28125 C 2.28125,-6.5625 1.3125,-6.5625 0.96875,-6.5625 v 0.328125 c 0.21875,0 0.859375,0 1.4375,-0.28125 v 5.65625 c 0,0.390625 -0.046875,0.515625 -1.015625,0.515625 H 1.03125 V 0 c 0.390625,-0.03125 1.328125,-0.03125 1.765625,-0.03125 0.4375,0 1.390625,0 1.765625,0.03125 V -0.34375 H 4.21875 c -0.984375,0 -1.015625,-0.109375 -1.015625,-0.515625 z m 0,0"
           id="path197" />
      </g>
    </g>
  </g>
</svg>
